<svg xmlns="http://www.w3.org/2000/svg" width="248" height="248" viewBox="0 0 248 248" fill="none"><path d="M62.091 65.4055L63.0906 65.4311L63.0924 65.3629L63.0848 65.2951L62.091 65.4055ZM61.8148 76.1778L60.8151 76.1522L60.8148 76.165V76.1778H61.8148ZM66.5104 80.8735V79.8735H66.455L66.4 79.8796L66.5104 80.8735ZM152.137 80.8735L152.844 81.5806L154.551 79.8735H152.137V80.8735ZM166.5 95.2366L167.5 95.2333L167.492 92.8301L165.793 94.5295L166.5 95.2366ZM166.776 181.139L167.77 181.249L167.776 181.193L167.776 181.136L166.776 181.139ZM171.472 185.835L171.472 186.835H171.484L171.497 186.834L171.472 185.835ZM182.244 185.558L182.354 184.565L182.286 184.557L182.218 184.559L182.244 185.558ZM61.0913 65.3799L60.8151 76.1522L62.8144 76.2035L63.0906 65.4311L61.0913 65.3799ZM60.8148 76.1778C60.8148 79.4227 63.4354 82.2213 66.6208 81.8673L66.4 79.8796C64.6136 80.0781 62.8148 78.4572 62.8148 76.1778H60.8148ZM66.5104 81.8735H152.137V79.8735H66.5104V81.8735ZM151.429 80.1664L57.2407 174.355L58.6549 175.769L152.844 81.5806L151.429 80.1664ZM57.2407 174.355C54.8791 176.717 55.2315 180.389 57.2407 182.399L58.6549 180.984C57.3495 179.679 57.1494 177.275 58.6549 175.769L57.2407 174.355ZM57.2407 182.399L64.9746 190.133L66.3888 188.718L58.6549 180.984L57.2407 182.399ZM64.9746 190.133C67.2987 192.457 70.694 192.457 73.018 190.133L71.6038 188.718C70.0608 190.261 67.9318 190.261 66.3888 188.718L64.9746 190.133ZM73.018 190.133L167.207 95.9437L165.793 94.5295L71.6038 188.718L73.018 190.133ZM165.5 95.2398L165.776 181.142L167.776 181.136L167.5 95.2333L165.5 95.2398ZM165.782 181.029C165.428 184.214 168.227 186.835 171.472 186.835L171.472 184.835C169.192 184.835 167.571 183.036 167.77 181.249L165.782 181.029ZM171.497 186.834L182.27 186.558L182.218 184.559L171.446 184.835L171.497 186.834ZM182.133 186.552C185.319 186.906 187.94 184.108 187.939 180.863L185.94 180.863C185.94 183.142 184.141 184.763 182.354 184.565L182.133 186.552ZM187.939 180.863L187.94 65.4055H185.94L185.94 180.863L187.939 180.863ZM187.94 65.4055C187.94 63.7849 187.368 62.3484 186.335 61.3148C185.301 60.2812 183.864 59.7099 182.244 59.7099V61.7099C183.385 61.7099 184.297 62.1053 184.92 62.729C185.544 63.3527 185.94 64.264 185.94 65.4055H187.94ZM182.244 59.7099H66.7866V61.7099H182.244V59.7099ZM66.7866 59.7099C63.5417 59.7099 60.7431 62.3305 61.0971 65.5159L63.0848 65.2951C62.8864 63.5087 64.5072 61.7099 66.7866 61.7099V59.7099Z" fill="currentColor"></path></svg>