<svg xmlns="http://www.w3.org/2000/svg" width="248" height="248" viewBox="0 0 248 248" fill="none"><path d="M62.091 65.4055L61.8148 76.1778C61.8148 78.94 64.0245 81.1497 66.5104 80.8735H152.137L57.9478 175.062C56.0143 176.996 56.2905 180.034 57.9478 181.691L65.6817 189.425C67.6152 191.359 70.3774 191.359 72.3109 189.425L166.5 95.2366L166.776 181.139C166.5 183.625 168.709 185.835 171.472 185.835L182.244 185.558C184.73 185.835 186.94 183.625 186.94 180.863V65.4055C186.94 62.6434 185.006 60.7099 182.244 60.7099H66.7866C64.0245 60.7099 61.8148 62.9196 62.091 65.4055Z" fill="currentColor"></path></svg>