<svg xmlns="http://www.w3.org/2000/svg" width="18" height="19" viewBox="0 0 18 19" fill="none"><path d="M5.73047 8.37109C5.55469 8.19531 5.27344 8.19531 5.13281 8.37109L4.32422 9.14453C4.14844 9.32031 4.14844 9.60156 4.32422 9.74219L7.52344 12.9766C7.66406 13.1523 7.94531 13.1523 8.12109 12.9766L14.168 6.96484C14.3438 6.78906 14.3438 6.50781 14.168 6.36719L13.3945 5.55859C13.2188 5.38281 12.9727 5.38281 12.7969 5.55859L7.83984 10.4805L5.73047 8.37109ZM16.3828 3.20312L9.63281 0.390625C9.42188 0.320312 9.21094 0.285156 9 0.285156C8.75391 0.285156 8.54297 0.320312 8.33203 0.390625L1.58203 3.20312C0.949219 3.48438 0.5625 4.08203 0.5625 4.75C0.5625 11.7461 4.57031 16.5625 8.33203 18.1445C8.75391 18.3203 9.21094 18.3203 9.63281 18.1445C12.6562 16.8789 17.4375 12.5547 17.4375 4.75C17.4375 4.08203 17.0156 3.48438 16.3828 3.20312ZM9 16.5625C5.55469 15.1562 2.25 10.7266 2.25 4.75L9 1.9375L15.75 4.75C15.75 10.8672 12.2695 15.1914 9 16.5625Z" fill="currentColor"></path></svg>