<svg xmlns="http://www.w3.org/2000/svg" width="16" height="16" viewBox="0 0 16 16" fill="none"><path d="M15.4375 5.15625C15.2812 5.03125 11.9375 2.34375 11.2188 1.75C10.5312 1.21875 9.34375 0 8 0C6.625 0 5.46875 1.1875 4.75 1.75C4 2.375 0.65625 5.0625 0.53125 5.15625C0.1875 5.4375 0 5.84375 0 6.3125V14.5C0 15.3438 0.65625 16 1.5 16H14.5C15.3125 16 16 15.3438 16 14.5V6.3125C16 5.84375 15.7812 5.4375 15.4375 5.15625ZM14.5 14.3125C14.5 14.4375 14.4062 14.5 14.3125 14.5H1.6875C1.5625 14.5 1.5 14.4375 1.5 14.3125V6.40625C1.5 6.34375 1.5 6.28125 1.5625 6.25C2.0625 5.84375 4.96875 3.53125 5.6875 2.9375C6.25 2.46875 7.25 1.5 8 1.5C8.71875 1.5 9.71875 2.5 10.2812 2.9375C11 3.53125 13.9062 5.84375 14.4062 6.25C14.4688 6.28125 14.5 6.34375 14.5 6.40625V14.3125ZM13.5 8.46875L13 7.875C12.875 7.71875 12.6562 7.6875 12.4688 7.84375C11.5938 8.5625 10.6562 9.3125 10.2812 9.59375C9.71875 10.0625 8.71875 11 8 11C7.25 11 6.25 10.0312 5.6875 9.59375C5.3125 9.3125 4.375 8.5625 3.5 7.84375C3.3125 7.6875 3.09375 7.71875 2.96875 7.875L2.46875 8.46875C2.34375 8.625 2.375 8.875 2.53125 9C3.4375 9.71875 4.40625 10.5 4.75 10.7812C5.4375 11.3125 6.625 12.5 8 12.5C9.34375 12.5 10.5 11.3438 11.2188 10.7812C11.5625 10.4688 12.5312 9.71875 13.4375 9C13.5938 8.875 13.625 8.625 13.5 8.46875Z" fill="currentColor"></path></svg>