<svg xmlns="http://www.w3.org/2000/svg" width="249" height="55" viewBox="0 0 249 55" fill="none"><path d="M50.9883 25.7812V13.75C50.9883 13.5137 50.8594 13.2988 50.6553 13.1807L41.2021 8.02441C41.0088 7.91699 40.7725 7.91699 40.5898 8.02441L38.0977 9.37793V6.875C38.0977 6.63867 37.9688 6.42383 37.7646 6.30566L28.3115 1.14941C28.1182 1.04199 27.8818 1.04199 27.6992 1.14941L18.2461 6.30566C18.042 6.42383 17.9131 6.63867 17.9131 6.875V9.37793L15.4316 8.02441C15.2383 7.91699 15.002 7.91699 14.8193 8.02441L5.36621 13.1807C5.16211 13.2988 5.0332 13.5137 5.0332 13.75V25.7812C5.0332 26.0176 5.16211 26.2324 5.36621 26.3506L7.46094 27.5L5.34473 28.6494C5.14062 28.7676 5.01172 28.9824 5.01172 29.2187V41.25C5.01172 41.4863 5.14062 41.7012 5.34473 41.8193L14.7979 46.9756C14.9912 47.083 15.2275 47.083 15.4102 46.9756L17.8916 45.6221V48.125C17.8916 48.3613 18.0205 48.5762 18.2246 48.6943L27.6777 53.8506C27.8711 53.958 28.1074 53.958 28.29 53.8506L37.7432 48.6943C37.9473 48.5762 38.0762 48.3613 38.0762 48.125V45.6113L40.5576 46.9648C40.751 47.0723 40.9873 47.0723 41.1699 46.9648L50.623 41.8086C50.8271 41.6904 50.9561 41.4756 50.9561 41.2393V29.2187C50.9561 28.9824 50.8271 28.7676 50.623 28.6494L48.5391 27.5L50.6553 26.3506C50.8594 26.2324 50.9883 26.0176 50.9883 25.7812ZM40.8906 9.32422L49.001 13.75L40.8906 18.1758L32.7803 13.75L40.8906 9.32422ZM40.2461 45.3213L38.0977 44.1504V36.0938C38.0977 35.8574 37.9688 35.6426 37.7646 35.5244L35.6484 34.375L37.5928 33.3115L40.2461 34.7617V45.3213ZM28 40.5195L19.8896 36.0938L21.6943 35.1055L27.6885 38.3711C27.8818 38.4785 28.1182 38.4785 28.3008 38.3711L34.2949 35.1055L36.0996 36.0938L28 40.5195ZM15.7539 19.293L23.918 14.8457V16.9727L18.2354 20.0664C18.0313 20.1846 17.9023 20.3994 17.9023 20.6357V28.6924L15.7539 29.8633V19.293ZM19.1914 7.95996L27.3555 12.4072V15.082L25.207 16.2529V13.75C25.207 13.5137 25.0781 13.2988 24.874 13.1807L19.1914 10.0869V7.95996ZM36.8086 10.0869L31.126 13.1807C30.9219 13.2988 30.793 13.5137 30.793 13.75V16.2637L28.6445 15.0928V12.418L36.8086 7.9707V10.0869ZM28.6445 36.7275V26.168L36.8086 21.7207V32.2803L28.6445 36.7275ZM28 25.0508L19.8896 20.625L28 16.1992L36.1104 20.625L28 25.0508ZM19.1914 21.71L27.3555 26.1572V36.7168L19.1914 32.2588V21.71ZM37.7646 20.0557L32.082 16.9619V14.835L40.2461 19.2822V29.8418L38.0977 28.6816V20.625C38.0977 20.3887 37.9688 20.1738 37.7646 20.0557ZM28 2.44922L36.1104 6.875L28 11.3008L19.8896 6.875L28 2.44922ZM15.1094 9.32422L23.2197 13.75L15.1094 18.1758L6.99902 13.75L15.1094 9.32422ZM6.30078 25.3945V14.835L14.4648 19.2822V29.8418L9.11523 26.9199L6.30078 25.3945ZM8.80371 28.2305L14.7979 31.4961C14.9912 31.6035 15.2275 31.6035 15.4102 31.4961L17.8916 30.1426V32.1191L15.0986 33.6445L6.99902 29.2187L8.80371 28.2305ZM6.30078 30.3037L14.4648 34.7617V45.3213L6.30078 40.8633V30.3037ZM15.7539 45.3213V34.7617L18.4072 33.3115L20.3516 34.375L18.2354 35.5244C18.0313 35.6426 17.9023 35.8574 17.9023 36.0938V44.1504L15.7539 45.3213ZM19.1914 37.1787L27.3555 41.6367V52.1963L19.1914 47.7383V37.1787ZM36.8086 47.7383L28.6445 52.1963V41.6367L36.8086 37.1787V47.7383ZM41.5352 45.3213V34.7617L49.6992 30.3037V40.8633L41.5352 45.3213ZM49.001 29.2187L40.8906 33.6445L38.0977 32.1191V30.1426L40.5791 31.4961C40.7725 31.6035 41.0088 31.6035 41.1914 31.4961L47.1855 28.2305L49.001 29.2187ZM46.8848 26.9307L41.5352 29.8525V19.293L49.6992 14.8457V25.4053L46.8848 26.9307Z" fill="#F7C600"></path><path d="M66.34 45V10.44H72.124V45H66.34ZM96.2811 45V32.52C96.2811 31.704 96.2251 30.8 96.1131 29.808C96.0011 28.816 95.7371 27.864 95.3211 26.952C94.9211 26.024 94.3131 25.264 93.4971 24.672C92.6971 24.08 91.6091 23.784 90.2331 23.784C89.4971 23.784 88.7691 23.904 88.0491 24.144C87.3291 24.384 86.6731 24.8 86.0811 25.392C85.5051 25.968 85.0411 26.768 84.6891 27.792C84.3371 28.8 84.1611 30.096 84.1611 31.68L80.7291 30.216C80.7291 28.008 81.1531 26.008 82.0011 24.216C82.8651 22.424 84.1291 21 85.7931 19.944C87.4571 18.872 89.5051 18.336 91.9371 18.336C93.8571 18.336 95.4411 18.656 96.6891 19.296C97.9371 19.936 98.9291 20.752 99.6651 21.744C100.401 22.736 100.945 23.792 101.297 24.912C101.649 26.032 101.873 27.096 101.969 28.104C102.081 29.096 102.137 29.904 102.137 30.528V45H96.2811ZM78.3051 45V19.08H83.4651V27.12H84.1611V45H78.3051ZM117.41 45.72C115.026 45.72 112.946 45.12 111.17 43.92C109.394 42.72 108.018 41.088 107.042 39.024C106.066 36.96 105.578 34.632 105.578 32.04C105.578 29.416 106.066 27.08 107.042 25.032C108.034 22.968 109.434 21.344 111.242 20.16C113.05 18.96 115.178 18.36 117.626 18.36C120.09 18.36 122.154 18.96 123.818 20.16C125.498 21.344 126.77 22.968 127.634 25.032C128.498 27.096 128.93 29.432 128.93 32.04C128.93 34.616 128.498 36.944 127.634 39.024C126.77 41.088 125.482 42.72 123.77 43.92C122.058 45.12 119.938 45.72 117.41 45.72ZM118.298 40.536C119.85 40.536 121.098 40.184 122.042 39.48C123.002 38.76 123.698 37.76 124.13 36.48C124.578 35.2 124.802 33.72 124.802 32.04C124.802 30.344 124.578 28.864 124.13 27.6C123.698 26.32 123.018 25.328 122.09 24.624C121.162 23.904 119.962 23.544 118.49 23.544C116.938 23.544 115.658 23.928 114.65 24.696C113.642 25.448 112.898 26.472 112.418 27.768C111.938 29.048 111.698 30.472 111.698 32.04C111.698 33.624 111.93 35.064 112.394 36.36C112.874 37.64 113.602 38.656 114.578 39.408C115.554 40.16 116.794 40.536 118.298 40.536ZM124.802 45V26.808H124.082V10.44H129.914V45H124.802ZM145.403 45.744C143.483 45.744 141.899 45.424 140.651 44.784C139.403 44.144 138.411 43.328 137.675 42.336C136.939 41.344 136.395 40.288 136.043 39.168C135.691 38.048 135.459 36.992 135.347 36C135.251 34.992 135.203 34.176 135.203 33.552V19.08H141.059V31.56C141.059 32.36 141.115 33.264 141.227 34.272C141.339 35.264 141.595 36.224 141.995 37.152C142.411 38.064 143.019 38.816 143.819 39.408C144.635 40 145.731 40.296 147.107 40.296C147.843 40.296 148.571 40.176 149.291 39.936C150.011 39.696 150.659 39.288 151.235 38.712C151.827 38.12 152.299 37.312 152.651 36.288C153.003 35.264 153.179 33.968 153.179 32.4L156.611 33.864C156.611 36.072 156.179 38.072 155.315 39.864C154.467 41.656 153.211 43.088 151.547 44.16C149.883 45.216 147.835 45.744 145.403 45.744ZM153.875 45V36.96H153.179V19.08H158.987V45H153.875ZM174.778 45.72C171.578 45.72 168.978 45 166.978 43.56C164.978 42.12 163.762 40.096 163.33 37.488L169.234 36.576C169.538 37.856 170.21 38.864 171.25 39.6C172.29 40.336 173.602 40.704 175.186 40.704C176.578 40.704 177.65 40.432 178.402 39.888C179.17 39.328 179.554 38.568 179.554 37.608C179.554 37.016 179.41 36.544 179.122 36.192C178.85 35.824 178.242 35.472 177.298 35.136C176.354 34.8 174.906 34.376 172.954 33.864C170.778 33.288 169.05 32.672 167.77 32.016C166.49 31.344 165.57 30.552 165.01 29.64C164.45 28.728 164.17 27.624 164.17 26.328C164.17 24.712 164.594 23.304 165.442 22.104C166.29 20.904 167.474 19.984 168.994 19.344C170.514 18.688 172.306 18.36 174.37 18.36C176.386 18.36 178.17 18.672 179.722 19.296C181.29 19.92 182.554 20.808 183.514 21.96C184.474 23.112 185.066 24.464 185.29 26.016L179.386 27.072C179.242 25.968 178.738 25.096 177.874 24.456C177.026 23.816 175.89 23.456 174.466 23.376C173.106 23.296 172.01 23.504 171.178 24C170.346 24.48 169.93 25.16 169.93 26.04C169.93 26.536 170.098 26.96 170.434 27.312C170.77 27.664 171.442 28.016 172.45 28.368C173.474 28.72 174.994 29.152 177.01 29.664C179.074 30.192 180.722 30.8 181.954 31.488C183.202 32.16 184.098 32.968 184.642 33.912C185.202 34.856 185.482 36 185.482 37.344C185.482 39.952 184.53 42 182.626 43.488C180.738 44.976 178.122 45.72 174.778 45.72ZM204.971 45C203.259 45.32 201.579 45.456 199.931 45.408C198.299 45.376 196.835 45.08 195.539 44.52C194.243 43.944 193.259 43.04 192.587 41.808C191.995 40.688 191.683 39.544 191.651 38.376C191.619 37.208 191.603 35.888 191.603 34.416V11.88H197.363V34.08C197.363 35.12 197.371 36.032 197.387 36.816C197.419 37.6 197.587 38.24 197.891 38.736C198.467 39.696 199.387 40.232 200.651 40.344C201.915 40.456 203.355 40.392 204.971 40.152V45ZM186.899 23.616V19.08H204.971V23.616H186.899ZM210.064 15.144V9.84H215.848V15.144H210.064ZM210.064 45V19.08H215.848V45H210.064ZM233.525 45.72C230.933 45.72 228.669 45.136 226.733 43.968C224.797 42.8 223.293 41.192 222.221 39.144C221.165 37.08 220.637 34.712 220.637 32.04C220.637 29.32 221.181 26.936 222.269 24.888C223.357 22.84 224.869 21.24 226.805 20.088C228.741 18.936 230.981 18.36 233.525 18.36C236.133 18.36 238.405 18.944 240.341 20.112C242.278 21.28 243.782 22.896 244.854 24.96C245.925 27.008 246.461 29.368 246.461 32.04C246.461 34.728 245.917 37.104 244.83 39.168C243.757 41.216 242.253 42.824 240.317 43.992C238.381 45.144 236.117 45.72 233.525 45.72ZM233.525 40.296C235.829 40.296 237.541 39.528 238.661 37.992C239.781 36.456 240.341 34.472 240.341 32.04C240.341 29.528 239.773 27.528 238.637 26.04C237.502 24.536 235.798 23.784 233.525 23.784C231.973 23.784 230.693 24.136 229.685 24.84C228.693 25.528 227.957 26.496 227.477 27.744C226.997 28.976 226.757 30.408 226.757 32.04C226.757 34.552 227.325 36.56 228.461 38.064C229.613 39.552 231.301 40.296 233.525 40.296Z" fill="#17262F"></path></svg>