<svg xmlns="http://www.w3.org/2000/svg" width="80" height="80" viewBox="0 0 80 80" fill="none"><g clip-path="url(#clip0_47_10188)"><path d="M79.1445 62.6111L77.3041 61.7989C77.2325 61.5412 77.1545 61.294 77.0712 61.0531L78.0968 59.2857C78.3323 58.8782 78.3363 58.3771 78.1073 57.9659C77.5678 57.0052 76.9244 56.1065 76.1887 55.286C75.8664 54.9234 75.3716 54.7659 74.8989 54.8761L72.9623 55.3185C72.7722 55.1701 72.5769 55.0262 72.3765 54.8864L72.1891 52.8326C72.1461 52.3586 71.8532 51.9438 71.4213 51.7446C70.4333 51.2831 69.3965 50.9351 68.3301 50.7072C67.8549 50.6059 67.3625 50.7726 67.0468 51.1418L65.6905 52.7166H65.0398L63.6836 51.1418C63.3687 50.7713 62.8754 50.6042 62.4003 50.7072C61.334 50.9351 60.297 51.2829 59.3091 51.7446C58.8769 51.9438 58.5842 52.3588 58.5412 52.8326L58.3538 54.8864C58.1534 55.0257 57.9581 55.1696 57.7681 55.3185L55.8314 54.8761C55.3588 54.7666 54.8643 54.9239 54.5416 55.286C53.8057 56.1064 53.1629 57.0057 52.6244 57.9672C52.3953 58.3779 52.3992 58.8787 52.6347 59.2857L53.659 61.0519C53.5757 61.2927 53.498 61.5417 53.4261 61.7989L51.5857 62.6111C51.1022 62.8238 50.7902 63.3023 50.7905 63.8306V66.8475C50.7902 67.3757 51.1022 67.8542 51.5857 68.067L53.4261 68.8791C53.4977 69.1368 53.5757 69.3841 53.659 69.625L52.6334 71.3925C52.3978 71.7999 52.3938 72.3012 52.6229 72.7123C53.1624 73.6731 53.8057 74.5717 54.5414 75.3922C54.8641 75.755 55.3596 75.9125 55.8326 75.8022L57.7666 75.3584C57.9566 75.508 58.1531 75.6526 58.3535 75.7918L58.5409 77.8456C58.5839 78.3196 58.8768 78.7344 59.3087 78.9337C60.2967 79.3951 61.3335 79.7432 62.3999 79.9711C62.8751 80.072 63.3673 79.9053 63.6832 79.5364L65.0395 77.9616H65.6902L67.0465 79.5364C67.2995 79.8308 67.6684 80 68.0565 79.9997C68.1483 79.9999 68.2399 79.9902 68.3299 79.9711C69.3963 79.7432 70.4332 79.3953 71.4211 78.9337C71.8532 78.7344 72.146 78.3194 72.1889 77.8456L72.3764 75.7918C72.5768 75.6526 72.772 75.5085 72.9621 75.3597L74.8988 75.8022C75.3714 75.9125 75.8664 75.755 76.1886 75.3922C76.9241 74.5719 77.5675 73.6731 78.1071 72.7123C78.3362 72.3012 78.3322 71.8 78.0966 71.3925L77.071 69.6251C77.1543 69.3844 77.2325 69.137 77.3039 68.8793L79.1443 68.0671C79.6278 67.8544 79.9398 67.3759 79.9395 66.8476V63.8306C79.94 63.3025 79.6279 62.8238 79.1445 62.6111ZM75.633 66.7032C75.2468 66.873 74.9643 67.2158 74.8716 67.6273C74.7498 68.1762 74.5818 68.714 74.3692 69.2346C74.2102 69.6188 74.2391 70.0551 74.4473 70.4151L75.3961 72.0499C75.1813 72.3831 74.9496 72.7076 74.701 73.0235L72.9153 72.6148C72.4973 72.5172 72.058 72.6288 71.7375 72.9142C71.3223 73.2784 70.8775 73.6071 70.4074 73.8968C70.0508 74.117 69.8184 74.4921 69.78 74.9094L69.6069 76.8122C69.249 76.9528 68.8897 77.0751 68.5318 77.1767L67.311 75.7593C67.0578 75.4653 66.6891 75.2962 66.3011 75.296H64.4296C64.0416 75.2962 63.6729 75.4655 63.4197 75.7593L62.1988 77.1767C61.841 77.0753 61.4817 76.9528 61.1238 76.8122L60.9507 74.9094C60.9122 74.4921 60.68 74.117 60.3233 73.8968C59.8533 73.6074 59.4089 73.2786 58.9944 72.9142C58.6722 72.6297 58.2329 72.5177 57.8139 72.6135L56.0295 73.0222C55.7809 72.7085 55.5492 72.3831 55.3344 72.0499L56.2832 70.4151C56.4913 70.0551 56.5203 69.619 56.3613 69.2346C56.1487 68.714 55.9807 68.1762 55.8589 67.6273C55.7661 67.2158 55.4835 66.873 55.0975 66.7032L53.4562 65.9795V64.6987L55.0975 63.975C55.4837 63.8053 55.7662 63.4624 55.8589 63.0509C55.9808 62.5012 56.1489 61.9625 56.3613 61.4409C56.5203 61.0571 56.4914 60.6213 56.2832 60.2618L55.3356 58.627C55.549 58.2951 55.7807 57.9697 56.0293 57.6547L57.815 58.0634C58.233 58.1595 58.6717 58.048 58.9929 57.764C59.408 57.3998 59.8528 57.0711 60.323 56.7814C60.6795 56.5612 60.9119 56.1862 60.9504 55.7688L61.1235 53.866C61.4813 53.7254 61.8407 53.6031 62.1985 53.5015L63.4193 54.9189C63.6726 55.2129 64.0412 55.382 64.4294 55.3822H66.3009C66.6889 55.382 67.0576 55.2127 67.311 54.9189L68.5318 53.5015C68.8897 53.6029 69.249 53.7254 69.6069 53.866L69.78 55.7688C69.8184 56.1862 70.0508 56.5612 70.4074 56.7814C70.8775 57.0711 71.3223 57.3998 71.7375 57.764C72.0587 58.0482 72.4975 58.1597 72.9153 58.0634L74.701 57.6547C74.9496 57.9697 75.1813 58.2941 75.3961 58.6283L74.4473 60.2631C74.2392 60.6231 74.2102 61.0593 74.3692 61.4436C74.5818 61.9642 74.7498 62.502 74.8716 63.0509C74.9644 63.4624 75.247 63.8053 75.633 63.975L77.2743 64.6987V65.9795L75.633 66.7032Z" fill="currentColor"></path><path d="M65.3655 58.6753C61.6852 58.6753 58.7017 61.6589 58.7017 65.3391C58.7017 69.0194 61.6852 72.003 65.3655 72.003C69.0458 72.003 72.0293 69.0194 72.0293 65.3391C72.025 61.6607 69.0441 58.6796 65.3655 58.6753ZM65.3655 69.3374C63.1573 69.3374 61.3672 67.5474 61.3672 65.3391C61.3672 63.1309 63.1573 61.3408 65.3655 61.3408C67.5737 61.3408 69.3638 63.1309 69.3638 65.3391C69.3613 67.5464 67.5727 69.3351 65.3655 69.3374Z" fill="currentColor"></path><path d="M37.3772 5.36475C26.3363 5.36475 17.3857 14.3153 17.3857 25.3562C17.3977 36.3922 26.3413 45.3358 37.3772 45.3478C48.4182 45.3478 57.3687 36.3972 57.3687 25.3562C57.3687 14.3153 48.4182 5.36475 37.3772 5.36475ZM20.7715 30.2955C18.0418 21.1262 23.2621 11.4801 32.4313 8.75031C34.0365 8.27251 35.7025 8.02995 37.3772 8.03028C39.05 8.03178 40.7137 8.27667 42.316 8.75697C41.9904 8.97155 41.6519 9.17912 41.3509 9.40603C40.8949 9.74938 40.7082 10.345 40.8863 10.8872L41.498 12.7498C41.2468 12.9867 41.0009 13.2326 40.764 13.4838L38.9028 12.8721C38.3612 12.697 37.7681 12.8827 37.4229 13.3354C36.4381 14.6286 35.615 16.0372 34.9721 17.5302C34.7482 18.0554 34.8838 18.6646 35.3091 19.0453L36.7915 20.3729C36.69 20.7047 36.6002 21.0393 36.5208 21.3738L34.5893 21.7799C33.9727 21.9099 33.5312 22.4538 33.531 23.084V27.629C33.5312 28.2592 33.9725 28.8031 34.5893 28.9331L36.5208 29.3392C36.6002 29.6737 36.69 30.0083 36.7902 30.3401L35.309 31.6677C34.8836 32.0484 34.748 32.6576 34.9719 33.1828C35.6148 34.6748 36.437 36.0829 37.4201 37.3763C37.7634 37.8323 38.359 38.0192 38.9013 37.8409L40.7638 37.2292C41.0007 37.4804 41.2466 37.7263 41.4978 37.9632L40.8861 39.8244C40.7085 40.366 40.8946 40.9606 41.3494 41.3043C41.6506 41.5319 41.9901 41.7405 42.3165 41.9557C33.1472 44.6852 23.5011 39.4649 20.7715 30.2955ZM45.4075 40.6947C44.8302 40.4002 44.269 40.0752 43.726 39.7213L44.3026 37.9669C44.4719 37.4509 44.3118 36.8838 43.8978 36.5327C43.2829 36.0126 42.7121 35.4423 42.1915 34.8277C41.8399 34.4152 41.2739 34.256 40.7585 34.4242L38.9987 35.0035C38.5617 34.3614 38.1682 33.691 37.8209 32.9965L39.2188 31.7432C39.6235 31.381 39.7681 30.8096 39.5845 30.2985C39.3113 29.5438 39.1018 28.7675 38.9584 27.9778C38.8619 27.4442 38.4518 27.022 37.921 26.9106L36.1964 26.5474V24.1656L37.921 23.8024C38.4518 23.6908 38.8619 23.2688 38.9584 22.7352C39.1023 21.9447 39.3118 21.1677 39.5845 20.4119C39.7681 19.9011 39.6233 19.3301 39.2188 18.9685L37.8209 17.7165C38.1686 17.0221 38.5621 16.3516 38.9987 15.7095L40.7596 16.2888C41.2756 16.4567 41.8418 16.2969 42.1939 15.8839C42.714 15.269 43.2842 14.6983 43.8988 14.1777C44.3118 13.8261 44.4712 13.2599 44.3023 12.7446L43.7257 10.9902C44.2688 10.637 44.8299 10.3125 45.4068 10.0179C47.2291 10.98 48.8659 12.2578 50.2414 13.7922C43.8547 15.5091 40.0689 22.0785 41.7859 28.4653C42.8947 32.59 46.1167 35.812 50.2414 36.9208C48.8664 38.4548 47.2296 39.7326 45.4075 40.6947ZM44.136 24.0306C44.7243 19.9426 47.9359 16.7309 52.024 16.1427C55.5963 21.7656 55.5963 28.9469 52.024 34.5698C46.9354 33.8378 43.4038 29.1192 44.136 24.0306Z" fill="currentColor"></path><path d="M72.4886 22.7791L70.8903 22.0737C70.8357 21.8825 70.7784 21.695 70.7159 21.5115L71.6075 19.9743C71.8431 19.5673 71.8471 19.0665 71.618 18.6558C71.1284 17.7829 70.5445 16.9662 69.8766 16.2207C69.5535 15.8572 69.0577 15.6994 68.5841 15.8094L66.9052 16.1934C66.7632 16.0841 66.6188 15.9773 66.4717 15.8745L66.3078 14.0875C66.2634 13.6147 65.9717 13.201 65.5411 13.0007C64.6433 12.5804 63.7005 12.2637 62.7311 12.0571C62.2716 11.9604 61.7952 12.1133 61.4778 12.4593L60.0068 14.0578C53.7982 1.54395 38.6205 -3.56755 26.1067 2.64098C13.5928 8.84951 8.48117 24.0271 14.6897 36.5411C15.0607 37.2889 15.4685 38.0179 15.9117 38.7255L12.3464 43.1819C12.1198 43.4666 12.0187 43.8311 12.0665 44.1918C12.1141 44.5532 12.3085 44.8789 12.6041 45.0924L15.4985 47.1974L0.357957 65.831C-0.106346 66.4039 -0.0182164 67.2447 0.554707 67.709C0.556373 67.7103 0.558039 67.7117 0.559538 67.713L7.22337 73.0441C7.79563 73.5007 8.62877 73.4112 9.09108 72.8436L24.5692 53.7944L27.2644 55.7546C27.8403 56.1736 28.6439 56.0658 29.0891 55.5098L33.2476 50.3112C44.2156 52.2122 55.1213 46.6429 60.0119 36.6432L61.4698 38.2475C61.7225 38.5254 62.0807 38.6837 62.4564 38.6835C62.5482 38.6837 62.6398 38.674 62.7298 38.6548C63.6997 38.4483 64.643 38.1316 65.5411 37.7112C65.9716 37.511 66.2634 37.0972 66.3078 36.6245L66.4717 34.8375C66.6188 34.7333 66.7632 34.6266 66.9038 34.5186L68.5841 34.9026C69.0577 35.0134 69.554 34.8555 69.8766 34.4913C70.5438 33.7459 71.1272 32.9298 71.6167 32.0575C71.8467 31.6468 71.8434 31.1452 71.6075 30.7377L70.7159 29.2005C70.7784 29.0169 70.8357 28.8295 70.8903 28.6383L72.4886 27.9329C72.9721 27.7202 73.2841 27.2417 73.2838 26.7134V23.9984C73.2841 23.4703 72.9723 22.9918 72.4886 22.7791ZM7.8561 70.1365L3.27338 66.47L17.6579 48.7679L22.4097 52.2247L7.8561 70.1365ZM27.802 52.8508L25.1143 50.896L24.9627 50.7857L15.2994 43.7572L17.5055 41.0013C20.7786 45.1582 25.2694 48.1876 30.3495 49.6657L27.802 52.8508ZM37.3774 48.013C24.8642 48.013 14.7204 37.8692 14.7204 25.356C14.7343 12.8486 24.87 2.71295 37.3774 2.69896C49.8906 2.69896 60.0344 12.8428 60.0344 25.356C60.0344 37.8692 49.8906 48.013 37.3774 48.013ZM70.6184 25.8455L69.2218 26.461C68.8357 26.6308 68.5531 26.9736 68.4605 27.3851C68.3521 27.8731 68.2031 28.3511 68.0154 28.8142C67.8564 29.1975 67.8854 29.633 68.0935 29.992L68.9056 31.3924C68.7429 31.641 68.569 31.8844 68.3837 32.1226L66.8608 31.7738C66.4427 31.6756 66.0029 31.7868 65.6817 32.0718C65.3128 32.3958 64.9175 32.6884 64.4999 32.9464C64.145 33.1668 63.9138 33.5405 63.8751 33.9565L63.7255 35.5873C63.4535 35.6928 63.1806 35.7852 62.9069 35.8645L61.1668 33.949C63.2139 28.3949 63.2109 22.2925 61.1584 16.7405L62.903 14.8461C63.1764 14.9256 63.4523 15.0192 63.7257 15.1247L63.8753 16.7555C63.9141 17.172 64.1458 17.5463 64.5014 17.7667C64.9188 18.0239 65.3138 18.316 65.6819 18.64C66.0034 18.9244 66.4429 19.0355 66.861 18.9381L68.3839 18.5892C68.5686 18.8274 68.7427 19.0708 68.9058 19.3194L68.0937 20.7198C67.8856 21.0788 67.8568 21.5143 68.0155 21.8976C68.2033 22.3608 68.3522 22.8389 68.4607 23.3267C68.5535 23.7382 68.836 24.081 69.222 24.2508L70.6186 24.8664V25.8455H70.6184Z" fill="currentColor"></path></g><defs><clipPath id="clip0_47_10188"><rect width="80" height="80" fill="white"></rect></clipPath></defs></svg>