<svg xmlns="http://www.w3.org/2000/svg" width="80" height="80" viewBox="0 0 80 80" fill="none"><path d="M3.62911 34.9597H10.34C10.7369 36.391 11.3087 37.768 12.0439 39.0584L7.29405 43.8064C7.06724 44.0332 6.93966 44.3408 6.93966 44.6622C6.93966 44.9835 7.06724 45.2911 7.29405 45.5179L12.4257 50.651C12.8983 51.1226 13.6638 51.1226 14.1363 50.651L18.8866 45.9002C20.1771 46.635 21.5527 47.2072 22.9839 47.6037V54.3145C22.9839 54.9827 23.5255 55.5242 24.1936 55.5242H31.4517C32.1198 55.5242 32.6614 54.9827 32.6614 54.3145V47.6037C34.0927 47.2072 35.4682 46.635 36.7587 45.9002L41.509 50.651C41.9891 51.1046 42.74 51.1046 43.2196 50.651L48.3522 45.5179C48.579 45.2911 48.7066 44.9835 48.7066 44.6622C48.7066 44.3408 48.579 44.0332 48.3522 43.8064L43.6014 39.0584C44.3366 37.768 44.9084 36.391 45.3053 34.9597H52.0162C52.6844 34.9597 53.2259 34.4182 53.2259 33.75V26.492C53.2259 25.8243 52.6844 25.2823 52.0162 25.2823H45.3053C44.9084 23.8515 44.3366 22.4745 43.6014 21.184L48.3513 16.436C48.5781 16.2092 48.7057 15.9016 48.7057 15.5803C48.7057 15.259 48.5781 14.9514 48.3513 14.7245L43.2196 9.59145C42.7471 9.11939 41.9816 9.11939 41.509 9.59145L36.7587 14.3423C35.4682 13.608 34.0922 13.0357 32.6614 12.6388V5.92745C32.6614 5.25977 32.1198 4.71777 31.4517 4.71777H24.1936C23.5255 4.71777 22.9839 5.25977 22.9839 5.92745V12.6388C21.5531 13.0357 20.1771 13.608 18.8866 14.3423L14.1363 9.59145C13.6562 9.13782 12.9054 9.13782 12.4257 9.59145L7.29311 14.7245C7.0663 14.9514 6.93871 15.259 6.93871 15.5803C6.93871 15.9016 7.0663 16.2092 7.29311 16.436L12.0439 21.184C11.3087 22.4745 10.7369 23.8515 10.34 25.2823H3.62911C2.96095 25.2823 2.41943 25.8243 2.41943 26.492V33.75C2.41943 34.4182 2.96095 34.9597 3.62911 34.9597ZM4.83879 27.7016H11.2865C11.8549 27.7016 12.3468 27.3061 12.4683 26.7509C12.8652 24.9392 13.583 23.2126 14.5876 21.6533C14.8942 21.1751 14.8262 20.5471 14.4241 20.1449L9.85895 15.5798L13.281 12.1573L17.8452 16.7224C18.2473 17.1255 18.8758 17.1935 19.3549 16.8864C20.9147 15.8822 22.6409 15.1645 24.4526 14.7671C25.0073 14.6452 25.4033 14.1533 25.4033 13.5848V7.13713H30.242V13.5848C30.242 14.1533 30.638 14.6452 31.1927 14.7671C33.0044 15.1645 34.7306 15.8822 36.2904 16.8864C36.7695 17.1935 37.398 17.1255 37.8001 16.7224L42.3643 12.1573L45.7854 15.5798L41.2213 20.1435C40.8182 20.5461 40.7506 21.1746 41.0578 21.6533C42.0624 23.2136 42.7792 24.9397 43.1756 26.7519C43.2976 27.3071 43.7895 27.7031 44.3574 27.7031H50.8065V32.5418H44.3574C43.7895 32.5418 43.2976 32.9373 43.1756 33.4925C42.7792 35.3042 42.0619 37.0303 41.0578 38.5887C40.7511 39.0674 40.8191 39.6954 41.2213 40.0975L45.7864 44.6617L42.3643 48.0852L37.8001 43.5196C37.398 43.117 36.7695 43.049 36.2904 43.3561C34.7315 44.3607 33.0058 45.0785 31.1942 45.4754C30.6385 45.5964 30.242 46.0887 30.242 46.6572V53.1049H25.4033V46.6572C25.4033 46.0887 25.0068 45.5964 24.4512 45.4754C22.6395 45.0785 20.9138 44.3607 19.3549 43.3561C18.8758 43.049 18.2473 43.117 17.8452 43.5196L13.281 48.0852L9.85989 44.6626L14.4241 40.0985C14.8271 39.6964 14.8947 39.0679 14.5876 38.5887C13.583 37.0289 12.8652 35.3023 12.4683 33.4901C12.3463 32.9349 11.8549 32.5404 11.2865 32.5404H4.83879V27.7016Z" fill="currentColor"></path><path d="M27.8224 39.7982C33.1672 39.7982 37.4999 35.466 37.4999 30.1208C37.4999 24.776 33.1672 20.4434 27.8224 20.4434C22.4776 20.4434 18.145 24.776 18.145 30.1208C18.1507 35.4627 22.4805 39.7925 27.8224 39.7982ZM27.8224 22.8627C31.8304 22.8627 35.0805 26.1128 35.0805 30.1208C35.0805 34.1293 31.8304 37.3788 27.8224 37.3788C23.8144 37.3788 20.5644 34.1293 20.5644 30.1208C20.5686 26.1137 23.8154 22.867 27.8224 22.8627Z" fill="currentColor"></path><path d="M27.8226 43.4274C35.1714 43.4274 41.129 37.4702 41.129 30.1209C41.129 22.7721 35.1714 16.8145 27.8226 16.8145C20.4738 16.8145 14.5161 22.7721 14.5161 30.1209C14.5251 37.4664 20.4771 43.4189 27.8226 43.4274ZM27.8226 19.2338C33.8355 19.2338 38.7097 24.108 38.7097 30.1209C38.7097 36.1339 33.8355 41.008 27.8226 41.008C21.8096 41.008 16.9355 36.1339 16.9355 30.1209C16.9421 24.1113 21.8125 19.2404 27.8226 19.2338Z" fill="currentColor"></path><path d="M71.3711 60.3626V50.6852C71.3711 50.0175 70.8295 49.4755 70.1614 49.4755H67.742V39.7981C67.742 39.1304 67.2005 38.5884 66.5323 38.5884H55.6452C54.9771 38.5884 54.4356 39.1304 54.4356 39.7981V49.4755H48.3872C47.719 49.4755 47.1775 50.0175 47.1775 50.6852V60.3626H8.46782C5.12892 60.3668 2.42369 63.0721 2.41943 66.411V68.8303C2.42369 72.1697 5.12892 74.8749 8.46782 74.8787H71.3711C74.71 74.8749 77.4152 72.1697 77.4194 68.8303V66.411C77.4152 63.0721 74.71 60.3668 71.3711 60.3626ZM68.9517 60.3626H60.484V51.8948H68.9517V60.3626ZM56.8549 41.0077H65.3227V49.4755H56.8549V41.0077ZM49.5969 51.8948H58.0646V60.3626H49.5969V51.8948ZM75.0001 68.8303C75.0001 70.8348 73.3751 72.4594 71.3711 72.4594H8.46782C6.46382 72.4594 4.83879 70.8348 4.83879 68.8303V66.411C4.83879 64.407 6.46382 62.7819 8.46782 62.7819H71.3711C73.3751 62.7819 75.0001 64.407 75.0001 66.411V68.8303Z" fill="currentColor"></path><path d="M39.9196 63.9917C37.9156 63.9917 36.2905 65.6167 36.2905 67.6207C36.2905 69.6252 37.9156 71.2498 39.9196 71.2498C41.9236 71.2498 43.5486 69.6252 43.5486 67.6207C43.5486 65.6167 41.9236 63.9917 39.9196 63.9917ZM39.9196 68.8304C39.2514 68.8304 38.7099 68.2889 38.7099 67.6207C38.7099 66.953 39.2514 66.4111 39.9196 66.4111C40.5877 66.4111 41.1292 66.953 41.1292 67.6207C41.1292 68.2889 40.5877 68.8304 39.9196 68.8304Z" fill="currentColor"></path><path d="M27.8224 63.9917C25.8184 63.9917 24.1934 65.6167 24.1934 67.6207C24.1934 69.6252 25.8184 71.2498 27.8224 71.2498C29.8264 71.2498 31.4514 69.6252 31.4514 67.6207C31.4514 65.6167 29.8264 63.9917 27.8224 63.9917ZM27.8224 68.8304C27.1542 68.8304 26.6127 68.2889 26.6127 67.6207C26.6127 66.953 27.1542 66.4111 27.8224 66.4111C28.4906 66.4111 29.0321 66.953 29.0321 67.6207C29.0321 68.2889 28.4906 68.8304 27.8224 68.8304Z" fill="currentColor"></path><path d="M52.0162 63.9917C50.0122 63.9917 48.3872 65.6167 48.3872 67.6207C48.3872 69.6252 50.0122 71.2498 52.0162 71.2498C54.0202 71.2498 55.6453 69.6252 55.6453 67.6207C55.6453 65.6167 54.0202 63.9917 52.0162 63.9917ZM52.0162 68.8304C51.3481 68.8304 50.8066 68.2889 50.8066 67.6207C50.8066 66.953 51.3481 66.4111 52.0162 66.4111C52.6844 66.4111 53.2259 66.953 53.2259 67.6207C53.2259 68.2889 52.6844 68.8304 52.0162 68.8304Z" fill="currentColor"></path><path d="M15.7257 63.9917C13.7217 63.9917 12.0967 65.6167 12.0967 67.6207C12.0967 69.6252 13.7217 71.2498 15.7257 71.2498C17.7297 71.2498 19.3547 69.6252 19.3547 67.6207C19.3547 65.6167 17.7297 63.9917 15.7257 63.9917ZM15.7257 68.8304C15.0576 68.8304 14.516 68.2889 14.516 67.6207C14.516 66.953 15.0576 66.4111 15.7257 66.4111C16.3939 66.4111 16.9354 66.953 16.9354 67.6207C16.9354 68.2889 16.3939 68.8304 15.7257 68.8304Z" fill="currentColor"></path><path d="M64.1129 63.9917C62.1089 63.9917 60.4839 65.6167 60.4839 67.6207C60.4839 69.6252 62.1089 71.2498 64.1129 71.2498C66.1169 71.2498 67.742 69.6252 67.742 67.6207C67.742 65.6167 66.1169 63.9917 64.1129 63.9917ZM64.1129 68.8304C63.4448 68.8304 62.9032 68.2889 62.9032 67.6207C62.9032 66.953 63.4448 66.4111 64.1129 66.4111C64.7811 66.4111 65.3226 66.953 65.3226 67.6207C65.3226 68.2889 64.7811 68.8304 64.1129 68.8304Z" fill="currentColor"></path></svg>