<svg xmlns="http://www.w3.org/2000/svg" width="80" height="80" viewBox="0 0 80 80" fill="none"><path d="M76.25 22.5H70.2525C69.9403 21.5503 69.5571 20.6255 69.1059 19.7334L73.3464 15.4916C73.5808 15.2571 73.7125 14.9392 73.7125 14.6077C73.7125 14.2762 73.5808 13.9583 73.3464 13.7239L66.2761 6.65359C66.0417 6.41921 65.7238 6.28753 65.3923 6.28753C65.0608 6.28753 64.7429 6.41921 64.5084 6.65359L60.2666 10.8941C59.3745 10.4429 58.4497 10.0597 57.5 9.7475V3.75C57.5 3.41848 57.3683 3.10054 57.1339 2.86612C56.8995 2.6317 56.5815 2.5 56.25 2.5H46.25C45.9185 2.5 45.6005 2.6317 45.3661 2.86612C45.1317 3.10054 45 3.41848 45 3.75V9.7475C44.0503 10.0597 43.1255 10.4429 42.2334 10.8941L37.9916 6.65359C37.7571 6.41921 37.4392 6.28753 37.1077 6.28753C36.7762 6.28753 36.4583 6.41921 36.2239 6.65359L29.1536 13.7239C28.9192 13.9583 28.7875 14.2762 28.7875 14.6077C28.7875 14.9392 28.9192 15.2571 29.1536 15.4916L33.3941 19.7334C32.9429 20.6255 32.5597 21.5503 32.2475 22.5H26.25C25.9185 22.5 25.6005 22.6317 25.3661 22.8661C25.1317 23.1005 25 23.4185 25 23.75V32.5H27.5V25H33.175C33.4485 25 33.7144 24.9103 33.9321 24.7447C34.1497 24.579 34.307 24.3466 34.3798 24.083C34.7614 22.7007 35.3124 21.371 36.0205 20.1241C36.1557 19.8861 36.2091 19.6103 36.1724 19.339C36.1357 19.0677 36.0109 18.816 35.8173 18.6225L31.8052 14.608L37.108 9.30516L41.1225 13.3184C41.316 13.512 41.5677 13.6368 41.839 13.6735C42.1103 13.7101 42.3861 13.6568 42.6241 13.5216C43.871 12.8135 45.2007 12.2624 46.583 11.8809C46.8468 11.808 47.0793 11.6506 47.245 11.4327C47.4107 11.2149 47.5002 10.9487 47.5 10.675V5H55V10.675C55 10.9485 55.0897 11.2144 55.2553 11.4321C55.421 11.6497 55.6534 11.807 55.917 11.8798C57.2993 12.2613 58.629 12.8124 59.8759 13.5205C60.1139 13.6557 60.3897 13.7091 60.661 13.6724C60.9323 13.6357 61.184 13.5109 61.3775 13.3173L65.392 9.30406L70.6948 14.6069L66.6816 18.6214C66.488 18.8149 66.3632 19.0666 66.3265 19.3379C66.2899 19.6092 66.3432 19.885 66.4784 20.123C67.1865 21.3699 67.7376 22.6996 68.1191 24.0819C68.1918 24.3459 68.3491 24.5787 68.567 24.7446C68.7849 24.9104 69.0512 25.0002 69.325 25H75V32.5H69.325C69.0515 32.5 68.7856 32.5897 68.5679 32.7553C68.3503 32.921 68.193 33.1534 68.1202 33.417C67.7386 34.7993 67.1876 36.129 66.4795 37.3759C66.3443 37.6139 66.2909 37.8897 66.3276 38.161C66.3643 38.4323 66.4891 38.684 66.6827 38.8775L70.6959 42.892L65.3931 48.1948L61.3786 44.1816C61.1851 43.988 60.9334 43.8632 60.6621 43.8265C60.3908 43.7899 60.115 43.8432 59.877 43.9784C58.6301 44.6865 57.3004 45.2376 55.9181 45.6191C55.6541 45.6918 55.4213 45.8491 55.2554 46.067C55.0896 46.2849 54.9998 46.5512 55 46.825V48.75H57.5V47.7525C58.4497 47.4403 59.3745 47.0571 60.2666 46.6059L64.5084 50.8464C64.7429 51.0808 65.0608 51.2125 65.3923 51.2125C65.7238 51.2125 66.0417 51.0808 66.2761 50.8464L73.3464 43.7761C73.5808 43.5417 73.7125 43.2238 73.7125 42.8923C73.7125 42.5608 73.5808 42.2429 73.3464 42.0084L69.1059 37.7666C69.5571 36.8745 69.9403 35.9497 70.2525 35H76.25C76.5815 35 76.8995 34.8683 77.1339 34.6339C77.3683 34.3995 77.5 34.0815 77.5 33.75V23.75C77.5 23.4185 77.3683 23.1005 77.1339 22.8661C76.8995 22.6317 76.5815 22.5 76.25 22.5Z" fill="currentColor"></path><path d="M57.5 28.75C57.5 27.5139 57.1334 26.3055 56.4467 25.2777C55.7599 24.2499 54.7838 23.4488 53.6418 22.9758C52.4997 22.5027 51.2431 22.3789 50.0307 22.6201C48.8183 22.8613 47.7047 23.4565 46.8306 24.3306C45.9565 25.2047 45.3613 26.3183 45.1201 27.5307C44.8789 28.7431 45.0027 29.9997 45.4758 31.1418C45.9488 32.2838 46.7499 33.2599 47.7777 33.9467C48.8055 34.6334 50.0139 35 51.25 35C52.907 34.9981 54.4957 34.3391 55.6674 33.1674C56.8391 31.9957 57.4981 30.407 57.5 28.75ZM47.5 28.75C47.5 28.0083 47.7199 27.2833 48.132 26.6666C48.544 26.0499 49.1297 25.5693 49.8149 25.2855C50.5002 25.0016 51.2542 24.9274 51.9816 25.0721C52.709 25.2168 53.3772 25.5739 53.9017 26.0984C54.4261 26.6228 54.7833 27.291 54.9279 28.0184C55.0726 28.7458 54.9984 29.4998 54.7145 30.1851C54.4307 30.8703 53.9501 31.456 53.3334 31.868C52.7167 32.2801 51.9917 32.5 51.25 32.5C50.2558 32.4989 49.3026 32.1034 48.5996 31.4004C47.8966 30.6974 47.5011 29.7442 47.5 28.75Z" fill="currentColor"></path><path d="M65 28.7501C64.9983 26.769 64.5686 24.8116 63.7402 23.0121C62.9117 21.2125 61.7042 19.6132 60.2003 18.3236C58.6964 17.034 56.9316 16.0847 55.0267 15.5406C53.1218 14.9964 51.1218 14.8703 49.1636 15.1709C47.2055 15.4715 45.3354 16.1917 43.6814 17.2822C42.0274 18.3727 40.6287 19.8077 39.5808 21.489C38.533 23.1703 37.8608 25.0582 37.6103 27.0234C37.3599 28.9886 37.537 30.9847 38.1297 32.8751L40.5156 32.1251C39.8038 29.8628 39.8251 27.4334 40.5763 25.1838C41.3276 22.9343 42.7704 20.9797 44.6988 19.599C46.6272 18.2184 48.9425 17.4825 51.3142 17.4962C53.6858 17.51 55.9924 18.2727 57.9047 19.6756C59.8169 21.0785 61.237 23.0497 61.9621 25.3078C62.6873 27.5659 62.6803 29.9954 61.9424 32.2493C61.2044 34.5032 59.7731 36.4663 57.8528 37.8583C55.9326 39.2502 53.6217 39.9999 51.25 40.0001V42.5001C54.8955 42.4959 58.3904 41.046 60.9681 38.4682C63.5459 35.8905 64.9959 32.3955 65 28.7501Z" fill="currentColor"></path><path d="M7.17091 75.3482L24.8942 77.1206C27.4111 77.3723 29.97 77.4999 32.5 77.4999C35.03 77.4999 37.5889 77.3723 40.1058 77.1206L57.829 75.3482C59.1374 75.2178 60.3474 74.5952 61.2142 73.6065C62.081 72.6178 62.5399 71.3368 62.4981 70.0226C62.4563 68.7084 61.9169 67.4592 60.989 66.5276C60.0611 65.596 58.814 65.0516 57.5 65.0046V62.4999C57.4989 56.954 55.6546 51.5657 52.257 47.1823C48.8594 42.7989 44.1013 39.6691 38.7309 38.2849C38.6138 36.7125 37.9065 35.2426 36.7509 34.1698C35.5953 33.0971 34.0768 32.501 32.5 32.501C30.9233 32.501 29.4048 33.0971 28.2492 34.1698C27.0936 35.2426 26.3863 36.7125 26.2692 38.2849C20.8984 39.6685 16.1399 42.7982 12.7423 47.1817C9.34456 51.5652 7.50045 56.9538 7.49997 62.4999V65.0046C6.18574 65.0514 4.93834 65.5956 4.0102 66.5272C3.08206 67.4589 2.54249 68.7083 2.50067 70.0227C2.45886 71.3371 2.91792 72.6183 3.78497 73.607C4.65203 74.5957 5.86231 75.2182 7.17091 75.3484V75.3482ZM28.75 38.7499C28.75 37.7554 29.1451 36.8015 29.8483 36.0983C30.5516 35.395 31.5054 34.9999 32.5 34.9999C33.4945 34.9999 34.4484 35.395 35.1516 36.0983C35.8549 36.8015 36.25 37.7554 36.25 38.7499V57.4999H28.75V38.7499ZM9.99997 62.4999C9.9978 59.0602 10.7856 55.6659 12.3027 52.5788C13.8198 49.4916 16.0255 46.7942 18.75 44.6943V59.9999H21.25V43.0165C22.824 42.1049 24.503 41.3881 26.25 40.8816V58.7499C26.25 59.0814 26.3817 59.3994 26.6161 59.6338C26.8505 59.8682 27.1684 59.9999 27.5 59.9999H37.5C37.8315 59.9999 38.1494 59.8682 38.3839 59.6338C38.6183 59.3994 38.75 59.0814 38.75 58.7499V40.8799C40.4972 41.3836 42.1764 42.099 43.75 43.0102V59.9999H46.25V44.6913C47.0094 45.278 47.7309 45.9122 48.41 46.5902C50.5061 48.6745 52.1678 51.1539 53.299 53.8848C54.4302 56.6158 55.0083 59.544 55 62.4999V64.9999H9.99997V62.4999ZM7.68747 67.4999H57.3125C58.0006 67.5021 58.6616 67.7682 59.1594 68.2433C59.6572 68.7184 59.9538 69.3663 59.988 70.0536C60.0223 70.7408 59.7917 71.415 59.3436 71.9373C58.8956 72.4595 58.2643 72.7901 57.5798 72.8607L39.857 74.6329C37.4218 74.8765 34.9472 74.9999 32.5 74.9999C30.0528 74.9999 27.5781 74.8765 25.1429 74.6329L7.41966 72.8607C6.73515 72.79 6.10382 72.4595 5.65579 71.9372C5.20775 71.4149 4.97713 70.7406 5.01147 70.0533C5.04581 69.366 5.34247 68.7181 5.84034 68.243C6.3382 67.768 6.99933 67.502 7.68747 67.4999Z" fill="currentColor"></path><path d="M19.0373 33.0895L21.5153 32.7587C21.3386 31.4298 21.25 30.0906 21.25 28.75C21.2485 24.4163 22.1866 20.1339 23.9996 16.1977C25.8126 12.2615 28.4575 8.76521 31.7519 5.94967L30.1269 4.05029C26.558 7.10036 23.6928 10.8879 21.7287 15.152C19.7646 19.4161 18.7484 24.0553 18.75 28.75C18.75 30.2012 18.846 31.6509 19.0373 33.0895Z" fill="currentColor"></path><path d="M20.0414 37.8492L22.4417 37.1504C22.248 36.4846 22.0752 35.8029 21.9283 35.124L19.4844 35.6529C19.6441 36.3887 19.8313 37.1276 20.0414 37.8492Z" fill="currentColor"></path><path d="M59.6782 57.5501L60.3792 59.95C65.4802 58.4513 70.137 55.7273 73.9435 52.0156L72.1978 50.2261C68.6846 53.6522 64.3864 56.1667 59.6782 57.5501Z" fill="currentColor"></path><path d="M77.25 48.2537L75.25 46.752C74.8337 47.3059 74.3925 47.8529 73.9375 48.3777L75.8281 50.0141C76.3208 49.4459 76.7987 48.8535 77.25 48.2537Z" fill="currentColor"></path></svg>