<svg xmlns="http://www.w3.org/2000/svg" width="85" height="85" viewBox="0 0 85 85" fill="none"><path d="M50.588 30.9022C50.1772 30.9022 49.7741 30.7049 49.5268 30.339L45.3952 24.2273C45.1503 23.8649 45.1074 23.4026 45.2816 23.0013L49.5231 13.2308C49.8045 12.5823 50.5581 12.2853 51.2062 12.5666C51.8545 12.848 52.1518 13.6015 51.8704 14.2496L47.9086 23.376L51.647 28.906C52.0426 29.4914 51.8889 30.2867 51.3035 30.6825C51.0838 30.8309 50.8345 30.9022 50.588 30.9022Z" fill="#574D56"></path><path d="M65.6405 22.7587C65.1194 22.7587 64.63 22.4381 64.4395 21.9205L62.0389 15.3939H52.0685C51.3618 15.3939 50.7891 14.8212 50.7891 14.1144C50.7891 13.4077 51.3618 12.835 52.0685 12.835H62.9314C63.4677 12.835 63.9471 13.1695 64.1322 13.6728L66.8411 21.0371C67.085 21.7004 66.7452 22.4356 66.0819 22.6795C65.9363 22.7335 65.7871 22.7587 65.6405 22.7587Z" fill="#574D56"></path><path d="M33.9496 3.21538C32.7766 1.99019 30.8328 1.94835 29.6079 3.12125L16.4844 17.1712L19.6498 22.6429L33.8553 7.55686C35.0803 6.38412 35.1224 4.44041 33.9496 3.21538Z" fill="#6C5E69"></path><path d="M18.6793 14.8215L16.4844 17.1713L19.6498 22.6432L21.8515 20.305L18.6793 14.8215Z" fill="#574D56"></path><path d="M29.6076 3.12137L26.1055 6.87067C26.779 8.90054 28.2985 10.5474 30.2454 11.3904L33.8551 7.55714C35.0799 6.38408 35.1221 4.44053 33.9492 3.2155C32.7763 1.99047 30.8323 1.94864 29.6076 3.12137Z" fill="#574D56"></path><path d="M50.5853 16.2044C50.1857 16.2044 49.7798 16.1258 49.3889 15.9603L32.5612 7.34777C30.9995 6.6862 30.27 4.88393 30.9316 3.32256C31.5933 1.76068 33.3959 1.03171 34.9568 1.69295L51.7845 10.3055C53.3462 10.9671 54.0757 12.7693 53.4141 14.3307C52.9182 15.5013 51.7812 16.2044 50.5853 16.2044Z" fill="#6C5E69"></path><path d="M51.7844 10.3056L46.9756 7.84424C45.3412 9.12223 44.2498 11.0625 44.1094 13.2582L49.3888 15.9604C49.7798 16.1259 50.1857 16.2045 50.5853 16.2045C51.7811 16.2045 52.9182 15.5012 53.4141 14.3308C54.0756 12.7693 53.3462 10.9672 51.7844 10.3056Z" fill="#574D56"></path><path d="M34.9568 1.69295C33.3958 1.03171 31.5933 1.76068 30.9316 3.32256C30.27 4.8841 30.9995 6.6862 32.5612 7.34777L38.095 10.18C39.658 8.8283 40.6573 6.84275 40.6883 4.62628L34.9568 1.69295Z" fill="#574D56"></path><path d="M77.275 71.7104H1.31999C0.591016 71.7104 0 71.1194 0 70.3904V56.6912H77.275C81.4224 56.6912 84.7845 60.0533 84.7845 64.2007C84.7845 68.3483 81.4224 71.7104 77.275 71.7104Z" fill="#6C5E69"></path><path d="M77.2752 56.6912H72.5039C76.6513 56.6912 80.0135 60.0533 80.0135 64.2007C80.0135 68.3481 76.6513 71.7104 72.5039 71.7104H77.2752C81.4226 71.7104 84.7849 68.3483 84.7849 64.2007C84.7847 60.0533 81.4226 56.6912 77.2752 56.6912Z" fill="#574D56"></path><path d="M21.3589 56.691H0V17.8637C0 16.952 0.739102 16.2129 1.65086 16.2129H14.9776C15.5668 16.2129 16.1115 16.527 16.4065 17.037L21.1373 25.2144C21.2827 25.4656 21.3592 25.7508 21.3592 26.041V56.691H21.3589Z" fill="#6CE79A"></path><path d="M14.9767 16.2129H12.0879L16.5257 23.884C17.1753 25.0069 17.5173 26.2812 17.5173 27.5785V56.6912H21.3584V26.0412C21.3584 25.751 21.2818 25.4658 21.1364 25.2146L16.4056 17.0372C16.1106 16.527 15.5661 16.2129 14.9767 16.2129Z" fill="#00D8A2"></path><path d="M72.3641 84.8923H5.28711V71.7104H73.6869V83.5694C73.687 84.3001 73.0947 84.8923 72.3641 84.8923Z" fill="#6C5E69"></path><path d="M5.28711 71.7104V75.1848H67.787C68.9471 75.1848 69.8878 76.1253 69.8878 77.2856V84.8923H72.3642C73.0949 84.8923 73.687 84.2999 73.687 83.5694V71.7104H5.28711Z" fill="#574D56"></path><path d="M51.5766 18.1529C54.0136 18.1529 55.9891 16.1774 55.9891 13.7404C55.9891 11.3034 54.0136 9.32788 51.5766 9.32788C49.1396 9.32788 47.1641 11.3034 47.1641 13.7404C47.1641 16.1774 49.1396 18.1529 51.5766 18.1529Z" fill="#FFAB56"></path><path d="M33.2075 8.93272C35.6444 8.93272 37.62 6.95717 37.62 4.5202C37.62 2.08322 35.6444 0.107666 33.2075 0.107666C30.7705 0.107666 28.7949 2.08322 28.7949 4.5202C28.7949 6.95717 30.7705 8.93272 33.2075 8.93272Z" fill="#FFAB56"></path><path d="M9.14812 40.7783H0V26.7302H9.14812C9.99381 26.7302 10.6795 27.4159 10.6795 28.2616V39.247C10.6795 40.0927 9.99381 40.7783 9.14812 40.7783Z" fill="#A2DBFF"></path><path d="M9.14718 26.7302H5.38477C6.23045 26.7302 6.91609 27.4159 6.91609 28.2616V39.247C6.91609 40.0927 6.23045 40.7783 5.38477 40.7783H9.14718C9.99286 40.7783 10.6785 40.0927 10.6785 39.247V28.2616C10.6785 27.4159 9.99303 26.7302 9.14718 26.7302Z" fill="#64CAFF"></path><path d="M14.6607 47.692H6.69745C5.99072 47.692 5.41797 47.1193 5.41797 46.4125C5.41797 45.7058 5.99072 45.1331 6.69745 45.1331H14.6607C15.3675 45.1331 15.9402 45.7058 15.9402 46.4125C15.94 47.1193 15.3673 47.692 14.6607 47.692Z" fill="#6C5E69"></path><path d="M14.6607 52.1007H6.69745C5.99072 52.1007 5.41797 51.528 5.41797 50.8212C5.41797 50.1145 5.99072 49.5417 6.69745 49.5417H14.6607C15.3675 49.5417 15.9402 50.1145 15.9402 50.8212C15.9402 51.528 15.3673 52.1007 14.6607 52.1007Z" fill="#6C5E69"></path><path d="M76.7836 65.4801H72.1154C71.4087 65.4801 70.8359 64.9074 70.8359 64.2006C70.8359 63.4939 71.4087 62.9211 72.1154 62.9211H76.7836C77.4903 62.9211 78.0631 63.4939 78.0631 64.2006C78.0631 64.9074 77.4903 65.4801 76.7836 65.4801Z" fill="#574D56"></path><path d="M63.3754 65.4801H58.7072C58.0005 65.4801 57.4277 64.9074 57.4277 64.2006C57.4277 63.4939 58.0005 62.9211 58.7072 62.9211H63.3754C64.0821 62.9211 64.6549 63.4939 64.6549 64.2006C64.6549 64.9074 64.0821 65.4801 63.3754 65.4801Z" fill="#574D56"></path><path d="M49.9653 65.4801H45.2971C44.5903 65.4801 44.0176 64.9074 44.0176 64.2006C44.0176 63.4939 44.5903 62.9211 45.2971 62.9211H49.9653C50.672 62.9211 51.2447 63.4939 51.2447 64.2006C51.2447 64.9074 50.672 65.4801 49.9653 65.4801Z" fill="#574D56"></path><path d="M36.5571 65.4801H31.8889C31.1821 65.4801 30.6094 64.9074 30.6094 64.2006C30.6094 63.4939 31.1821 62.9211 31.8889 62.9211H36.5571C37.2638 62.9211 37.8365 63.4939 37.8365 64.2006C37.8364 64.9074 37.2636 65.4801 36.5571 65.4801Z" fill="#574D56"></path><path d="M23.1469 65.4801H18.4787C17.772 65.4801 17.1992 64.9074 17.1992 64.2006C17.1992 63.4939 17.772 62.9211 18.4787 62.9211H23.1469C23.8536 62.9211 24.4264 63.4939 24.4264 64.2006C24.4264 64.9074 23.8536 65.4801 23.1469 65.4801Z" fill="#574D56"></path><path d="M9.73886 65.4801H5.0705C4.36377 65.4801 3.79102 64.9074 3.79102 64.2006C3.79102 63.4939 4.36377 62.9211 5.0705 62.9211H9.73886C10.4456 62.9211 11.0183 63.4939 11.0183 64.2006C11.0183 64.9074 10.4456 65.4801 9.73886 65.4801Z" fill="#574D56"></path><path d="M53.8561 81.005H25.1213C24.4146 81.005 23.8418 80.4323 23.8418 79.7255C23.8418 79.0188 24.4146 78.446 25.1213 78.446H53.8559C54.5627 78.446 55.1354 79.0188 55.1354 79.7255C55.1354 80.4323 54.5627 81.005 53.8561 81.005Z" fill="#FAF7F8"></path><path d="M49.472 42.9911C49.1339 42.9911 48.7958 42.8619 48.5382 42.6034L37.4663 31.4907C36.9526 30.975 36.9541 30.1403 37.4698 29.6265C37.9852 29.1128 38.8198 29.1142 39.334 29.63L50.4059 40.7427C50.9195 41.2584 50.918 42.0931 50.4024 42.6069C50.1451 42.8631 49.8085 42.9911 49.472 42.9911Z" fill="#FF982A"></path><path d="M72.611 42.9913C72.2745 42.9913 71.938 42.8633 71.6806 42.607C71.1652 42.0932 71.1635 41.2586 71.6772 40.7428L82.7492 29.63C83.263 29.1147 84.0974 29.1129 84.6134 29.6266C85.1289 30.1404 85.1306 30.9749 84.6169 31.4907L73.5448 42.6035C73.2872 42.8618 72.949 42.9913 72.611 42.9913Z" fill="#FF982A"></path><path d="M51.7988 36.3483L54.0027 37.1614H65.5823L68.2233 35.6523L67.3236 31.5893L63.4058 28.6L59.1976 27.8164L57.0826 28.2716C54.0357 29.7171 51.9069 32.7781 51.7988 36.3483Z" fill="#FFE270"></path><path d="M61.5605 27.3969C59.9522 27.3085 58.428 27.6331 57.0818 28.2716C57.2674 28.26 57.4538 28.252 57.6424 28.252C61.3012 28.252 64.4378 30.4816 65.7705 33.656C66.3073 34.9343 65.3764 36.3483 63.99 36.3483H51.7982C51.7953 36.4429 51.791 36.5372 51.791 36.6325C51.791 41.1536 55.0355 41.5029 59.3226 42.3087C65.0777 43.3901 70.3343 42.3618 70.2906 36.5608C70.2539 31.7134 66.4006 27.6625 61.5605 27.3969Z" fill="#FFD250"></path><path d="M72.1941 56.6912H49.8875C48.3014 56.6912 47.0156 55.4054 47.0156 53.8193V40.5077C47.0156 39.79 47.5973 39.2083 48.315 39.2083H73.7664C74.4841 39.2083 75.0658 39.79 75.0658 40.5077V53.8193C75.0658 55.4054 73.78 56.6912 72.1941 56.6912Z" fill="#FFAB56"></path><path d="M65.096 51.7112H56.9879C56.2599 51.7112 55.6699 51.1212 55.6699 50.3932C55.6699 49.6652 56.2599 49.0752 56.9879 49.0752H65.096C65.8239 49.0752 66.414 49.6652 66.414 50.3932C66.414 51.1212 65.8239 51.7112 65.096 51.7112Z" fill="#FFE270"></path></svg>