<svg xmlns="http://www.w3.org/2000/svg" width="55" height="55" viewBox="0 0 55 55" fill="none"><path d="M32.4468 39.4704C33.6273 39.0147 34.7391 38.398 35.7506 37.6378L34.7183 36.2635C33.8335 36.9286 32.8611 37.4681 31.8286 37.8668L32.4468 39.4704Z" fill="currentColor"></path><path d="M41.1288 28.4696C41.2095 27.8622 41.25 27.2501 41.25 26.6374C41.2499 23.9615 40.4694 21.3437 39.0041 19.1048C37.5387 16.8658 35.4522 15.1028 33 14.0317L32.3125 15.6068C34.4582 16.544 36.284 18.0868 37.5661 20.046C38.8483 22.0052 39.5312 24.2959 39.5313 26.6374C39.5312 27.1742 39.4958 27.7104 39.4252 28.2426L41.1288 28.4696Z" fill="currentColor"></path><path d="M23.4895 15.2905L22.9168 13.6699C19.9405 14.7254 17.4175 16.7719 15.7706 19.4663C14.1238 22.1608 13.4532 25.3395 13.8712 28.4695L15.5748 28.2426C15.5042 27.7104 15.4688 27.1742 15.4688 26.6374C15.4711 24.1495 16.2433 21.7233 17.6794 19.6917C19.1154 17.6602 21.145 16.1228 23.4895 15.2905Z" fill="currentColor"></path><path d="M23.4895 37.9844C22.0097 37.4621 20.6471 36.6537 19.4794 35.6053L18.333 36.886C19.6678 38.0841 21.2253 39.008 22.9167 39.605L23.4895 37.9844Z" fill="currentColor"></path><path d="M10.3125 20.625H8.59375V22.3438H10.3125C11.2242 22.3438 12.0985 21.9816 12.7432 21.3369C13.3878 20.6923 13.75 19.8179 13.75 18.9062C13.75 17.9946 13.3878 17.1202 12.7432 16.4756C12.0985 15.8309 11.2242 15.4688 10.3125 15.4688H3.4375V17.1875H10.3125C10.7683 17.1875 11.2055 17.3686 11.5278 17.6909C11.8502 18.0132 12.0312 18.4504 12.0312 18.9062C12.0312 19.3621 11.8502 19.7993 11.5278 20.1216C11.2055 20.4439 10.7683 20.625 10.3125 20.625Z" fill="currentColor"></path><path d="M10.3125 11.1719C10.3117 10.4884 10.0398 9.83306 9.55651 9.34974C9.07319 8.86642 8.41789 8.59455 7.73438 8.59375H6.875V10.3125H7.73438C7.9623 10.3125 8.18088 10.403 8.34204 10.5642C8.50321 10.7254 8.59375 10.944 8.59375 11.1719C8.59375 11.3998 8.50321 11.6184 8.34204 11.7795C8.18088 11.9407 7.9623 12.0312 7.73438 12.0312H1.71875V13.75H7.73438C8.41789 13.7492 9.07319 13.4773 9.55651 12.994C10.0398 12.5107 10.3117 11.8554 10.3125 11.1719Z" fill="currentColor"></path><path d="M41.25 12.0312H49.8438V10.3125H41.25C40.3383 10.3125 39.464 10.6747 38.8193 11.3193C38.1747 11.964 37.8125 12.8383 37.8125 13.75C37.8125 14.6617 38.1747 15.536 38.8193 16.1807C39.464 16.8253 40.3383 17.1875 41.25 17.1875H42.9688V15.4688H41.25C40.7942 15.4688 40.357 15.2877 40.0347 14.9653C39.7123 14.643 39.5312 14.2058 39.5312 13.75C39.5312 13.2942 39.7123 12.857 40.0347 12.5347C40.357 12.2123 40.7942 12.0312 41.25 12.0312Z" fill="currentColor"></path><path d="M51.5625 6.875H42.9688V8.59375H51.5625V6.875Z" fill="currentColor"></path><path d="M53.2812 3.4375H48.125V5.15625H53.2812V3.4375Z" fill="currentColor"></path><path d="M19.7656 9.45309C20.4494 9.45309 21.1051 9.18146 21.5886 8.69797C22.0721 8.21448 22.3438 7.55872 22.3438 6.87496C22.3438 6.1912 22.0721 5.53544 21.5886 5.05195C21.1051 4.56846 20.4494 4.29684 19.7656 4.29684H19.6568C19.4665 3.55866 19.0363 2.90467 18.4337 2.43774C17.8311 1.9708 17.0904 1.71741 16.3281 1.71741C15.5658 1.71741 14.8251 1.9708 14.2226 2.43774C13.62 2.90467 13.1897 3.55866 12.9994 4.29684H12.8906C12.2069 4.29684 11.5511 4.56846 11.0676 5.05195C10.5841 5.53544 10.3125 6.1912 10.3125 6.87496C10.3125 7.55872 10.5841 8.21448 11.0676 8.69797C11.5511 9.18146 12.2069 9.45309 12.8906 9.45309H19.7656ZM12.0312 6.87496C12.0315 6.64712 12.1221 6.42868 12.2832 6.26757C12.4443 6.10647 12.6628 6.01584 12.8906 6.01559H13.75C13.9779 6.01559 14.1965 5.92505 14.3577 5.76388C14.5188 5.60272 14.6094 5.38413 14.6094 5.15621C14.6094 4.70037 14.7905 4.2632 15.1128 3.94087C15.4351 3.61854 15.8723 3.43746 16.3281 3.43746C16.784 3.43746 17.2211 3.61854 17.5435 3.94087C17.8658 4.2632 18.0469 4.70037 18.0469 5.15621C18.0469 5.38413 18.1374 5.60272 18.2986 5.76388C18.4597 5.92505 18.6783 6.01559 18.9062 6.01559H19.7656C19.9935 6.01559 20.2121 6.10613 20.3733 6.26729C20.5345 6.42846 20.625 6.64704 20.625 6.87496C20.625 7.10288 20.5345 7.32147 20.3733 7.48263C20.2121 7.6438 19.9935 7.73434 19.7656 7.73434H12.8906C12.6628 7.73408 12.4443 7.64346 12.2832 7.48235C12.1221 7.32124 12.0315 7.1028 12.0312 6.87496Z" fill="currentColor"></path><path d="M45.6179 41.4433C45.3088 41.4089 44.9986 41.3837 44.6875 41.3676V36.8401L48.5077 39.3868L49.4612 37.9568L44.6875 34.7744V30.0781H42.9688V34.7744L38.1952 37.9568L39.1487 39.3868L42.9688 36.8401V41.3681C42.6579 41.3846 42.3478 41.4098 42.0384 41.4438C40.7464 41.5842 39.5026 42.0135 38.3992 42.7C37.2957 43.3865 36.3609 44.3126 35.6641 45.4095C33.9431 44.3755 32.0515 43.6567 30.0782 43.2869V31.7968H28.3594V43.0537C27.7873 43.0097 27.2127 43.0097 26.6407 43.0537V30.3847C26.7688 30.2724 26.8947 30.1572 27.0191 30.0409C27.5917 30.1228 28.1757 30.0579 28.7164 29.8523L37.9373 35.9403C38.1275 36.0659 38.3598 36.1108 38.583 36.0651C38.8063 36.0194 39.0023 35.8869 39.1279 35.6967C39.5335 35.0789 39.7409 34.352 39.7221 33.6132C39.7034 32.8744 39.4596 32.1589 39.0232 31.5624L38.5238 30.8835C36.576 28.2432 33.8273 26.3029 30.6872 25.3515C30.4702 24.8162 30.1224 24.3438 29.6755 23.9777L30.3377 12.9465C30.3513 12.719 30.274 12.4955 30.1228 12.325C29.9716 12.1544 29.7589 12.051 29.5314 12.0373C28.7936 11.995 28.0605 12.179 27.43 12.5646C26.7996 12.9502 26.3019 13.519 26.0034 14.1951L25.6653 14.9671C24.3525 17.9746 24.0468 21.3259 24.7938 24.5212C24.4369 24.9756 24.2009 25.5129 24.1078 26.0832L14.225 31.0246C14.124 31.075 14.034 31.1449 13.96 31.2302C13.8861 31.3154 13.8297 31.4144 13.794 31.5215C13.7583 31.6286 13.7441 31.7416 13.7521 31.8542C13.7601 31.9668 13.7902 32.0767 13.8407 32.1776C14.1427 32.7775 14.6052 33.2818 15.1767 33.6346C15.7482 33.9873 16.4064 34.1746 17.078 34.1757C17.2101 34.1758 17.3422 34.1687 17.4735 34.1542L18.3114 34.0612C20.67 33.7962 22.9339 32.9832 24.9221 31.6871V43.2869C22.9488 43.6567 21.0572 44.3755 19.3362 45.4095C18.6393 44.3125 17.7045 43.3863 16.601 42.6998C15.4974 42.0132 14.2535 41.5839 12.9615 41.4435C12.6523 41.4091 12.3422 41.3839 12.0311 41.3678V36.8401L15.8512 39.3868L16.8047 37.9568L12.0313 34.7744V30.0781H10.3125V34.7744L5.53892 37.9568L6.4924 39.3868L10.3125 36.8401V41.3681C10.0017 41.3846 9.69153 41.4098 9.38216 41.4438C7.46425 41.6567 5.67149 42.5011 4.28582 43.8441C2.90015 45.187 2.00016 46.9525 1.72738 48.8628C1.70997 48.9847 1.71896 49.1089 1.75374 49.227C1.78851 49.3451 1.84826 49.4544 1.92893 49.5474C2.00961 49.6404 2.10933 49.715 2.22134 49.7661C2.33335 49.8173 2.45504 49.8437 2.57816 49.8437H14.4624C14.295 50.0697 14.1325 50.3003 13.9749 50.5354L13.035 51.9451C12.9487 52.0745 12.8992 52.2249 12.8917 52.3803C12.8842 52.5357 12.919 52.6902 12.9923 52.8273C13.0657 52.9644 13.175 53.0791 13.3084 53.159C13.4419 53.239 13.5945 53.2812 13.75 53.2812H41.25C41.4056 53.2812 41.5582 53.239 41.6917 53.159C41.8251 53.0791 41.9343 52.9644 42.0077 52.8273C42.0811 52.6902 42.1159 52.5357 42.1084 52.3803C42.1009 52.2249 42.0513 52.0745 41.965 51.9451L41.0252 50.5354C40.8682 50.2999 40.7057 50.0694 40.5377 49.8437H52.4219C52.545 49.8437 52.6667 49.8173 52.7787 49.7661C52.8908 49.715 52.9905 49.6404 53.0711 49.5474C53.1518 49.4544 53.2116 49.3451 53.2463 49.227C53.2811 49.1089 53.2901 48.9847 53.2727 48.8628C53 46.9524 52.1001 45.1868 50.7144 43.8437C49.3287 42.5006 47.5359 41.6562 45.6179 41.4433ZM30.8858 27.2276C33.3851 28.1358 35.5606 29.7618 37.1392 31.9017L37.6386 32.5805C37.921 32.9658 38.0478 33.4432 37.994 33.9179L30.1945 28.7682C30.5499 28.3204 30.7876 27.7908 30.8858 27.2276ZM27.2394 15.6573L27.5777 14.8854C27.7703 14.4483 28.1203 14.0996 28.5581 13.9088L27.9983 23.2364C27.4327 23.1532 26.8552 23.2126 26.3184 23.4091C25.8554 20.7909 26.1758 18.0942 27.2394 15.6573ZM27.5 24.9186C27.84 24.9186 28.1723 25.0194 28.4549 25.2083C28.7376 25.3971 28.9579 25.6655 29.088 25.9796C29.218 26.2937 29.2521 26.6393 29.1858 26.9727C29.1194 27.3061 28.9557 27.6123 28.7154 27.8527C28.475 28.0931 28.1688 28.2568 27.8354 28.3231C27.5019 28.3894 27.1564 28.3554 26.8423 28.2253C26.5282 28.0952 26.2598 27.8749 26.0709 27.5922C25.8821 27.3096 25.7813 26.9773 25.7813 26.6373C25.7818 26.1817 25.963 25.7448 26.2853 25.4226C26.6075 25.1004 27.0444 24.9191 27.5 24.9186ZM18.1212 32.3529L17.2834 32.446C16.8085 32.4981 16.3315 32.3692 15.9475 32.0851L24.3058 27.9064C24.5178 28.4372 24.8581 28.907 25.2964 29.2738C23.2601 30.9845 20.764 32.0557 18.1212 32.3529ZM3.64164 48.1249C4.02974 46.8036 4.79979 45.6265 5.85499 44.7415C6.91019 43.8566 8.20344 43.3033 9.57219 43.1513C10.6356 43.0335 11.7087 43.0335 12.7721 43.1513C13.8162 43.2647 14.8211 43.6132 15.7112 44.1707C16.6013 44.7283 17.3534 45.4803 17.9111 46.3702C17.2027 46.902 16.5372 47.4887 15.9208 48.1249H3.64164ZM31.2802 51.5624H27.2275C28.2546 49.8932 29.6676 48.495 31.3476 47.4855L30.462 46.0124C28.2454 47.3443 26.4425 49.2657 25.2542 51.5624H15.3558L15.4049 51.4888C16.6499 49.6144 18.2964 48.0404 20.2249 46.8811C22.1535 45.7217 24.3159 45.0059 26.5553 44.7856C27.1835 44.7231 27.8164 44.7231 28.4446 44.7856C30.8982 45.0286 33.2558 45.865 35.314 47.2226C33.6411 48.3252 32.2576 49.8135 31.28 51.5624H31.2802ZM33.3008 51.5624C34.2085 50.2386 35.4007 49.1344 36.7901 48.3306C37.8669 49.2483 38.8109 50.3112 39.5951 51.4888L39.6442 51.5624H33.3008ZM39.0791 48.1249C38.4629 47.4889 37.7975 46.9024 37.0892 46.3708C37.6468 45.4807 38.3989 44.7285 39.289 44.1709C40.1791 43.6133 41.184 43.2647 42.2282 43.1513C43.2916 43.0335 44.3647 43.0335 45.4281 43.1513C46.7968 43.3034 48.09 43.8567 49.1452 44.7416C50.2003 45.6265 50.9704 46.8036 51.3584 48.1249H39.0791Z" fill="currentColor"></path><path d="M28.3596 10.3125H36.9533C37.6371 10.3125 38.2928 10.0409 38.7763 9.55737C39.2598 9.07387 39.5314 8.41812 39.5314 7.73436C39.5314 7.0506 39.2598 6.39484 38.7763 5.91135C38.2928 5.42785 37.6371 5.15623 36.9533 5.15623H36.008C35.8082 4.17454 35.2716 3.29353 34.4911 2.66552C33.7105 2.0375 32.7351 1.70196 31.7334 1.71691C30.7316 1.73186 29.7666 2.09635 29.0052 2.74737C28.2437 3.39839 27.7337 4.29502 27.5632 5.28224C26.9793 5.47182 26.4822 5.86355 26.1614 6.38696C25.8405 6.91037 25.717 7.5311 25.813 8.13747C25.909 8.74384 26.2182 9.29606 26.685 9.69477C27.1518 10.0935 27.7456 10.3125 28.3596 10.3125ZM28.3596 6.87498C28.5875 6.87498 28.8061 6.78444 28.9672 6.62328C29.1284 6.46211 29.2189 6.24353 29.2189 6.01561C29.2189 5.33185 29.4906 4.67609 29.9741 4.1926C30.4575 3.7091 31.1133 3.43748 31.7971 3.43748C32.4808 3.43748 33.1366 3.7091 33.6201 4.1926C34.1036 4.67609 34.3752 5.33185 34.3752 6.01561C34.3752 6.24353 34.4657 6.46211 34.6269 6.62328C34.7881 6.78444 35.0066 6.87498 35.2346 6.87498H36.9533C37.1812 6.87498 37.3998 6.96552 37.561 7.12669C37.7221 7.28785 37.8127 7.50644 37.8127 7.73436C37.8127 7.96228 37.7221 8.18086 37.561 8.34203C37.3998 8.50319 37.1812 8.59373 36.9533 8.59373H28.3596C28.1316 8.59373 27.9131 8.50319 27.7519 8.34203C27.5907 8.18086 27.5002 7.96228 27.5002 7.73436C27.5002 7.50644 27.5907 7.28785 27.7519 7.12669C27.9131 6.96552 28.1316 6.87498 28.3596 6.87498Z" fill="currentColor"></path></svg>