<svg xmlns="http://www.w3.org/2000/svg" width="55" height="55" viewBox="0 0 55 55" fill="none"><g clip-path="url(#clip0_214_4108)"><path d="M14.6094 8.59375H12.8906C12.8906 11 14.7812 12.8906 17.1875 12.8906H19.7656V11.1719H17.1875C15.7266 11.1719 14.6094 10.0547 14.6094 8.59375Z" fill="currentColor"></path><path d="M20.1094 3.4375H17.3594C16.5 1.89062 14.8672 0.859375 12.9766 0.859375H12.8047C10.5703 0.859375 8.67969 2.23437 7.99219 4.29688C7.90625 4.29688 7.82031 4.29688 7.73438 4.29688C5.32812 4.29688 3.4375 6.1875 3.4375 8.59375V11.1719H5.15625V8.59375C5.15625 7.13281 6.27344 6.01562 7.73438 6.01562C9.19531 6.01562 10.3125 7.13281 10.3125 8.59375V11.1719H12.0312V8.59375C12.0312 6.96094 11.0859 5.5 9.625 4.8125C10.1406 3.4375 11.3437 2.57812 12.8047 2.57812H12.9766C14.7812 2.57812 16.3281 4.125 16.3281 6.01562C16.3281 7.90625 17.875 9.45312 19.7656 9.45312H25.7812V7.73438H23.2031V6.53125C23.2031 4.8125 21.8281 3.4375 20.1094 3.4375ZM18.0469 5.92969C18.0469 5.67188 18.0469 5.41406 17.9609 5.15625H20.1094C20.8828 5.15625 21.4844 5.75781 21.4844 6.53125V7.73438H19.7656C18.8203 7.73438 18.0469 6.96094 18.0469 5.92969Z" fill="currentColor"></path><path d="M21.4844 11.1719H23.2031V12.8906H21.4844V11.1719Z" fill="currentColor"></path><path d="M48.9844 17.2734V13.75C48.9844 11.3438 47.0938 9.45312 44.6875 9.45312H30.9375C28.5312 9.45312 26.6406 11.3438 26.6406 13.75V17.2734C23.7188 17.7031 21.4844 20.1953 21.4844 23.2031V24.9219H18.9062C16.5 24.9219 14.6094 26.8125 14.6094 29.2188V40.3906C14.6094 42.8828 15.7266 45.2031 17.4453 46.75L14.8672 52.4219H12.8906L11.1719 17.1875V16.3281H12.8906C13.4062 16.3281 13.75 16.6719 13.75 17.1875C13.75 19.0781 15.2969 20.625 17.1875 20.625C19.0781 20.625 20.625 19.0781 20.625 17.1875C20.625 16.6719 20.9688 16.3281 21.4844 16.3281H24.0625V14.6094H21.4844C20.0234 14.6094 18.9062 15.7266 18.9062 17.1875C18.9062 18.1328 18.1328 18.9062 17.1875 18.9062C16.2422 18.9062 15.4688 18.1328 15.4688 17.1875C15.4688 15.7266 14.3516 14.6094 12.8906 14.6094H11.1719V13.75C11.1719 13.2344 10.8281 12.8906 10.3125 12.8906H3.4375C2.92188 12.8906 2.57812 13.2344 2.57812 13.75V17.1875L0.859375 53.2812C0.859375 53.5391 0.945312 53.7109 1.11719 53.8828C1.28906 54.0547 1.46094 54.1406 1.71875 54.1406H35.2344H53.2812C53.7969 54.1406 54.1406 53.7969 54.1406 53.2812V23.2031C54.1406 20.1953 51.9062 17.7031 48.9844 17.2734ZM9.45312 18.0469L9.71094 23.2031H4.03906L4.29688 18.0469H9.45312ZM3.95312 24.9219H9.88281L10.0547 29.2188H3.69531L3.95312 24.9219ZM9.45312 14.6094V16.3281H4.29688V14.6094H9.45312ZM2.57812 52.4219L3.60937 30.9375H10.0547L11.1719 52.4219H2.57812ZM30.9375 11.1719H44.6875C46.1484 11.1719 47.2656 12.2891 47.2656 13.75V17.1875H46.4062V14.6094C46.4062 13.1484 45.2891 12.0312 43.8281 12.0312H31.7969C30.3359 12.0312 29.2188 13.1484 29.2188 14.6094V17.1875H28.3594V13.75C28.3594 12.2891 29.4766 11.1719 30.9375 11.1719ZM23.2031 47.2656C21.0547 47.2656 19.0781 46.2344 17.875 44.6875H28.6172C27.3281 46.2344 25.3516 47.2656 23.2031 47.2656ZM23.2031 33.5156C25.3516 33.5156 27.3281 34.5469 28.5312 36.0938H17.875C19.0781 34.5469 21.0547 33.5156 23.2031 33.5156ZM18.9062 33V30.0781C18.9062 29.5625 19.25 29.2188 19.7656 29.2188H21.4844V31.9688C20.5391 32.1406 19.6797 32.4844 18.9062 33ZM16.3281 29.2188C16.3281 27.7578 17.4453 26.6406 18.9062 26.6406H21.4844V27.5H19.7656C18.3047 27.5 17.1875 28.6172 17.1875 30.0781V34.2891C16.8438 34.6328 16.5859 34.8906 16.3281 35.3203V29.2188ZM16.8438 37.8125H29.5625C29.9063 38.5859 30.0781 39.4453 30.0781 40.3906C30.0781 41.3359 29.9063 42.1953 29.5625 42.9688H16.8438C16.5 42.1953 16.3281 41.3359 16.3281 40.3906C16.3281 39.4453 16.5 38.5859 16.8438 37.8125ZM18.8203 47.7812C20.1094 48.5547 21.5703 48.9844 23.2031 48.9844C24.8359 48.9844 26.2969 48.5547 27.5859 47.7812L29.6484 52.4219H16.7578L18.8203 47.7812ZM34.375 52.4219H31.5391L29.0469 46.75C30.7656 45.2031 31.8828 42.8828 31.8828 40.3906C31.8828 35.6641 28.0156 31.7969 23.2891 31.7969V23.2031C23.2891 20.7969 25.1797 18.9062 27.5859 18.9062H30.1641C32.5703 18.9062 34.4609 20.7969 34.4609 23.2031V52.4219H34.375ZM30.9375 17.2734V14.6094C30.9375 14.0938 31.2812 13.75 31.7969 13.75H43.8281C44.3438 13.75 44.6875 14.0938 44.6875 14.6094V17.2734C41.7656 17.7031 39.5312 20.1953 39.5312 23.2031V24.9219H36.0938V23.2031C36.0938 20.1953 33.8594 17.7031 30.9375 17.2734ZM36.0938 26.6406H39.5312V27.5H36.0938V26.6406ZM36.0938 52.4219V29.2188H39.5312V52.4219H36.0938ZM52.4219 52.4219H41.25V23.2031C41.25 20.7969 43.1406 18.9062 45.5469 18.9062H48.125C50.5312 18.9062 52.4219 20.7969 52.4219 23.2031V52.4219Z" fill="currentColor"></path></g><defs><clipPath id="clip0_214_4108"><rect width="55" height="55" fill="white"></rect></clipPath></defs></svg>