<svg xmlns="http://www.w3.org/2000/svg" width="248" height="55" viewBox="0 0 248 55" fill="none"><path d="M50.4883 25.7808V13.7495C50.4883 13.5132 50.3594 13.2983 50.1553 13.1802L40.7021 8.02393C40.5088 7.9165 40.2725 7.9165 40.0898 8.02393L37.5977 9.37744V6.87451C37.5977 6.63818 37.4688 6.42334 37.2646 6.30518L27.8115 1.14893C27.6182 1.0415 27.3818 1.0415 27.1992 1.14893L17.7461 6.30518C17.542 6.42334 17.4131 6.63818 17.4131 6.87451V9.37744L14.9316 8.02393C14.7383 7.9165 14.502 7.9165 14.3193 8.02393L4.86621 13.1802C4.66211 13.2983 4.5332 13.5132 4.5332 13.7495V25.7808C4.5332 26.0171 4.66211 26.2319 4.86621 26.3501L6.96094 27.4995L4.84473 28.6489C4.64062 28.7671 4.51172 28.9819 4.51172 29.2183V41.2495C4.51172 41.4858 4.64062 41.7007 4.84473 41.8188L14.2979 46.9751C14.4912 47.0825 14.7275 47.0825 14.9102 46.9751L17.3916 45.6216V48.1245C17.3916 48.3608 17.5205 48.5757 17.7246 48.6938L27.1777 53.8501C27.3711 53.9575 27.6074 53.9575 27.79 53.8501L37.2432 48.6938C37.4473 48.5757 37.5762 48.3608 37.5762 48.1245V45.6108L40.0576 46.9644C40.251 47.0718 40.4873 47.0718 40.6699 46.9644L50.123 41.8081C50.3271 41.6899 50.4561 41.4751 50.4561 41.2388V29.2183C50.4561 28.9819 50.3271 28.7671 50.123 28.6489L48.0391 27.4995L50.1553 26.3501C50.3594 26.2319 50.4883 26.0171 50.4883 25.7808ZM40.3906 9.32373L48.501 13.7495L40.3906 18.1753L32.2803 13.7495L40.3906 9.32373ZM39.7461 45.3208L37.5977 44.1499V36.0933C37.5977 35.8569 37.4688 35.6421 37.2646 35.5239L35.1484 34.3745L37.0928 33.311L39.7461 34.7612V45.3208ZM27.5 40.519L19.3896 36.0933L21.1943 35.105L27.1885 38.3706C27.3818 38.478 27.6182 38.478 27.8008 38.3706L33.7949 35.105L35.5996 36.0933L27.5 40.519ZM15.2539 19.2925L23.418 14.8452V16.9722L17.7354 20.0659C17.5313 20.1841 17.4023 20.3989 17.4023 20.6353V28.6919L15.2539 29.8628V19.2925ZM18.6914 7.95947L26.8555 12.4067V15.0815L24.707 16.2524V13.7495C24.707 13.5132 24.5781 13.2983 24.374 13.1802L18.6914 10.0864V7.95947ZM36.3086 10.0864L30.626 13.1802C30.4219 13.2983 30.293 13.5132 30.293 13.7495V16.2632L28.1445 15.0923V12.4175L36.3086 7.97021V10.0864ZM28.1445 36.727V26.1675L36.3086 21.7202V32.2798L28.1445 36.727ZM27.5 25.0503L19.3896 20.6245L27.5 16.1987L35.6104 20.6245L27.5 25.0503ZM18.6914 21.7095L26.8555 26.1567V36.7163L18.6914 32.2583V21.7095ZM37.2646 20.0552L31.582 16.9614V14.8345L39.7461 19.2817V29.8413L37.5977 28.6812V20.6245C37.5977 20.3882 37.4688 20.1733 37.2646 20.0552ZM27.5 2.44873L35.6104 6.87451L27.5 11.3003L19.3896 6.87451L27.5 2.44873ZM14.6094 9.32373L22.7197 13.7495L14.6094 18.1753L6.49902 13.7495L14.6094 9.32373ZM5.80078 25.394V14.8345L13.9648 19.2817V29.8413L8.61523 26.9194L5.80078 25.394ZM8.30371 28.23L14.2979 31.4956C14.4912 31.603 14.7275 31.603 14.9102 31.4956L17.3916 30.1421V32.1187L14.5986 33.644L6.49902 29.2183L8.30371 28.23ZM5.80078 30.3032L13.9648 34.7612V45.3208L5.80078 40.8628V30.3032ZM15.2539 45.3208V34.7612L17.9072 33.311L19.8516 34.3745L17.7354 35.5239C17.5313 35.6421 17.4023 35.8569 17.4023 36.0933V44.1499L15.2539 45.3208ZM18.6914 37.1782L26.8555 41.6362V52.1958L18.6914 47.7378V37.1782ZM36.3086 47.7378L28.1445 52.1958V41.6362L36.3086 37.1782V47.7378ZM41.0352 45.3208V34.7612L49.1992 30.3032V40.8628L41.0352 45.3208ZM48.501 29.2183L40.3906 33.644L37.5977 32.1187V30.1421L40.0791 31.4956C40.2725 31.603 40.5088 31.603 40.6914 31.4956L46.6855 28.23L48.501 29.2183ZM46.3848 26.9302L41.0352 29.852V19.2925L49.1992 14.8452V25.4048L46.3848 26.9302Z" fill="#FF5E14"></path><path d="M65.84 46V11.44H71.624V46H65.84ZM95.7811 46V33.52C95.7811 32.704 95.7251 31.8 95.6131 30.808C95.5011 29.816 95.2371 28.864 94.8211 27.952C94.4211 27.024 93.8131 26.264 92.9971 25.672C92.1971 25.08 91.1091 24.784 89.7331 24.784C88.9971 24.784 88.2691 24.904 87.5491 25.144C86.8291 25.384 86.1731 25.8 85.5811 26.392C85.0051 26.968 84.5411 27.768 84.1891 28.792C83.8371 29.8 83.6611 31.096 83.6611 32.68L80.2291 31.216C80.2291 29.008 80.6531 27.008 81.5011 25.216C82.3651 23.424 83.6291 22 85.2931 20.944C86.9571 19.872 89.0051 19.336 91.4371 19.336C93.3571 19.336 94.9411 19.656 96.1891 20.296C97.4371 20.936 98.4291 21.752 99.1651 22.744C99.9011 23.736 100.445 24.792 100.797 25.912C101.149 27.032 101.373 28.096 101.469 29.104C101.581 30.096 101.637 30.904 101.637 31.528V46H95.7811ZM77.8051 46V20.08H82.9651V28.12H83.6611V46H77.8051ZM116.91 46.72C114.526 46.72 112.446 46.12 110.67 44.92C108.894 43.72 107.518 42.088 106.542 40.024C105.566 37.96 105.078 35.632 105.078 33.04C105.078 30.416 105.566 28.08 106.542 26.032C107.534 23.968 108.934 22.344 110.742 21.16C112.55 19.96 114.678 19.36 117.126 19.36C119.59 19.36 121.654 19.96 123.318 21.16C124.998 22.344 126.27 23.968 127.134 26.032C127.998 28.096 128.43 30.432 128.43 33.04C128.43 35.616 127.998 37.944 127.134 40.024C126.27 42.088 124.982 43.72 123.27 44.92C121.558 46.12 119.438 46.72 116.91 46.72ZM117.798 41.536C119.35 41.536 120.598 41.184 121.542 40.48C122.502 39.76 123.198 38.76 123.63 37.48C124.078 36.2 124.302 34.72 124.302 33.04C124.302 31.344 124.078 29.864 123.63 28.6C123.198 27.32 122.518 26.328 121.59 25.624C120.662 24.904 119.462 24.544 117.99 24.544C116.438 24.544 115.158 24.928 114.15 25.696C113.142 26.448 112.398 27.472 111.918 28.768C111.438 30.048 111.198 31.472 111.198 33.04C111.198 34.624 111.43 36.064 111.894 37.36C112.374 38.64 113.102 39.656 114.078 40.408C115.054 41.16 116.294 41.536 117.798 41.536ZM124.302 46V27.808H123.582V11.44H129.414V46H124.302ZM144.903 46.744C142.983 46.744 141.399 46.424 140.151 45.784C138.903 45.144 137.911 44.328 137.175 43.336C136.439 42.344 135.895 41.288 135.543 40.168C135.191 39.048 134.959 37.992 134.847 37C134.751 35.992 134.703 35.176 134.703 34.552V20.08H140.559V32.56C140.559 33.36 140.615 34.264 140.727 35.272C140.839 36.264 141.095 37.224 141.495 38.152C141.911 39.064 142.519 39.816 143.319 40.408C144.135 41 145.231 41.296 146.607 41.296C147.343 41.296 148.071 41.176 148.791 40.936C149.511 40.696 150.159 40.288 150.735 39.712C151.327 39.12 151.799 38.312 152.151 37.288C152.503 36.264 152.679 34.968 152.679 33.4L156.111 34.864C156.111 37.072 155.679 39.072 154.815 40.864C153.967 42.656 152.711 44.088 151.047 45.16C149.383 46.216 147.335 46.744 144.903 46.744ZM153.375 46V37.96H152.679V20.08H158.487V46H153.375ZM174.278 46.72C171.078 46.72 168.478 46 166.478 44.56C164.478 43.12 163.262 41.096 162.83 38.488L168.734 37.576C169.038 38.856 169.71 39.864 170.75 40.6C171.79 41.336 173.102 41.704 174.686 41.704C176.078 41.704 177.15 41.432 177.902 40.888C178.67 40.328 179.054 39.568 179.054 38.608C179.054 38.016 178.91 37.544 178.622 37.192C178.35 36.824 177.742 36.472 176.798 36.136C175.854 35.8 174.406 35.376 172.454 34.864C170.278 34.288 168.55 33.672 167.27 33.016C165.99 32.344 165.07 31.552 164.51 30.64C163.95 29.728 163.67 28.624 163.67 27.328C163.67 25.712 164.094 24.304 164.942 23.104C165.79 21.904 166.974 20.984 168.494 20.344C170.014 19.688 171.806 19.36 173.87 19.36C175.886 19.36 177.67 19.672 179.222 20.296C180.79 20.92 182.054 21.808 183.014 22.96C183.974 24.112 184.566 25.464 184.79 27.016L178.886 28.072C178.742 26.968 178.238 26.096 177.374 25.456C176.526 24.816 175.39 24.456 173.966 24.376C172.606 24.296 171.51 24.504 170.678 25C169.846 25.48 169.43 26.16 169.43 27.04C169.43 27.536 169.598 27.96 169.934 28.312C170.27 28.664 170.942 29.016 171.95 29.368C172.974 29.72 174.494 30.152 176.51 30.664C178.574 31.192 180.222 31.8 181.454 32.488C182.702 33.16 183.598 33.968 184.142 34.912C184.702 35.856 184.982 37 184.982 38.344C184.982 40.952 184.03 43 182.126 44.488C180.238 45.976 177.622 46.72 174.278 46.72ZM204.471 46C202.759 46.32 201.079 46.456 199.431 46.408C197.799 46.376 196.335 46.08 195.039 45.52C193.743 44.944 192.759 44.04 192.087 42.808C191.495 41.688 191.183 40.544 191.151 39.376C191.119 38.208 191.103 36.888 191.103 35.416V12.88H196.863V35.08C196.863 36.12 196.871 37.032 196.887 37.816C196.919 38.6 197.087 39.24 197.391 39.736C197.967 40.696 198.887 41.232 200.151 41.344C201.415 41.456 202.855 41.392 204.471 41.152V46ZM186.399 24.616V20.08H204.471V24.616H186.399ZM209.564 16.144V10.84H215.348V16.144H209.564ZM209.564 46V20.08H215.348V46H209.564ZM233.025 46.72C230.433 46.72 228.169 46.136 226.233 44.968C224.297 43.8 222.793 42.192 221.721 40.144C220.665 38.08 220.137 35.712 220.137 33.04C220.137 30.32 220.681 27.936 221.769 25.888C222.857 23.84 224.369 22.24 226.305 21.088C228.241 19.936 230.481 19.36 233.025 19.36C235.633 19.36 237.905 19.944 239.841 21.112C241.778 22.28 243.282 23.896 244.354 25.96C245.425 28.008 245.961 30.368 245.961 33.04C245.961 35.728 245.417 38.104 244.33 40.168C243.257 42.216 241.753 43.824 239.817 44.992C237.881 46.144 235.617 46.72 233.025 46.72ZM233.025 41.296C235.329 41.296 237.041 40.528 238.161 38.992C239.281 37.456 239.841 35.472 239.841 33.04C239.841 30.528 239.273 28.528 238.137 27.04C237.002 25.536 235.298 24.784 233.025 24.784C231.473 24.784 230.193 25.136 229.185 25.84C228.193 26.528 227.457 27.496 226.977 28.744C226.497 29.976 226.257 31.408 226.257 33.04C226.257 35.552 226.825 37.56 227.961 39.064C229.113 40.552 230.801 41.296 233.025 41.296Z" fill="#17262F"></path></svg>