<svg xmlns="http://www.w3.org/2000/svg" width="248" height="56" viewBox="0 0 248 56" fill="none"><path d="M50.4883 26.7622V14.731C50.4883 14.4946 50.3594 14.2798 50.1553 14.1616L40.7021 9.00537C40.5088 8.89795 40.2725 8.89795 40.0898 9.00537L37.5977 10.3589V7.85596C37.5977 7.61963 37.4688 7.40479 37.2646 7.28662L27.8115 2.13037C27.6182 2.02295 27.3818 2.02295 27.1992 2.13037L17.7461 7.28662C17.542 7.40479 17.4131 7.61963 17.4131 7.85596V10.3589L14.9316 9.00537C14.7383 8.89795 14.502 8.89795 14.3193 9.00537L4.86621 14.1616C4.66211 14.2798 4.5332 14.4946 4.5332 14.731V26.7622C4.5332 26.9985 4.66211 27.2134 4.86621 27.3315L6.96094 28.481L4.84473 29.6304C4.64062 29.7485 4.51172 29.9634 4.51172 30.1997V42.231C4.51172 42.4673 4.64062 42.6821 4.84473 42.8003L14.2979 47.9565C14.4912 48.064 14.7275 48.064 14.9102 47.9565L17.3916 46.603V49.106C17.3916 49.3423 17.5205 49.5571 17.7246 49.6753L27.1777 54.8315C27.3711 54.939 27.6074 54.939 27.79 54.8315L37.2432 49.6753C37.4473 49.5571 37.5762 49.3423 37.5762 49.106V46.5923L40.0576 47.9458C40.251 48.0532 40.4873 48.0532 40.6699 47.9458L50.123 42.7896C50.3271 42.6714 50.4561 42.4565 50.4561 42.2202V30.1997C50.4561 29.9634 50.3271 29.7485 50.123 29.6304L48.0391 28.481L50.1553 27.3315C50.3594 27.2134 50.4883 26.9985 50.4883 26.7622ZM40.3906 10.3052L48.501 14.731L40.3906 19.1567L32.2803 14.731L40.3906 10.3052ZM39.7461 46.3022L37.5977 45.1313V37.0747C37.5977 36.8384 37.4688 36.6235 37.2646 36.5054L35.1484 35.356L37.0928 34.2925L39.7461 35.7427V46.3022ZM27.5 41.5005L19.3896 37.0747L21.1943 36.0864L27.1885 39.3521C27.3818 39.4595 27.6182 39.4595 27.8008 39.3521L33.7949 36.0864L35.5996 37.0747L27.5 41.5005ZM15.2539 20.2739L23.418 15.8267V17.9536L17.7354 21.0474C17.5313 21.1655 17.4023 21.3804 17.4023 21.6167V29.6733L15.2539 30.8442V20.2739ZM18.6914 8.94092L26.8555 13.3882V16.063L24.707 17.2339V14.731C24.707 14.4946 24.5781 14.2798 24.374 14.1616L18.6914 11.0679V8.94092ZM36.3086 11.0679L30.626 14.1616C30.4219 14.2798 30.293 14.4946 30.293 14.731V17.2446L28.1445 16.0737V13.3989L36.3086 8.95166V11.0679ZM28.1445 37.7085V27.1489L36.3086 22.7017V33.2612L28.1445 37.7085ZM27.5 26.0317L19.3896 21.606L27.5 17.1802L35.6104 21.606L27.5 26.0317ZM18.6914 22.6909L26.8555 27.1382V37.6978L18.6914 33.2397V22.6909ZM37.2646 21.0366L31.582 17.9429V15.8159L39.7461 20.2632V30.8228L37.5977 29.6626V21.606C37.5977 21.3696 37.4688 21.1548 37.2646 21.0366ZM27.5 3.43018L35.6104 7.85596L27.5 12.2817L19.3896 7.85596L27.5 3.43018ZM14.6094 10.3052L22.7197 14.731L14.6094 19.1567L6.49902 14.731L14.6094 10.3052ZM5.80078 26.3755V15.8159L13.9648 20.2632V30.8228L8.61523 27.9009L5.80078 26.3755ZM8.30371 29.2114L14.2979 32.4771C14.4912 32.5845 14.7275 32.5845 14.9102 32.4771L17.3916 31.1235V33.1001L14.5986 34.6255L6.49902 30.1997L8.30371 29.2114ZM5.80078 31.2847L13.9648 35.7427V46.3022L5.80078 41.8442V31.2847ZM15.2539 46.3022V35.7427L17.9072 34.2925L19.8516 35.356L17.7354 36.5054C17.5313 36.6235 17.4023 36.8384 17.4023 37.0747V45.1313L15.2539 46.3022ZM18.6914 38.1597L26.8555 42.6177V53.1772L18.6914 48.7192V38.1597ZM36.3086 48.7192L28.1445 53.1772V42.6177L36.3086 38.1597V48.7192ZM41.0352 46.3022V35.7427L49.1992 31.2847V41.8442L41.0352 46.3022ZM48.501 30.1997L40.3906 34.6255L37.5977 33.1001V31.1235L40.0791 32.4771C40.2725 32.5845 40.5088 32.5845 40.6914 32.4771L46.6855 29.2114L48.501 30.1997ZM46.3848 27.9116L41.0352 30.8335V20.2739L49.1992 15.8267V26.3862L46.3848 27.9116Z" fill="#F7C600"></path><path d="M65.84 45.9814V11.4214H71.624V45.9814H65.84ZM95.7811 45.9814V33.5014C95.7811 32.6854 95.7251 31.7814 95.6131 30.7894C95.5011 29.7974 95.2371 28.8454 94.8211 27.9334C94.4211 27.0054 93.8131 26.2454 92.9971 25.6534C92.1971 25.0614 91.1091 24.7654 89.7331 24.7654C88.9971 24.7654 88.2691 24.8854 87.5491 25.1254C86.8291 25.3654 86.1731 25.7814 85.5811 26.3734C85.0051 26.9494 84.5411 27.7494 84.1891 28.7734C83.8371 29.7814 83.6611 31.0774 83.6611 32.6614L80.2291 31.1974C80.2291 28.9894 80.6531 26.9894 81.5011 25.1974C82.3651 23.4054 83.6291 21.9814 85.2931 20.9254C86.9571 19.8534 89.0051 19.3174 91.4371 19.3174C93.3571 19.3174 94.9411 19.6374 96.1891 20.2774C97.4371 20.9174 98.4291 21.7334 99.1651 22.7254C99.9011 23.7174 100.445 24.7734 100.797 25.8934C101.149 27.0134 101.373 28.0774 101.469 29.0854C101.581 30.0774 101.637 30.8854 101.637 31.5094V45.9814H95.7811ZM77.8051 45.9814V20.0614H82.9651V28.1014H83.6611V45.9814H77.8051ZM116.91 46.7014C114.526 46.7014 112.446 46.1014 110.67 44.9014C108.894 43.7014 107.518 42.0694 106.542 40.0054C105.566 37.9414 105.078 35.6134 105.078 33.0214C105.078 30.3974 105.566 28.0614 106.542 26.0134C107.534 23.9494 108.934 22.3254 110.742 21.1414C112.55 19.9414 114.678 19.3414 117.126 19.3414C119.59 19.3414 121.654 19.9414 123.318 21.1414C124.998 22.3254 126.27 23.9494 127.134 26.0134C127.998 28.0774 128.43 30.4134 128.43 33.0214C128.43 35.5974 127.998 37.9254 127.134 40.0054C126.27 42.0694 124.982 43.7014 123.27 44.9014C121.558 46.1014 119.438 46.7014 116.91 46.7014ZM117.798 41.5174C119.35 41.5174 120.598 41.1654 121.542 40.4614C122.502 39.7414 123.198 38.7414 123.63 37.4614C124.078 36.1814 124.302 34.7014 124.302 33.0214C124.302 31.3254 124.078 29.8454 123.63 28.5814C123.198 27.3014 122.518 26.3094 121.59 25.6054C120.662 24.8854 119.462 24.5254 117.99 24.5254C116.438 24.5254 115.158 24.9094 114.15 25.6774C113.142 26.4294 112.398 27.4534 111.918 28.7494C111.438 30.0294 111.198 31.4534 111.198 33.0214C111.198 34.6054 111.43 36.0454 111.894 37.3414C112.374 38.6214 113.102 39.6374 114.078 40.3894C115.054 41.1414 116.294 41.5174 117.798 41.5174ZM124.302 45.9814V27.7894H123.582V11.4214H129.414V45.9814H124.302ZM144.903 46.7254C142.983 46.7254 141.399 46.4054 140.151 45.7654C138.903 45.1254 137.911 44.3094 137.175 43.3174C136.439 42.3254 135.895 41.2694 135.543 40.1494C135.191 39.0294 134.959 37.9734 134.847 36.9814C134.751 35.9734 134.703 35.1574 134.703 34.5334V20.0614H140.559V32.5414C140.559 33.3414 140.615 34.2454 140.727 35.2534C140.839 36.2454 141.095 37.2054 141.495 38.1334C141.911 39.0454 142.519 39.7974 143.319 40.3894C144.135 40.9814 145.231 41.2774 146.607 41.2774C147.343 41.2774 148.071 41.1574 148.791 40.9174C149.511 40.6774 150.159 40.2694 150.735 39.6934C151.327 39.1014 151.799 38.2934 152.151 37.2694C152.503 36.2454 152.679 34.9494 152.679 33.3814L156.111 34.8454C156.111 37.0534 155.679 39.0534 154.815 40.8454C153.967 42.6374 152.711 44.0694 151.047 45.1414C149.383 46.1974 147.335 46.7254 144.903 46.7254ZM153.375 45.9814V37.9414H152.679V20.0614H158.487V45.9814H153.375ZM174.278 46.7014C171.078 46.7014 168.478 45.9814 166.478 44.5414C164.478 43.1014 163.262 41.0774 162.83 38.4694L168.734 37.5574C169.038 38.8374 169.71 39.8454 170.75 40.5814C171.79 41.3174 173.102 41.6854 174.686 41.6854C176.078 41.6854 177.15 41.4134 177.902 40.8694C178.67 40.3094 179.054 39.5494 179.054 38.5894C179.054 37.9974 178.91 37.5254 178.622 37.1734C178.35 36.8054 177.742 36.4534 176.798 36.1174C175.854 35.7814 174.406 35.3574 172.454 34.8454C170.278 34.2694 168.55 33.6534 167.27 32.9974C165.99 32.3254 165.07 31.5334 164.51 30.6214C163.95 29.7094 163.67 28.6054 163.67 27.3094C163.67 25.6934 164.094 24.2854 164.942 23.0854C165.79 21.8854 166.974 20.9654 168.494 20.3254C170.014 19.6694 171.806 19.3414 173.87 19.3414C175.886 19.3414 177.67 19.6534 179.222 20.2774C180.79 20.9014 182.054 21.7894 183.014 22.9414C183.974 24.0934 184.566 25.4454 184.79 26.9974L178.886 28.0534C178.742 26.9494 178.238 26.0774 177.374 25.4374C176.526 24.7974 175.39 24.4374 173.966 24.3574C172.606 24.2774 171.51 24.4854 170.678 24.9814C169.846 25.4614 169.43 26.1414 169.43 27.0214C169.43 27.5174 169.598 27.9414 169.934 28.2934C170.27 28.6454 170.942 28.9974 171.95 29.3494C172.974 29.7014 174.494 30.1334 176.51 30.6454C178.574 31.1734 180.222 31.7814 181.454 32.4694C182.702 33.1414 183.598 33.9494 184.142 34.8934C184.702 35.8374 184.982 36.9814 184.982 38.3254C184.982 40.9334 184.03 42.9814 182.126 44.4694C180.238 45.9574 177.622 46.7014 174.278 46.7014ZM204.471 45.9814C202.759 46.3014 201.079 46.4374 199.431 46.3894C197.799 46.3574 196.335 46.0614 195.039 45.5014C193.743 44.9254 192.759 44.0214 192.087 42.7894C191.495 41.6694 191.183 40.5254 191.151 39.3574C191.119 38.1894 191.103 36.8694 191.103 35.3974V12.8614H196.863V35.0614C196.863 36.1014 196.871 37.0134 196.887 37.7974C196.919 38.5814 197.087 39.2214 197.391 39.7174C197.967 40.6774 198.887 41.2134 200.151 41.3254C201.415 41.4374 202.855 41.3734 204.471 41.1334V45.9814ZM186.399 24.5974V20.0614H204.471V24.5974H186.399ZM209.564 16.1254V10.8214H215.348V16.1254H209.564ZM209.564 45.9814V20.0614H215.348V45.9814H209.564ZM233.025 46.7014C230.433 46.7014 228.169 46.1174 226.233 44.9494C224.297 43.7814 222.793 42.1734 221.721 40.1254C220.665 38.0614 220.137 35.6934 220.137 33.0214C220.137 30.3014 220.681 27.9174 221.769 25.8694C222.857 23.8214 224.369 22.2214 226.305 21.0694C228.241 19.9174 230.481 19.3414 233.025 19.3414C235.633 19.3414 237.905 19.9254 239.841 21.0934C241.778 22.2614 243.282 23.8774 244.354 25.9414C245.425 27.9894 245.961 30.3494 245.961 33.0214C245.961 35.7094 245.417 38.0854 244.33 40.1494C243.257 42.1974 241.753 43.8054 239.817 44.9734C237.881 46.1254 235.617 46.7014 233.025 46.7014ZM233.025 41.2774C235.329 41.2774 237.041 40.5094 238.161 38.9734C239.281 37.4374 239.841 35.4534 239.841 33.0214C239.841 30.5094 239.273 28.5094 238.137 27.0214C237.002 25.5174 235.298 24.7654 233.025 24.7654C231.473 24.7654 230.193 25.1174 229.185 25.8214C228.193 26.5094 227.457 27.4774 226.977 28.7254C226.497 29.9574 226.257 31.3894 226.257 33.0214C226.257 35.5334 226.825 37.5414 227.961 39.0454C229.113 40.5334 230.801 41.2774 233.025 41.2774Z" fill="white"></path></svg>