<svg xmlns="http://www.w3.org/2000/svg" width="248" height="55" viewBox="0 0 248 55" fill="none"><path d="M50.4883 25.7808V13.7495C50.4883 13.5132 50.3594 13.2983 50.1553 13.1802L40.7021 8.02393C40.5088 7.9165 40.2725 7.9165 40.0898 8.02393L37.5977 9.37744V6.87451C37.5977 6.63818 37.4688 6.42334 37.2646 6.30518L27.8115 1.14893C27.6182 1.0415 27.3818 1.0415 27.1992 1.14893L17.7461 6.30518C17.542 6.42334 17.4131 6.63818 17.4131 6.87451V9.37744L14.9316 8.02393C14.7383 7.9165 14.502 7.9165 14.3193 8.02393L4.86621 13.1802C4.66211 13.2983 4.5332 13.5132 4.5332 13.7495V25.7808C4.5332 26.0171 4.66211 26.2319 4.86621 26.3501L6.96094 27.4995L4.84473 28.6489C4.64062 28.7671 4.51172 28.9819 4.51172 29.2183V41.2495C4.51172 41.4858 4.64062 41.7007 4.84473 41.8188L14.2979 46.9751C14.4912 47.0825 14.7275 47.0825 14.9102 46.9751L17.3916 45.6216V48.1245C17.3916 48.3608 17.5205 48.5757 17.7246 48.6938L27.1777 53.8501C27.3711 53.9575 27.6074 53.9575 27.79 53.8501L37.2432 48.6938C37.4473 48.5757 37.5762 48.3608 37.5762 48.1245V45.6108L40.0576 46.9644C40.251 47.0718 40.4873 47.0718 40.6699 46.9644L50.123 41.8081C50.3271 41.6899 50.4561 41.4751 50.4561 41.2388V29.2183C50.4561 28.9819 50.3271 28.7671 50.123 28.6489L48.0391 27.4995L50.1553 26.3501C50.3594 26.2319 50.4883 26.0171 50.4883 25.7808ZM40.3906 9.32373L48.501 13.7495L40.3906 18.1753L32.2803 13.7495L40.3906 9.32373ZM39.7461 45.3208L37.5977 44.1499V36.0933C37.5977 35.8569 37.4688 35.6421 37.2646 35.5239L35.1484 34.3745L37.0928 33.311L39.7461 34.7612V45.3208ZM27.5 40.519L19.3896 36.0933L21.1943 35.105L27.1885 38.3706C27.3818 38.478 27.6182 38.478 27.8008 38.3706L33.7949 35.105L35.5996 36.0933L27.5 40.519ZM15.2539 19.2925L23.418 14.8452V16.9722L17.7354 20.0659C17.5313 20.1841 17.4023 20.3989 17.4023 20.6353V28.6919L15.2539 29.8628V19.2925ZM18.6914 7.95947L26.8555 12.4067V15.0815L24.707 16.2524V13.7495C24.707 13.5132 24.5781 13.2983 24.374 13.1802L18.6914 10.0864V7.95947ZM36.3086 10.0864L30.626 13.1802C30.4219 13.2983 30.293 13.5132 30.293 13.7495V16.2632L28.1445 15.0923V12.4175L36.3086 7.97021V10.0864ZM28.1445 36.727V26.1675L36.3086 21.7202V32.2798L28.1445 36.727ZM27.5 25.0503L19.3896 20.6245L27.5 16.1987L35.6104 20.6245L27.5 25.0503ZM18.6914 21.7095L26.8555 26.1567V36.7163L18.6914 32.2583V21.7095ZM37.2646 20.0552L31.582 16.9614V14.8345L39.7461 19.2817V29.8413L37.5977 28.6812V20.6245C37.5977 20.3882 37.4688 20.1733 37.2646 20.0552ZM27.5 2.44873L35.6104 6.87451L27.5 11.3003L19.3896 6.87451L27.5 2.44873ZM14.6094 9.32373L22.7197 13.7495L14.6094 18.1753L6.49902 13.7495L14.6094 9.32373ZM5.80078 25.394V14.8345L13.9648 19.2817V29.8413L8.61523 26.9194L5.80078 25.394ZM8.30371 28.23L14.2979 31.4956C14.4912 31.603 14.7275 31.603 14.9102 31.4956L17.3916 30.1421V32.1187L14.5986 33.644L6.49902 29.2183L8.30371 28.23ZM5.80078 30.3032L13.9648 34.7612V45.3208L5.80078 40.8628V30.3032ZM15.2539 45.3208V34.7612L17.9072 33.311L19.8516 34.3745L17.7354 35.5239C17.5313 35.6421 17.4023 35.8569 17.4023 36.0933V44.1499L15.2539 45.3208ZM18.6914 37.1782L26.8555 41.6362V52.1958L18.6914 47.7378V37.1782ZM36.3086 47.7378L28.1445 52.1958V41.6362L36.3086 37.1782V47.7378ZM41.0352 45.3208V34.7612L49.1992 30.3032V40.8628L41.0352 45.3208ZM48.501 29.2183L40.3906 33.644L37.5977 32.1187V30.1421L40.0791 31.4956C40.2725 31.603 40.5088 31.603 40.6914 31.4956L46.6855 28.23L48.501 29.2183ZM46.3848 26.9302L41.0352 29.852V19.2925L49.1992 14.8452V25.4048L46.3848 26.9302Z" fill="#CB0000"></path><path d="M65.84 45V10.44H71.624V45H65.84ZM95.7811 45V32.52C95.7811 31.704 95.7251 30.8 95.6131 29.808C95.5011 28.816 95.2371 27.864 94.8211 26.952C94.4211 26.024 93.8131 25.264 92.9971 24.672C92.1971 24.08 91.1091 23.784 89.7331 23.784C88.9971 23.784 88.2691 23.904 87.5491 24.144C86.8291 24.384 86.1731 24.8 85.5811 25.392C85.0051 25.968 84.5411 26.768 84.1891 27.792C83.8371 28.8 83.6611 30.096 83.6611 31.68L80.2291 30.216C80.2291 28.008 80.6531 26.008 81.5011 24.216C82.3651 22.424 83.6291 21 85.2931 19.944C86.9571 18.872 89.0051 18.336 91.4371 18.336C93.3571 18.336 94.9411 18.656 96.1891 19.296C97.4371 19.936 98.4291 20.752 99.1651 21.744C99.9011 22.736 100.445 23.792 100.797 24.912C101.149 26.032 101.373 27.096 101.469 28.104C101.581 29.096 101.637 29.904 101.637 30.528V45H95.7811ZM77.8051 45V19.08H82.9651V27.12H83.6611V45H77.8051ZM116.91 45.72C114.526 45.72 112.446 45.12 110.67 43.92C108.894 42.72 107.518 41.088 106.542 39.024C105.566 36.96 105.078 34.632 105.078 32.04C105.078 29.416 105.566 27.08 106.542 25.032C107.534 22.968 108.934 21.344 110.742 20.16C112.55 18.96 114.678 18.36 117.126 18.36C119.59 18.36 121.654 18.96 123.318 20.16C124.998 21.344 126.27 22.968 127.134 25.032C127.998 27.096 128.43 29.432 128.43 32.04C128.43 34.616 127.998 36.944 127.134 39.024C126.27 41.088 124.982 42.72 123.27 43.92C121.558 45.12 119.438 45.72 116.91 45.72ZM117.798 40.536C119.35 40.536 120.598 40.184 121.542 39.48C122.502 38.76 123.198 37.76 123.63 36.48C124.078 35.2 124.302 33.72 124.302 32.04C124.302 30.344 124.078 28.864 123.63 27.6C123.198 26.32 122.518 25.328 121.59 24.624C120.662 23.904 119.462 23.544 117.99 23.544C116.438 23.544 115.158 23.928 114.15 24.696C113.142 25.448 112.398 26.472 111.918 27.768C111.438 29.048 111.198 30.472 111.198 32.04C111.198 33.624 111.43 35.064 111.894 36.36C112.374 37.64 113.102 38.656 114.078 39.408C115.054 40.16 116.294 40.536 117.798 40.536ZM124.302 45V26.808H123.582V10.44H129.414V45H124.302ZM144.903 45.744C142.983 45.744 141.399 45.424 140.151 44.784C138.903 44.144 137.911 43.328 137.175 42.336C136.439 41.344 135.895 40.288 135.543 39.168C135.191 38.048 134.959 36.992 134.847 36C134.751 34.992 134.703 34.176 134.703 33.552V19.08H140.559V31.56C140.559 32.36 140.615 33.264 140.727 34.272C140.839 35.264 141.095 36.224 141.495 37.152C141.911 38.064 142.519 38.816 143.319 39.408C144.135 40 145.231 40.296 146.607 40.296C147.343 40.296 148.071 40.176 148.791 39.936C149.511 39.696 150.159 39.288 150.735 38.712C151.327 38.12 151.799 37.312 152.151 36.288C152.503 35.264 152.679 33.968 152.679 32.4L156.111 33.864C156.111 36.072 155.679 38.072 154.815 39.864C153.967 41.656 152.711 43.088 151.047 44.16C149.383 45.216 147.335 45.744 144.903 45.744ZM153.375 45V36.96H152.679V19.08H158.487V45H153.375ZM174.278 45.72C171.078 45.72 168.478 45 166.478 43.56C164.478 42.12 163.262 40.096 162.83 37.488L168.734 36.576C169.038 37.856 169.71 38.864 170.75 39.6C171.79 40.336 173.102 40.704 174.686 40.704C176.078 40.704 177.15 40.432 177.902 39.888C178.67 39.328 179.054 38.568 179.054 37.608C179.054 37.016 178.91 36.544 178.622 36.192C178.35 35.824 177.742 35.472 176.798 35.136C175.854 34.8 174.406 34.376 172.454 33.864C170.278 33.288 168.55 32.672 167.27 32.016C165.99 31.344 165.07 30.552 164.51 29.64C163.95 28.728 163.67 27.624 163.67 26.328C163.67 24.712 164.094 23.304 164.942 22.104C165.79 20.904 166.974 19.984 168.494 19.344C170.014 18.688 171.806 18.36 173.87 18.36C175.886 18.36 177.67 18.672 179.222 19.296C180.79 19.92 182.054 20.808 183.014 21.96C183.974 23.112 184.566 24.464 184.79 26.016L178.886 27.072C178.742 25.968 178.238 25.096 177.374 24.456C176.526 23.816 175.39 23.456 173.966 23.376C172.606 23.296 171.51 23.504 170.678 24C169.846 24.48 169.43 25.16 169.43 26.04C169.43 26.536 169.598 26.96 169.934 27.312C170.27 27.664 170.942 28.016 171.95 28.368C172.974 28.72 174.494 29.152 176.51 29.664C178.574 30.192 180.222 30.8 181.454 31.488C182.702 32.16 183.598 32.968 184.142 33.912C184.702 34.856 184.982 36 184.982 37.344C184.982 39.952 184.03 42 182.126 43.488C180.238 44.976 177.622 45.72 174.278 45.72ZM204.471 45C202.759 45.32 201.079 45.456 199.431 45.408C197.799 45.376 196.335 45.08 195.039 44.52C193.743 43.944 192.759 43.04 192.087 41.808C191.495 40.688 191.183 39.544 191.151 38.376C191.119 37.208 191.103 35.888 191.103 34.416V11.88H196.863V34.08C196.863 35.12 196.871 36.032 196.887 36.816C196.919 37.6 197.087 38.24 197.391 38.736C197.967 39.696 198.887 40.232 200.151 40.344C201.415 40.456 202.855 40.392 204.471 40.152V45ZM186.399 23.616V19.08H204.471V23.616H186.399ZM209.564 15.144V9.84H215.348V15.144H209.564ZM209.564 45V19.08H215.348V45H209.564ZM233.025 45.72C230.433 45.72 228.169 45.136 226.233 43.968C224.297 42.8 222.793 41.192 221.721 39.144C220.665 37.08 220.137 34.712 220.137 32.04C220.137 29.32 220.681 26.936 221.769 24.888C222.857 22.84 224.369 21.24 226.305 20.088C228.241 18.936 230.481 18.36 233.025 18.36C235.633 18.36 237.905 18.944 239.841 20.112C241.778 21.28 243.282 22.896 244.354 24.96C245.425 27.008 245.961 29.368 245.961 32.04C245.961 34.728 245.417 37.104 244.33 39.168C243.257 41.216 241.753 42.824 239.817 43.992C237.881 45.144 235.617 45.72 233.025 45.72ZM233.025 40.296C235.329 40.296 237.041 39.528 238.161 37.992C239.281 36.456 239.841 34.472 239.841 32.04C239.841 29.528 239.273 27.528 238.137 26.04C237.002 24.536 235.298 23.784 233.025 23.784C231.473 23.784 230.193 24.136 229.185 24.84C228.193 25.528 227.457 26.496 226.977 27.744C226.497 28.976 226.257 30.408 226.257 32.04C226.257 34.552 226.825 36.56 227.961 38.064C229.113 39.552 230.801 40.296 233.025 40.296Z" fill="white"></path></svg>