<svg xmlns="http://www.w3.org/2000/svg" width="204" height="47" viewBox="0 0 204 47" fill="none"><path d="M38.3086 22.0136V11.5519C38.3086 11.3464 38.2031 11.1595 38.0361 11.0568L30.3018 6.57318C30.1436 6.47977 29.9502 6.47977 29.8008 6.57318L27.7617 7.75013V5.57371C27.7617 5.36821 27.6562 5.18139 27.4893 5.07864L19.7549 0.59502C19.5967 0.501611 19.4033 0.501611 19.2539 0.59502L11.5195 5.07864C11.3525 5.18139 11.2471 5.36821 11.2471 5.57371V7.75013L9.2168 6.57318C9.05859 6.47977 8.86523 6.47977 8.71582 6.57318L0.981445 11.0568C0.814453 11.1595 0.708984 11.3464 0.708984 11.5519V22.0136C0.708984 22.2191 0.814453 22.406 0.981445 22.5087L2.69531 23.5082L0.963867 24.5077C0.796875 24.6104 0.691406 24.7972 0.691406 25.0027V35.4645C0.691406 35.67 0.796875 35.8568 0.963867 35.9596L8.69824 40.4432C8.85645 40.5366 9.0498 40.5366 9.19922 40.4432L11.2295 39.2662V41.4427C11.2295 41.6482 11.335 41.835 11.502 41.9377L19.2363 46.4213C19.3945 46.5148 19.5879 46.5148 19.7373 46.4213L27.4717 41.9377C27.6387 41.835 27.7441 41.6482 27.7441 41.4427V39.2569L29.7744 40.4338C29.9326 40.5273 30.126 40.5273 30.2754 40.4338L38.0098 35.9502C38.1768 35.8475 38.2822 35.6607 38.2822 35.4552V25.0027C38.2822 24.7972 38.1768 24.6104 38.0098 24.5077L36.3047 23.5082L38.0361 22.5087C38.2031 22.406 38.3086 22.2191 38.3086 22.0136ZM30.0469 7.70343L36.6826 11.5519L30.0469 15.4003L23.4111 11.5519L30.0469 7.70343ZM29.5195 39.0047L27.7617 37.9865V30.9809C27.7617 30.7754 27.6562 30.5886 27.4893 30.4858L25.7578 29.4863L27.3486 28.5616L29.5195 29.8226V39.0047ZM19.5 34.8293L12.8643 30.9809L14.3408 30.1215L19.2451 32.9611C19.4033 33.0546 19.5967 33.0546 19.7461 32.9611L24.6504 30.1215L26.127 30.9809L19.5 34.8293ZM9.48047 16.3718L16.1602 12.5046V14.3541L11.5107 17.0443C11.3438 17.147 11.2383 17.3339 11.2383 17.5394V24.545L9.48047 25.5632V16.3718ZM12.293 6.51713L18.9727 10.3843V12.7101L17.2148 13.7283V11.5519C17.2148 11.3464 17.1094 11.1595 16.9424 11.0568L12.293 8.36663V6.51713ZM26.707 8.36663L22.0576 11.0568C21.8906 11.1595 21.7852 11.3464 21.7852 11.5519V13.7376L20.0273 12.7195V10.3936L26.707 6.52647V8.36663ZM20.0273 31.532V22.3499L26.707 18.4828V27.6649L20.0273 31.532ZM19.5 21.3785L12.8643 17.53L19.5 13.6816L26.1357 17.53L19.5 21.3785ZM12.293 18.4735L18.9727 22.3406V31.5227L12.293 27.6462V18.4735ZM27.4893 17.035L22.8398 14.3448V12.4953L29.5195 16.3624V25.5445L27.7617 24.5357V17.53C27.7617 17.3245 27.6562 17.1377 27.4893 17.035ZM19.5 1.72527L26.1357 5.57371L19.5 9.42215L12.8643 5.57371L19.5 1.72527ZM8.95312 7.70343L15.5889 11.5519L8.95312 15.4003L2.31738 11.5519L8.95312 7.70343ZM1.74609 21.6774V12.4953L8.42578 16.3624V25.5445L4.04883 23.0038L1.74609 21.6774ZM3.79395 24.1434L8.69824 26.983C8.85645 27.0764 9.0498 27.0764 9.19922 26.983L11.2295 25.806V27.5248L8.94433 28.8512L2.31738 25.0027L3.79395 24.1434ZM1.74609 25.9462L8.42578 29.8226V39.0047L1.74609 35.1282V25.9462ZM9.48047 39.0047V29.8226L11.6514 28.5616L13.2422 29.4863L11.5107 30.4858C11.3438 30.5886 11.2383 30.7754 11.2383 30.9809V37.9865L9.48047 39.0047ZM12.293 31.9243L18.9727 35.8008V44.9829L12.293 41.1064V31.9243ZM26.707 41.1064L20.0273 44.9829V35.8008L26.707 31.9243V41.1064ZM30.5742 39.0047V29.8226L37.2539 25.9462V35.1282L30.5742 39.0047ZM36.6826 25.0027L30.0469 28.8512L27.7617 27.5248V25.806L29.792 26.983C29.9502 27.0764 30.1436 27.0764 30.293 26.983L35.1973 24.1434L36.6826 25.0027ZM34.9512 23.0131L30.5742 25.5538V16.3718L37.2539 12.5046V21.6867L34.9512 23.0131Z" fill="#FF5E14"></path><path d="M51.5086 31V2.2H56.3286V31H51.5086ZM76.4595 31V20.6C76.4595 19.92 76.4129 19.1667 76.3195 18.34C76.2262 17.5133 76.0062 16.72 75.6595 15.96C75.3262 15.1867 74.8195 14.5533 74.1395 14.06C73.4729 13.5667 72.5662 13.32 71.4195 13.32C70.8062 13.32 70.1995 13.42 69.5995 13.62C68.9995 13.82 68.4529 14.1667 67.9595 14.66C67.4795 15.14 67.0929 15.8067 66.7995 16.66C66.5062 17.5 66.3595 18.58 66.3595 19.9L63.4995 18.68C63.4995 16.84 63.8529 15.1733 64.5595 13.68C65.2795 12.1867 66.3329 11 67.7195 10.12C69.1062 9.22667 70.8129 8.78 72.8395 8.78C74.4395 8.78 75.7595 9.04667 76.7995 9.58C77.8395 10.1133 78.6662 10.7933 79.2795 11.62C79.8929 12.4467 80.3462 13.3267 80.6395 14.26C80.9329 15.1933 81.1195 16.08 81.1995 16.92C81.2929 17.7467 81.3395 18.42 81.3395 18.94V31H76.4595ZM61.4795 31V9.4H65.7795V16.1H66.3595V31H61.4795ZM94.067 31.6C92.0804 31.6 90.347 31.1 88.867 30.1C87.387 29.1 86.2404 27.74 85.427 26.02C84.6137 24.3 84.207 22.36 84.207 20.2C84.207 18.0133 84.6137 16.0667 85.427 14.36C86.2537 12.64 87.4204 11.2867 88.927 10.3C90.4337 9.3 92.207 8.8 94.247 8.8C96.3004 8.8 98.0204 9.3 99.407 10.3C100.807 11.2867 101.867 12.64 102.587 14.36C103.307 16.08 103.667 18.0267 103.667 20.2C103.667 22.3467 103.307 24.2867 102.587 26.02C101.867 27.74 100.794 29.1 99.367 30.1C97.9404 31.1 96.1737 31.6 94.067 31.6ZM94.807 27.28C96.1004 27.28 97.1404 26.9867 97.927 26.4C98.727 25.8 99.307 24.9667 99.667 23.9C100.04 22.8333 100.227 21.6 100.227 20.2C100.227 18.7867 100.04 17.5533 99.667 16.5C99.307 15.4333 98.7404 14.6067 97.967 14.02C97.1937 13.42 96.1937 13.12 94.967 13.12C93.6737 13.12 92.607 13.44 91.767 14.08C90.927 14.7067 90.307 15.56 89.907 16.64C89.507 17.7067 89.307 18.8933 89.307 20.2C89.307 21.52 89.5004 22.72 89.887 23.8C90.287 24.8667 90.8937 25.7133 91.707 26.34C92.5204 26.9667 93.5537 27.28 94.807 27.28ZM100.227 31V15.84H99.627V2.2H104.487V31H100.227ZM117.395 31.62C115.795 31.62 114.475 31.3533 113.435 30.82C112.395 30.2867 111.568 29.6067 110.955 28.78C110.341 27.9533 109.888 27.0733 109.595 26.14C109.301 25.2067 109.108 24.3267 109.015 23.5C108.935 22.66 108.895 21.98 108.895 21.46V9.4H113.775V19.8C113.775 20.4667 113.821 21.22 113.915 22.06C114.008 22.8867 114.221 23.6867 114.555 24.46C114.901 25.22 115.408 25.8467 116.075 26.34C116.755 26.8333 117.668 27.08 118.815 27.08C119.428 27.08 120.035 26.98 120.635 26.78C121.235 26.58 121.775 26.24 122.255 25.76C122.748 25.2667 123.141 24.5933 123.435 23.74C123.728 22.8867 123.875 21.8067 123.875 20.5L126.735 21.72C126.735 23.56 126.375 25.2267 125.655 26.72C124.948 28.2133 123.901 29.4067 122.515 30.3C121.128 31.18 119.421 31.62 117.395 31.62ZM124.455 31V24.3H123.875V9.4H128.715V31H124.455ZM141.874 31.6C139.207 31.6 137.04 31 135.374 29.8C133.707 28.6 132.694 26.9133 132.334 24.74L137.254 23.98C137.507 25.0467 138.067 25.8867 138.934 26.5C139.8 27.1133 140.894 27.42 142.214 27.42C143.374 27.42 144.267 27.1933 144.894 26.74C145.534 26.2733 145.854 25.64 145.854 24.84C145.854 24.3467 145.734 23.9533 145.494 23.66C145.267 23.3533 144.76 23.06 143.974 22.78C143.187 22.5 141.98 22.1467 140.354 21.72C138.54 21.24 137.1 20.7267 136.034 20.18C134.967 19.62 134.2 18.96 133.734 18.2C133.267 17.44 133.034 16.52 133.034 15.44C133.034 14.0933 133.387 12.92 134.094 11.92C134.8 10.92 135.787 10.1533 137.054 9.62C138.32 9.07333 139.814 8.8 141.534 8.8C143.214 8.8 144.7 9.06 145.994 9.58C147.3 10.1 148.354 10.84 149.154 11.8C149.954 12.76 150.447 13.8867 150.634 15.18L145.714 16.06C145.594 15.14 145.174 14.4133 144.454 13.88C143.747 13.3467 142.8 13.0467 141.614 12.98C140.48 12.9133 139.567 13.0867 138.874 13.5C138.18 13.9 137.834 14.4667 137.834 15.2C137.834 15.6133 137.974 15.9667 138.254 16.26C138.534 16.5533 139.094 16.8467 139.934 17.14C140.787 17.4333 142.054 17.7933 143.734 18.22C145.454 18.66 146.827 19.1667 147.854 19.74C148.894 20.3 149.64 20.9733 150.094 21.76C150.56 22.5467 150.794 23.5 150.794 24.62C150.794 26.7933 150 28.5 148.414 29.74C146.84 30.98 144.66 31.6 141.874 31.6ZM167.034 31C165.608 31.2667 164.208 31.38 162.834 31.34C161.474 31.3133 160.254 31.0667 159.174 30.6C158.094 30.12 157.274 29.3667 156.714 28.34C156.221 27.4067 155.961 26.4533 155.934 25.48C155.908 24.5067 155.894 23.4067 155.894 22.18V3.4H160.694V21.9C160.694 22.7667 160.701 23.5267 160.714 24.18C160.741 24.8333 160.881 25.3667 161.134 25.78C161.614 26.58 162.381 27.0267 163.434 27.12C164.488 27.2133 165.688 27.16 167.034 26.96V31ZM151.974 13.18V9.4H167.034V13.18H151.974ZM171.279 6.12V1.7H176.099V6.12H171.279ZM171.279 31V9.4H176.099V31H171.279ZM190.83 31.6C188.67 31.6 186.783 31.1133 185.17 30.14C183.557 29.1667 182.303 27.8267 181.41 26.12C180.53 24.4 180.09 22.4267 180.09 20.2C180.09 17.9333 180.543 15.9467 181.45 14.24C182.357 12.5333 183.617 11.2 185.23 10.24C186.843 9.28 188.71 8.8 190.83 8.8C193.003 8.8 194.897 9.28667 196.51 10.26C198.123 11.2333 199.377 12.58 200.27 14.3C201.163 16.0067 201.61 17.9733 201.61 20.2C201.61 22.44 201.157 24.42 200.25 26.14C199.357 27.8467 198.103 29.1867 196.49 30.16C194.877 31.12 192.99 31.6 190.83 31.6ZM190.83 27.08C192.75 27.08 194.177 26.44 195.11 25.16C196.043 23.88 196.51 22.2267 196.51 20.2C196.51 18.1067 196.037 16.44 195.09 15.2C194.143 13.9467 192.723 13.32 190.83 13.32C189.537 13.32 188.47 13.6133 187.63 14.2C186.803 14.7733 186.19 15.58 185.79 16.62C185.39 17.6467 185.19 18.84 185.19 20.2C185.19 22.2933 185.663 23.9667 186.61 25.22C187.57 26.46 188.977 27.08 190.83 27.08Z" fill="white"></path></svg>