<svg xmlns="http://www.w3.org/2000/svg" width="80" height="80" viewBox="0 0 80 80" fill="none"><path d="M71.8334 51.8425L69.6309 50.6588C69.2597 51.3513 68.8447 52.025 68.3984 52.6613L70.4459 54.0963C70.9472 53.3788 71.4147 52.6213 71.8334 51.8425Z" fill="currentColor"></path><path d="M68.8047 56.17L66.9372 54.5075C66.4159 55.0938 65.8559 55.6525 65.2734 56.1688L66.9322 58.0388C67.5884 57.4575 68.2184 56.8288 68.8047 56.17Z" fill="currentColor"></path><path d="M78.7125 47.8025L78.75 41.25H72.5V32.6238L74.775 21.25H75C77.0675 21.25 78.75 19.5675 78.75 17.5C78.75 15.4325 77.0675 13.75 75 13.75H70V3.75H61.0475L52.5 6.59875V13.75H47.5V1.25H37.5V13.75H32.5C30.4325 13.75 28.75 15.4325 28.75 17.5C28.75 19.5675 30.4325 21.25 32.5 21.25H32.725L35 32.6238V41.25H27.3738C26.7925 38.4012 24.2687 36.25 21.25 36.25C18.2313 36.25 15.7075 38.4012 15.1262 41.25H1.25V47.5L1.2875 47.8025C4.37 60.1362 15.4025 68.75 28.115 68.75H40H42.4675H45C45.6888 68.75 46.25 69.31 46.25 70C46.25 70.69 45.6888 71.25 45 71.25H30C27.9325 71.25 26.25 72.9325 26.25 75C26.25 77.0675 27.9325 78.75 30 78.75H75C77.0675 78.75 78.75 77.0675 78.75 75C78.75 72.9325 77.0675 71.25 75 71.25H57.5C56.8112 71.25 56.25 70.69 56.25 70C56.25 69.31 56.8112 68.75 57.5 68.75H68.75C70.8175 68.75 72.5 67.0675 72.5 65C72.5 63.5163 71.6263 62.2425 70.3737 61.635C74.445 57.9662 77.375 53.1562 78.7125 47.8025ZM76.25 46.25H26.2175C26.77 45.52 27.1838 44.6787 27.3725 43.75H76.25V46.25ZM70.225 31.25H67.5V21.25H72.225L70.225 31.25ZM60 31.25H57.5V26.25H60V31.25ZM55 23.75V31.25H52.5V23.75H45V31.25H42.5V21.25H65V31.25H62.5V23.75H55ZM50 31.25H47.5V26.25H50V31.25ZM55 8.40125L61.4525 6.25H67.5V13.75H55V8.40125ZM45 3.75V6.25H40V3.75H45ZM40 8.75H45V13.75H40V8.75ZM31.25 17.5C31.25 16.81 31.8113 16.25 32.5 16.25H75C75.6888 16.25 76.25 16.81 76.25 17.5C76.25 18.19 75.6888 18.75 75 18.75H32.5C31.8113 18.75 31.25 18.19 31.25 17.5ZM40 21.25V31.25H37.2525L35.2712 21.25H40ZM37.5 33.75H70.0212L70.0037 41.25H37.5V33.75ZM21.25 38.75C23.3175 38.75 25 40.4325 25 42.5C25 44.5675 23.3175 46.25 21.25 46.25C19.1825 46.25 17.5 44.5675 17.5 42.5C17.5 40.4325 19.1825 38.75 21.25 38.75ZM15.1262 43.75C15.3162 44.6787 15.7287 45.52 16.2812 46.25H3.75V43.75H15.1262ZM4.17375 48.75H20V56.115C17.5238 55.6162 15.51 53.6763 15 51.125L14.975 51.0012L12.5487 51.615C13.375 55.75 17.0338 58.75 21.25 58.75C25.4662 58.75 29.125 55.75 29.95 51.6187L29.975 51.4975L27.525 51.0025L27.5 51.125C26.99 53.6763 24.9762 55.615 22.5 56.115V48.75H75.8225C74.2288 53.73 71.1188 58.1125 66.9125 61.25H40C37.9325 61.25 36.25 62.9325 36.25 65C36.25 65.44 36.34 65.8575 36.48 66.25H28.115C17.0963 66.25 7.48375 59.1275 4.17375 48.75ZM68.75 66.25H57.5C55.4325 66.25 53.75 67.9325 53.75 70C53.75 72.0675 55.4325 73.75 57.5 73.75H75C75.6888 73.75 76.25 74.31 76.25 75C76.25 75.69 75.6888 76.25 75 76.25H30C29.3113 76.25 28.75 75.69 28.75 75C28.75 74.31 29.3113 73.75 30 73.75H45C47.0675 73.75 48.75 72.0675 48.75 70C48.75 67.9325 47.0675 66.25 45 66.25H42.4675H40C39.3112 66.25 38.75 65.69 38.75 65C38.75 64.31 39.3112 63.75 40 63.75H68.75C69.4388 63.75 70 64.31 70 65C70 65.69 69.4388 66.25 68.75 66.25Z" fill="currentColor"></path><path d="M45 36.25H47.5V38.75H45V36.25Z" fill="currentColor"></path><path d="M50 36.25H52.5V38.75H50V36.25Z" fill="currentColor"></path><path d="M55 36.25H57.5V38.75H55V36.25Z" fill="currentColor"></path><path d="M60 36.25H62.5V38.75H60V36.25Z" fill="currentColor"></path><path d="M40 36.25H42.5V38.75H40V36.25Z" fill="currentColor"></path><path d="M65 36.25H67.5V38.75H65V36.25Z" fill="currentColor"></path><path d="M62.5 8.75H65V11.25H62.5V8.75Z" fill="currentColor"></path><path d="M57.5 8.75H60V11.25H57.5V8.75Z" fill="currentColor"></path></svg>