<svg xmlns="http://www.w3.org/2000/svg" width="13" height="13" viewBox="0 0 13 13" fill="none"><path d="M12.0547 1.50293L9.61719 0.94043C9.35938 0.870117 9.07812 1.01074 8.96094 1.26855L7.83594 3.89355C7.74219 4.12793 7.8125 4.38574 8 4.5498L9.42969 5.72168C8.58594 7.50293 7.10938 9.00293 5.28125 9.87012L4.10938 8.44043C3.94531 8.25293 3.6875 8.18262 3.45312 8.27637L0.828125 9.40137C0.570312 9.51855 0.453125 9.7998 0.5 10.0576L1.0625 12.4951C1.13281 12.7529 1.34375 12.917 1.625 12.917C7.625 12.917 12.5 8.06543 12.5 2.04199C12.5 1.78418 12.3125 1.57324 12.0547 1.50293Z" fill="currentColor"></path></svg>