<svg xmlns="http://www.w3.org/2000/svg" width="287" height="250" viewBox="0 0 287 250" fill="none"><g clip-path="url(#clip0_230_645)"><path d="M124.83 248.654C193.215 248.654 248.652 193.217 248.652 124.832C248.652 56.4465 193.215 1.0094 124.83 1.0094C56.445 1.0094 1.00781 56.4465 1.00781 124.832C1.00781 193.217 56.445 248.654 124.83 248.654Z" stroke="#DEE4EC" stroke-width="0.75" stroke-miterlimit="10"></path><path d="M213.324 124.832C213.324 173.62 173.621 212.988 125.168 212.988C76.3797 212.988 36.6758 173.284 36.6758 124.832C36.6758 76.0431 76.3797 36.6757 125.168 36.6757C173.621 36.6757 213.324 76.0431 213.324 124.832Z" stroke="#DEE4EC" stroke-width="0.75" stroke-miterlimit="10"></path><path d="M176.243 137.034C182.9 108.629 165.271 80.2047 136.866 73.5469C108.461 66.8891 80.037 84.5187 73.3792 112.924C66.7214 141.329 84.351 169.753 112.756 176.41C141.161 183.068 169.585 165.439 176.243 137.034Z" stroke="#DEE4EC" stroke-width="0.75" stroke-miterlimit="10"></path><path d="M142.665 124.832C142.665 134.589 134.926 142.328 125.169 142.328C115.411 142.328 107.672 134.589 107.672 124.832C107.672 115.074 115.411 107.335 125.169 107.335C134.59 107.335 142.665 115.074 142.665 124.832Z" stroke="#DEE4EC" stroke-width="0.75" stroke-miterlimit="10"></path><path d="M124.832 248.654V124.832V1.34595" stroke="#DEE4EC" stroke-width="0.75" stroke-miterlimit="10"></path><path d="M231.829 186.743L124.831 124.832L17.832 63.2571" stroke="#DEE4EC" stroke-width="0.75" stroke-miterlimit="10"></path><path d="M231.829 63.2571L124.831 124.832L17.832 186.743" stroke="#DEE4EC" stroke-width="0.75" stroke-miterlimit="10"></path><path opacity="0.8" d="M124.833 17.8331L55.5195 84.7914L94.214 142.665L124.833 226.11L201.549 168.91L208.952 76.3796L124.833 17.8331Z" fill="#FF5E14"></path></g><path d="M210 8C210 5.23858 212.239 3 215 3H282C284.761 3 287 5.23858 287 8V45C287 47.7614 284.761 50 282 50H215C212.239 50 210 47.7614 210 45V8Z" fill="#F6F6F6"></path><path d="M216 50H230L216 64V50Z" fill="#F6F6F6"></path><path d="M231.49 35.33C230.478 35.33 229.583 35.1283 228.806 34.725C228.029 34.3143 227.42 33.746 226.98 33.02C226.54 32.294 226.32 31.447 226.32 30.479C226.32 29.533 226.544 28.6787 226.991 27.916C227.446 27.1533 228.128 26.5667 229.037 26.156L229.004 26.871C228.263 26.5117 227.695 26.0057 227.299 25.353C226.903 24.693 226.705 23.9633 226.705 23.164C226.705 22.2693 226.91 21.4993 227.321 20.854C227.732 20.2087 228.296 19.71 229.015 19.358C229.734 19.006 230.559 18.83 231.49 18.83C232.421 18.83 233.246 19.006 233.965 19.358C234.684 19.71 235.248 20.2087 235.659 20.854C236.07 21.4993 236.275 22.2693 236.275 23.164C236.275 23.9633 236.088 24.6893 235.714 25.342C235.34 25.9873 234.764 26.497 233.987 26.871L233.943 26.167C234.852 26.563 235.534 27.146 235.989 27.916C236.451 28.6787 236.682 29.533 236.682 30.479C236.682 31.447 236.458 32.294 236.011 33.02C235.571 33.746 234.959 34.3143 234.174 34.725C233.397 35.1283 232.502 35.33 231.49 35.33ZM231.49 33.46C232.414 33.46 233.162 33.207 233.734 32.701C234.313 32.1877 234.603 31.447 234.603 30.479C234.603 29.5037 234.317 28.763 233.745 28.257C233.18 27.7437 232.429 27.487 231.49 27.487C230.559 27.487 229.807 27.7437 229.235 28.257C228.67 28.763 228.388 29.5037 228.388 30.479C228.388 31.447 228.674 32.1877 229.246 32.701C229.818 33.207 230.566 33.46 231.49 33.46ZM231.49 25.606C232.297 25.606 232.949 25.4043 233.448 25.001C233.947 24.5903 234.196 23.978 234.196 23.164C234.196 22.35 233.947 21.7413 233.448 21.338C232.949 20.9273 232.297 20.722 231.49 20.722C230.691 20.722 230.038 20.9273 229.532 21.338C229.033 21.7413 228.784 22.35 228.784 23.164C228.784 23.978 229.033 24.5903 229.532 25.001C230.038 25.4043 230.691 25.606 231.49 25.606ZM244.279 18.841C245.291 18.841 246.204 19.083 247.018 19.567C247.832 20.051 248.477 20.711 248.954 21.547C249.438 22.383 249.68 23.3327 249.68 24.396V29.665C249.68 30.7723 249.442 31.7513 248.965 32.602C248.488 33.4527 247.828 34.12 246.985 34.604C246.149 35.088 245.188 35.33 244.103 35.33C243.238 35.33 242.427 35.1503 241.672 34.791C240.924 34.4317 240.29 33.922 239.769 33.262L241.232 31.964C241.555 32.4187 241.969 32.7853 242.475 33.064C242.981 33.3353 243.524 33.471 244.103 33.471C244.807 33.471 245.427 33.3023 245.962 32.965C246.505 32.6277 246.926 32.1877 247.227 31.645C247.535 31.1023 247.689 30.5157 247.689 29.885V26.706L248.118 27.19C247.663 27.85 247.08 28.378 246.369 28.774C245.658 29.17 244.884 29.368 244.048 29.368C243.065 29.368 242.185 29.137 241.408 28.675C240.631 28.213 240.015 27.5897 239.56 26.805C239.105 26.013 238.878 25.1257 238.878 24.143C238.878 23.1603 239.124 22.2693 239.615 21.47C240.106 20.6633 240.759 20.0253 241.573 19.556C242.394 19.0793 243.296 18.841 244.279 18.841ZM244.279 20.733C243.648 20.733 243.073 20.887 242.552 21.195C242.039 21.4957 241.628 21.9063 241.32 22.427C241.012 22.9403 240.858 23.5123 240.858 24.143C240.858 24.7737 241.008 25.3493 241.309 25.87C241.617 26.3833 242.028 26.794 242.541 27.102C243.062 27.41 243.637 27.564 244.268 27.564C244.899 27.564 245.474 27.41 245.995 27.102C246.516 26.794 246.926 26.3833 247.227 25.87C247.535 25.3493 247.689 24.7737 247.689 24.143C247.689 23.5197 247.535 22.9513 247.227 22.438C246.926 21.9173 246.516 21.503 245.995 21.195C245.482 20.887 244.91 20.733 244.279 20.733ZM254.082 35L252.762 33.68L267.304 19.16L268.624 20.48L254.082 35ZM265.324 35.33C264.598 35.33 263.934 35.154 263.333 34.802C262.739 34.4427 262.262 33.966 261.903 33.372C261.544 32.7707 261.364 32.1033 261.364 31.37C261.364 30.6513 261.547 29.9913 261.914 29.39C262.281 28.7887 262.765 28.3083 263.366 27.949C263.967 27.5897 264.62 27.41 265.324 27.41C266.05 27.41 266.714 27.5897 267.315 27.949C267.916 28.301 268.393 28.7777 268.745 29.379C269.104 29.973 269.284 30.6367 269.284 31.37C269.284 32.1033 269.104 32.7707 268.745 33.372C268.393 33.966 267.916 34.4427 267.315 34.802C266.714 35.154 266.05 35.33 265.324 35.33ZM265.324 33.603C265.727 33.603 266.098 33.5003 266.435 33.295C266.78 33.0897 267.051 32.8183 267.249 32.481C267.454 32.1437 267.557 31.7733 267.557 31.37C267.557 30.9667 267.454 30.5963 267.249 30.259C267.051 29.9143 266.78 29.643 266.435 29.445C266.098 29.2397 265.727 29.137 265.324 29.137C264.921 29.137 264.55 29.2397 264.213 29.445C263.876 29.643 263.604 29.9143 263.399 30.259C263.194 30.5963 263.091 30.9667 263.091 31.37C263.091 31.7733 263.194 32.1437 263.399 32.481C263.604 32.8183 263.876 33.0897 264.213 33.295C264.55 33.5003 264.921 33.603 265.324 33.603ZM256.062 26.75C255.336 26.75 254.672 26.574 254.071 26.222C253.47 25.8627 252.989 25.386 252.63 24.792C252.278 24.1907 252.102 23.5233 252.102 22.79C252.102 22.0713 252.285 21.4113 252.652 20.81C253.019 20.2087 253.503 19.7283 254.104 19.369C254.705 19.0097 255.358 18.83 256.062 18.83C256.788 18.83 257.448 19.0097 258.042 19.369C258.643 19.721 259.124 20.1977 259.483 20.799C259.842 21.393 260.022 22.0567 260.022 22.79C260.022 23.5233 259.842 24.1907 259.483 24.792C259.124 25.386 258.643 25.8627 258.042 26.222C257.448 26.574 256.788 26.75 256.062 26.75ZM256.062 25.023C256.465 25.023 256.836 24.9203 257.173 24.715C257.518 24.5097 257.789 24.2383 257.987 23.901C258.192 23.5637 258.295 23.1933 258.295 22.79C258.295 22.3867 258.192 22.0163 257.987 21.679C257.789 21.3343 257.518 21.063 257.173 20.865C256.836 20.6597 256.465 20.557 256.062 20.557C255.659 20.557 255.288 20.6597 254.951 20.865C254.614 21.063 254.342 21.3343 254.137 21.679C253.932 22.0163 253.829 22.3867 253.829 22.79C253.829 23.1933 253.932 23.5637 254.137 23.901C254.342 24.2383 254.614 24.5097 254.951 24.715C255.288 24.9203 255.659 25.023 256.062 25.023Z" fill="#17262F"></path><defs><clipPath id="clip0_230_645"><rect width="250" height="250" fill="white"></rect></clipPath></defs></svg>