<svg xmlns="http://www.w3.org/2000/svg" width="70" height="57" viewBox="0 0 70 57" fill="none"><path d="M6.29213 52.005C2.35955 47.4286 0 42.436 0 34.1151C0 19.5536 9.83146 6.65622 23.5955 -0.000488281L27.1348 5.40809C14.1573 12.8969 11.4045 22.4659 10.618 28.7066C12.5843 27.4584 15.3371 27.0424 18.0899 27.4584C25.1685 28.2905 30.6742 34.1151 30.6742 42.02C30.6742 45.7644 29.1011 49.5088 26.7416 52.4211C23.9888 55.3334 20.8427 56.5815 16.9101 56.5815C12.5843 56.5815 8.65169 54.5013 6.29213 52.005ZM45.618 52.005C41.6854 47.4286 39.3258 42.436 39.3258 34.1151C39.3258 19.5536 49.1573 6.65622 62.9214 -0.000488281L66.4607 5.40809C53.4831 12.8969 50.7303 22.4659 49.9438 28.7066C51.9101 27.4584 54.6629 27.0424 57.4157 27.4584C64.4944 28.2905 70 34.1151 70 42.02C70 45.7644 68.427 49.5088 66.0674 52.4211C63.7079 55.3334 60.1685 56.5815 56.236 56.5815C51.9101 56.5815 47.9775 54.5013 45.618 52.005Z" fill="currentColor"></path></svg>