<svg xmlns="http://www.w3.org/2000/svg" width="180" height="180" viewBox="0 0 180 180" fill="none"><path d="M47.8403 149.019C47.3215 149.012 46.8147 148.862 46.3753 148.586C45.9359 148.31 45.581 147.918 45.3492 147.454C45.1174 146.99 45.0178 146.471 45.0612 145.953C45.1046 145.436 45.2894 144.941 45.5954 144.522L59.0848 126.536C71.8155 109.488 78.7141 88.7927 78.7578 67.5166C78.7389 63.3607 77.8859 59.251 76.2494 55.4308C74.6129 51.6107 72.2262 48.158 69.2308 45.2772C66.2353 42.3965 62.6921 40.1464 58.811 38.6602C54.9299 37.1741 50.79 36.4821 46.6366 36.6254C38.8978 37.0387 31.5851 40.2989 26.1051 45.7789C20.6252 51.2588 17.365 58.5715 16.9516 66.3103C16.8091 70.4636 17.5015 74.6032 18.988 78.484C20.4744 82.3648 22.7246 85.9077 25.6053 88.903C28.486 91.8983 31.9385 94.2849 35.7583 95.9216C39.5782 97.5582 43.6877 98.4116 47.8433 98.4311C48.5793 98.4455 49.2802 98.7479 49.7955 99.2735C50.3108 99.7991 50.5995 100.506 50.5994 101.242C50.5993 101.978 50.3106 102.685 49.7952 103.21C49.2798 103.736 48.5788 104.038 47.8429 104.052C38.2759 104.052 29.0905 100.3 22.2602 93.6007C15.4299 86.9019 11.4995 77.7912 11.3136 68.226C11.1276 58.6608 14.7008 49.4042 21.2656 42.4449C27.8304 35.4856 36.8629 31.3789 46.4227 31.007C51.3402 30.8023 56.248 31.5998 60.8477 33.3509C65.4475 35.1021 69.643 37.7703 73.1794 41.1934C95.9901 62.3021 79.7607 108.721 63.5808 129.909L50.0909 147.895C49.829 148.245 49.4893 148.528 49.0986 148.724C48.7079 148.919 48.277 149.02 47.8403 149.019Z" fill="currentColor"></path><path d="M132.155 149.019C131.636 149.012 131.129 148.862 130.69 148.586C130.25 148.31 129.895 147.918 129.663 147.454C129.432 146.99 129.332 146.471 129.376 145.953C129.419 145.436 129.604 144.941 129.91 144.522L143.399 126.536C156.13 109.488 163.028 88.7927 163.072 67.5166C163.052 63.3609 162.199 59.2515 160.562 55.4318C158.925 51.612 156.539 48.1596 153.543 45.279C150.548 42.3984 147.005 40.1482 143.124 38.6618C139.244 37.1754 135.104 36.4829 130.951 36.6254C123.212 37.0387 115.899 40.2989 110.419 45.7789C104.94 51.2589 101.679 58.5715 101.266 66.3103C101.123 70.4636 101.816 74.6032 103.302 78.484C104.789 82.3648 107.039 85.9077 109.92 88.903C112.8 91.8983 116.253 94.2849 120.073 95.9216C123.893 97.5582 128.002 98.4116 132.158 98.4311C132.894 98.4455 133.594 98.7479 134.11 99.2735C134.625 99.799 134.914 100.506 134.914 101.242C134.914 101.978 134.625 102.685 134.11 103.21C133.594 103.736 132.893 104.038 132.157 104.052C122.59 104.052 113.405 100.3 106.575 93.6007C99.7443 86.9019 95.814 77.7912 95.628 68.226C95.442 58.6608 99.0153 49.4042 105.58 42.4449C112.145 35.4857 121.177 31.3789 130.737 31.007C135.655 30.8006 140.563 31.5973 145.163 33.3485C149.763 35.0998 153.958 37.7689 157.494 41.1934C180.305 62.3021 164.075 108.721 147.895 129.909L134.405 147.895C134.143 148.245 133.804 148.528 133.413 148.724C133.022 148.919 132.591 149.02 132.155 149.019Z" fill="currentColor"></path></svg>