<svg xmlns="http://www.w3.org/2000/svg" width="80" height="80" viewBox="0 0 80 80" fill="none"><g clip-path="url(#clip0_214_1815)"><path d="M27.2291 51.3455C27.2291 48.3034 24.8895 43.7911 21.6575 43.7911C18.4255 43.7911 16.0859 48.3034 16.0859 51.3455C16.0859 54.4176 18.5853 56.917 21.6575 56.917C24.7297 56.917 27.2291 54.4176 27.2291 51.3455ZM18.4297 51.3455C18.4297 49.2881 20.1609 46.1348 21.6575 46.1348C23.1541 46.1348 24.8853 49.2881 24.8853 51.3455C24.8853 53.1253 23.4372 54.5733 21.6575 54.5733C19.8778 54.5733 18.4297 53.1251 18.4297 51.3455Z" fill="currentColor"></path><path d="M78.8281 68.4827H77.1769V63.2012C77.1769 62.5539 76.6523 62.0294 76.005 62.0294C75.3577 62.0294 74.8331 62.5539 74.8331 63.2012V68.4827H71.8644V50.935C71.8644 49.8755 71.0023 49.0134 69.9428 49.0134H65.7748V46.0447H69.9428C72.6394 46.0447 74.8331 48.2384 74.8331 50.935V58.67C74.8331 59.3173 75.3577 59.8419 76.005 59.8419C76.6523 59.8419 77.1769 59.3173 77.1769 58.67V50.935C77.1769 46.9462 73.9316 43.7009 69.9428 43.7009H65.7748V41.1426H66.0823C66.7297 41.1426 67.2542 40.6181 67.2542 39.9708C67.2542 39.3234 66.7297 38.7989 66.0823 38.7989H65.7748V29.6083H66.0823C66.7297 29.6083 67.2542 29.0837 67.2542 28.4364C67.2542 27.7891 66.7297 27.2645 66.0823 27.2645H65.7748V22.0301C65.7748 19.9517 64.0839 18.2609 62.0055 18.2609H57.7245V15.3001C57.7245 11.922 54.9761 9.17358 51.598 9.17358H26.6139C23.2358 9.17358 20.4873 11.922 20.4873 15.3001V29.2509H17.7475C15.8508 29.2509 14.3078 30.7939 14.3078 32.6906V34.407C11.0486 34.6648 8.09016 36.3903 6.27375 39.133C5.91641 39.6726 6.06406 40.3997 6.60359 40.7572C7.14328 41.1148 7.87016 40.967 8.22781 40.4273C9.76641 38.1042 12.3586 36.7172 15.1616 36.7172H28.1569C31.1006 36.7172 33.8488 38.2842 35.3288 40.807C37.3075 44.1798 38.3534 48.1477 38.3534 52.2817C38.3534 58.6967 35.7762 64.718 31.4395 68.4828H11.8786C7.54188 64.7178 4.96469 58.6967 4.96469 52.2817C4.96469 49.4964 5.43672 46.7969 6.36781 44.2584C6.59078 43.6508 6.27891 42.9775 5.67125 42.7547C5.06297 42.5316 4.39016 42.8437 4.1675 43.4512C3.14125 46.2491 2.62094 49.2201 2.62094 52.2817C2.62094 58.4428 4.79641 64.2953 8.54734 68.4828H1.17188C0.524531 68.4828 0 69.0073 0 69.6547C0 70.302 0.524531 70.8266 1.17188 70.8266H78.8281C79.4755 70.8266 80 70.302 80 69.6547C80 69.0073 79.4755 68.4827 78.8281 68.4827ZM69.5206 51.3572V68.4827H65.7748V51.3572H69.5206ZM63.4311 38.7989H49.6739V29.6083H63.4311V38.7989ZM63.4311 22.0301V27.2645H49.6739V22.0301C49.6739 21.2442 50.3134 20.6047 51.0995 20.6047H62.0055C62.7916 20.6047 63.4311 21.2441 63.4311 22.0301ZM17.7475 31.5948H25.5709C26.1752 31.5948 26.6669 32.0864 26.6669 32.6908V34.3736H16.6516V32.6908C16.6516 32.0864 17.1433 31.5948 17.7475 31.5948ZM40.6973 52.2816C40.6973 47.7311 39.54 43.353 37.3503 39.6211C35.5953 36.6298 32.4539 34.6858 29.0106 34.408V32.6908C29.0106 30.7941 27.4677 29.2511 25.5709 29.2511H22.8311V15.3001C22.8311 13.2142 24.528 11.5173 26.6139 11.5173H51.5978C53.6838 11.5173 55.3806 13.2142 55.3806 15.3001V18.2608H51.0995C49.0211 18.2608 47.3302 19.9516 47.3302 22.03V27.2644H47.0227C46.3753 27.2644 45.8508 27.7889 45.8508 28.4362C45.8508 29.0836 46.3753 29.6081 47.0227 29.6081H47.3302V38.7987H47.0227C46.3753 38.7987 45.8508 39.3233 45.8508 39.9706C45.8508 40.618 46.3753 41.1425 47.0227 41.1425H47.3302V46.2789C47.3302 46.9262 47.8547 47.4508 48.502 47.4508C49.1494 47.4508 49.6739 46.9262 49.6739 46.2789V41.1425H63.4311V68.4825H57.6211V60.0558C57.6211 59.4084 57.0966 58.8839 56.4492 58.8839H49.6739V50.8102C49.6739 50.1628 49.1494 49.6383 48.502 49.6383C47.8547 49.6383 47.3302 50.1628 47.3302 50.8102V58.8839H42.6366C41.9892 58.8839 41.4647 59.4084 41.4647 60.0558V68.4825H34.7709C38.5219 64.2953 40.6973 58.4428 40.6973 52.2816ZM43.8084 68.4827V61.2278H55.2773V68.4827H43.8084Z" fill="currentColor"></path></g><defs><clipPath id="clip0_214_1815"><rect width="80" height="80" fill="white"></rect></clipPath></defs></svg>