<svg xmlns="http://www.w3.org/2000/svg" width="55" height="55" viewBox="0 0 55 55" fill="none"><g clip-path="url(#clip0_214_4072)"><path d="M53.7598 51.4386L53.2458 51.9526C51.9166 53.2198 49.8265 53.2198 48.4972 51.9526L47.4693 50.9246C46.0643 49.5158 43.9677 49.0536 42.1006 49.7414V43.2877C42.1006 42.8034 41.7078 42.4106 41.2235 42.4106H40.3464V39.7794H48.2402C48.7246 39.7794 49.1173 39.3866 49.1173 38.9023V35.3939C49.1173 34.9095 48.7246 34.5168 48.2402 34.5168H47.6877L52.6257 19.0843V42.4106C52.6257 42.895 52.233 43.2877 51.7486 43.2877C51.2642 43.2877 50.8715 42.895 50.8715 42.4106V41.5335H49.1173V42.4106C49.1173 43.8639 50.2954 45.0419 51.7486 45.0419C53.2018 45.0419 54.3799 43.8639 54.3799 42.4106V13.4665C54.3799 13.2338 54.2874 13.0108 54.1229 12.8464L51.4916 10.2151C51.1489 9.87281 50.5935 9.87314 50.2512 10.2159C50.2078 10.2594 50.169 10.3073 50.1356 10.3589L40.7463 24.8687H35.9609V21.3603H36.838V19.6062H35.8732C35.3912 17.2325 33.0764 15.6991 30.7027 16.1811C28.9769 16.5315 27.6281 17.8804 27.2777 19.6062H26.3129V21.3603H27.1899V24.8687H23.5597L21.1915 9.08101H21.9274C22.4118 9.08101 22.8045 8.68829 22.8045 8.20392V4.69554C22.8045 4.21116 22.4118 3.81844 21.9274 3.81844H18.419V0.310059H16.6648V3.81844H13.1564C12.672 3.81844 12.2793 4.21116 12.2793 4.69554V8.20392C12.2793 8.68829 12.672 9.08101 13.1564 9.08101H13.8923L10.8663 29.2542H7.89386C7.40948 29.2542 7.01676 29.6469 7.01676 30.1313V32.7626H0.877095C0.392719 32.7626 0 33.1553 0 33.6397V38.9023C0 39.3866 0.392719 39.7794 0.877095 39.7794H8.77095V42.4106H7.89386C7.40948 42.4106 7.01676 42.8034 7.01676 43.2877V52.4218C6.79135 52.2918 6.58304 52.1341 6.39665 51.9526L5.3687 50.9246C4.41234 49.9626 3.11073 49.4235 1.75419 49.4274H0V51.1816H1.75419C2.64521 51.1787 3.50027 51.5329 4.12849 52.1648L5.15644 53.1928C7.15271 55.189 10.3892 55.189 12.3855 53.1928L13.4134 52.1648C14.7427 50.8975 16.8328 50.8975 18.162 52.1648L19.19 53.1928C21.1862 55.189 24.4227 55.189 26.419 53.1928L27.4469 52.1648C28.7762 50.8975 30.8663 50.8975 32.1955 52.1648L33.2235 53.1928C35.2198 55.189 38.4562 55.189 40.4525 53.1928L41.4805 52.1648C42.8097 50.8975 44.8998 50.8975 46.229 52.1648L47.257 53.1928C49.2533 55.189 52.4897 55.189 54.486 53.1928L55 52.6788L53.7598 51.4386ZM38.5922 42.4106H33.3296V39.7794H38.5922V42.4106ZM42.1006 34.5168V26.009L43.782 23.4101L48.0385 27.6667L45.8458 34.5168H42.1006ZM44.7573 21.8989L47.9148 17.0152L50.5873 19.6886L48.6376 25.7827L44.7573 21.8989ZM51.0189 12.2219L52.5047 13.7068L51.189 17.809L48.8893 15.5092L51.0189 12.2219ZM31.5754 17.852C32.6865 17.8566 33.675 18.5586 34.0453 19.6062H29.1055C29.4759 18.5586 30.4644 17.8566 31.5754 17.852ZM28.9441 21.3603H34.2067V24.8687H28.9441V21.3603ZM14.9869 13.6086L15.5798 13.905L14.8904 14.2497L14.9869 13.6086ZM14.2852 18.3107L14.5756 16.3706L17.5419 14.8856L20.5117 16.3706L20.8021 18.3107L17.5419 19.9403L14.2852 18.3107ZM15.5807 20.9218L13.7529 21.8357L14.0081 20.135L15.5807 20.9218ZM20.1934 14.2497L19.504 13.905L20.0969 13.6086L20.1934 14.2497ZM21.0757 20.135L21.331 21.8357L19.5031 20.9218L21.0757 20.135ZM14.0335 5.57263H21.0503V7.32682H14.0335V5.57263ZM19.418 9.08101L19.8232 11.7833L17.5428 12.9236L15.2623 11.7833L15.6658 9.08101H19.418ZM13.4345 23.9557L17.5419 21.9024L21.6493 23.9557L21.7862 24.8687H15.7877C15.3033 24.8687 14.9106 25.2614 14.9106 25.7458V29.2542H12.6398L13.4345 23.9557ZM8.77095 31.0084H15.7877C16.2721 31.0084 16.6648 30.6157 16.6648 30.1313V26.6229H40.3464V34.5168H32.4525V33.6397C32.4525 33.1553 32.0598 32.7626 31.5754 32.7626H8.77095V31.0084ZM1.75419 34.5168H30.6983V35.3939C30.6983 35.8782 31.091 36.271 31.5754 36.271H47.3631V38.0252H1.75419V34.5168ZM10.5251 39.7794H15.7877V42.4106H10.5251V39.7794ZM12.1732 50.9246L11.1452 51.9526C10.5107 52.571 9.65693 52.9129 8.77095 52.9033V44.1648H17.5419V49.7414C15.6748 49.0536 13.5782 49.5158 12.1732 50.9246ZM26.2067 50.9246L25.1788 51.9526C23.8495 53.2198 21.7594 53.2198 20.4302 51.9526L19.4022 50.9246C19.368 50.8904 19.3303 50.8606 19.2961 50.8281V43.2877C19.2961 42.8034 18.9034 42.4106 18.419 42.4106H17.5419V39.7794H31.5754V42.4106H30.6983C30.214 42.4106 29.8212 42.8034 29.8212 43.2877V49.4274C28.4647 49.4235 27.1631 49.9626 26.2067 50.9246ZM39.2123 51.9526C37.8831 53.2198 35.7929 53.2198 34.4637 51.9526L33.4357 50.9246C32.9096 50.399 32.2746 49.9951 31.5754 49.7414V44.1648H40.3464V50.8307C40.3113 50.8632 40.2745 50.8921 40.2402 50.9264L39.2123 51.9526Z" fill="currentColor"></path><path d="M28.0664 28.3771H38.5915V30.1313H28.0664V28.3771Z" fill="currentColor"></path></g><defs><clipPath id="clip0_214_4072"><rect width="55" height="55" fill="white"></rect></clipPath></defs></svg>