<svg xmlns="http://www.w3.org/2000/svg" width="63" height="63" viewBox="0 0 63 63" fill="none"><path d="M25.7795 24.3657C25.5439 24.3657 25.3178 24.4593 25.1511 24.626L20.2627 29.5143C19.7587 29.2226 19.1745 29.0546 18.5515 29.0546C16.6615 29.0546 15.1238 30.5923 15.1238 32.4824C15.1238 34.3724 16.6615 35.9101 18.5515 35.9101C20.4416 35.9101 21.9793 34.3724 21.9793 32.4824C21.9793 31.8593 21.8113 31.275 21.5196 30.771L26.1477 26.143H35.4136C35.474 26.4861 35.6352 26.8147 35.8998 27.0792L37.7719 28.9513C38.104 29.2834 38.5455 29.4663 39.0151 29.4663C39.4847 29.4663 39.9264 29.2834 40.2584 28.9513C40.9694 28.2401 41.8736 28.2566 42.4827 28.5089C43.0918 28.7611 43.7427 29.389 43.7427 30.3945C43.7427 31.364 44.5315 32.1528 45.5009 32.1528H48.1484C49.1178 32.1528 49.9066 31.364 49.9066 30.3945C49.9066 29.3908 50.5578 28.7634 51.1675 28.511C51.7771 28.2585 52.6812 28.2415 53.3909 28.9513C53.723 29.2834 54.1646 29.4663 54.6343 29.4663C55.104 29.4663 55.5456 29.2834 55.8775 28.9513L57.7496 27.0792C58.0817 26.7471 58.2645 26.3056 58.2645 25.836C58.2645 25.3663 58.0817 24.9247 57.7496 24.5927C57.0399 23.8831 57.0568 22.9788 57.3093 22.3693C57.5618 21.7598 58.1892 21.1084 59.1929 21.1084C60.1623 21.1084 60.9511 20.3196 60.9511 19.3501V16.7026C60.9511 15.7332 60.1623 14.9444 59.1929 14.9444C58.1892 14.9444 57.5618 14.2932 57.3093 13.6835C57.0568 13.074 57.0399 12.1697 57.7496 11.4601C58.0817 11.128 58.2645 10.6864 58.2645 10.2168C58.2645 9.74709 58.0817 9.30542 57.7496 8.97356L55.8775 7.10139C55.5454 6.76928 55.1039 6.58646 54.6343 6.58646C54.1647 6.58646 53.723 6.76928 53.391 7.10139C52.6814 7.81105 51.7772 7.7943 51.1676 7.54166C50.5579 7.28915 49.9067 6.66175 49.9067 5.65806C49.9067 4.68852 49.1179 3.89976 48.1485 3.89976H45.501C44.5316 3.89976 43.7429 4.68852 43.7429 5.65806C43.7429 6.66175 43.0916 7.28915 42.482 7.54166C41.8725 7.79404 40.9682 7.81105 40.2584 7.10126C39.5728 6.41584 38.4573 6.41584 37.7719 7.10126L35.8998 8.97331C35.6413 9.23166 35.4747 9.55679 35.4128 9.90959H26.1475L21.5196 5.28164C21.8113 4.77764 21.9793 4.1934 21.9793 3.57031C21.9793 1.68023 20.4416 0.142578 18.5515 0.142578C16.6615 0.142578 15.1238 1.68023 15.1238 3.57031C15.1238 5.46039 16.6615 6.99805 18.5515 6.99805C19.1745 6.99805 19.7587 6.83009 20.2627 6.53848L25.1511 11.4268C25.3176 11.5935 25.5437 11.6871 25.7795 11.6871H36.0958C36.6016 12.3546 36.5663 13.1372 36.34 13.6837C36.0875 14.2933 35.46 14.9446 34.4564 14.9446C33.4869 14.9446 32.6982 15.7333 32.6982 16.7027V17.1378H25.6876C25.295 15.6773 23.9601 14.5987 22.3774 14.5987C20.4873 14.5987 18.9497 16.1364 18.9497 18.0265C18.9497 19.9165 20.4873 21.4542 22.3774 21.4542C23.9601 21.4542 25.295 20.3756 25.6876 18.9151H32.6982V19.3502C32.6982 20.3197 33.4869 21.1085 34.4564 21.1085C35.46 21.1085 36.0875 21.7598 36.34 22.3694C36.5662 22.9157 36.6015 23.6983 36.0958 24.3659L25.7795 24.3657ZM18.5515 34.1329C17.6415 34.1329 16.9012 33.3925 16.9012 32.4825C16.9012 31.5725 17.6415 30.8321 18.5515 30.8321C19.4615 30.8321 20.2019 31.5725 20.2019 32.4825C20.2018 33.3925 19.4615 34.1329 18.5515 34.1329ZM18.5515 5.2207C17.6415 5.2207 16.9012 4.48031 16.9012 3.57031C16.9012 2.66031 17.6415 1.91992 18.5515 1.91992C19.4615 1.91992 20.2019 2.66031 20.2019 3.57031C20.2019 4.48031 19.4615 5.2207 18.5515 5.2207ZM22.3774 19.6769C21.4674 19.6769 20.727 18.9365 20.727 18.0265C20.727 17.1165 21.4674 16.3761 22.3774 16.3761C23.2874 16.3761 24.0278 17.1165 24.0278 18.0265C24.0278 18.9365 23.2874 19.6769 22.3774 19.6769ZM34.4755 19.3312V16.7218C36.0395 16.7144 37.382 15.8123 37.9821 14.3637C38.5822 12.9151 38.2707 11.3279 37.17 10.2168L39.0152 8.37155C40.1263 9.47236 41.7135 9.78365 43.1622 9.18367C44.6108 8.58356 45.513 7.24116 45.5202 5.6771H48.1295C48.1367 7.24116 49.0388 8.58369 50.4875 9.18367C51.936 9.78365 53.5233 9.47236 54.6344 8.37155L56.4797 10.2168C55.3789 11.3279 55.0675 12.915 55.6676 14.3637C56.2675 15.8124 57.6101 16.7145 59.174 16.7218V19.3312C57.6101 19.3385 56.2675 20.2407 55.6676 21.6892C55.0675 23.1378 55.3789 24.7249 56.4797 25.8361L54.6345 27.6814C53.5234 26.5806 51.9363 26.2691 50.4875 26.8693C49.0388 27.4694 48.1367 28.8116 48.1295 30.3758H45.5202C45.513 28.8102 44.6112 27.4671 43.1631 26.8672C41.7149 26.2674 40.1274 26.5795 39.0152 27.6815L37.17 25.8362C38.2708 24.7251 38.5822 23.138 37.9821 21.6893C37.3821 20.2407 36.0396 19.3385 34.4755 19.3312ZM46.8246 25.3843C50.8818 25.3843 54.1825 22.0836 54.1825 18.0265C54.1825 13.9693 50.8817 10.6686 46.8246 10.6686C42.7676 10.6686 39.4668 13.9693 39.4668 18.0265C39.4668 22.0836 42.7676 25.3843 46.8246 25.3843ZM46.8246 12.4461C49.9017 12.4461 52.4051 14.9495 52.4051 18.0266C52.4051 21.1037 49.9017 23.6071 46.8246 23.6071C43.7475 23.6071 41.2442 21.1037 41.2442 18.0266C41.2442 14.9495 43.7477 12.4461 46.8246 12.4461ZM62.4404 46.7817C61.5676 45.2701 59.6276 44.7505 58.1158 45.623L45.1037 53.1354L34.2904 49.3671C34.4227 49.2143 34.547 49.0544 34.6609 48.8869L41.3937 47.9055C43.2866 47.6298 44.6087 46.2588 44.6087 44.5716C44.6087 42.7282 43.109 41.2285 41.2656 41.2285H32.4104C31.786 40.9608 31.099 40.812 30.3776 40.812C29.6008 40.812 28.8641 40.9852 28.2021 41.2932L28.2018 41.2924L15.4814 46.3905H9.33132V44.1814C9.33132 43.6905 8.93345 43.2927 8.44265 43.2927H1.03125C0.540449 43.2927 0.142578 43.6905 0.142578 44.1814V61.9688C0.142578 62.4595 0.540449 62.8574 1.03125 62.8574H8.44265C8.93345 62.8574 9.33132 62.4595 9.33132 61.9688V59.7722C12.1074 59.8452 15.6317 60.2336 19.3444 60.6435C24.3476 61.196 29.9973 61.8198 35.1378 61.8197C35.3061 61.8197 35.4736 61.8191 35.6407 61.8177C41.8102 61.7674 46.2148 60.7709 49.1047 58.7714L61.3107 51.0886C62.7979 50.1526 63.2941 48.2607 62.4404 46.7817ZM45.489 56.4543L46.4768 58.2211C45.965 58.4567 45.4218 58.6657 44.8495 58.8495L45.489 56.4543ZM42.8313 44.5716C42.8313 45.4892 41.9806 46.0238 41.1374 46.1467L35.4566 46.9747C35.5188 46.6546 35.5523 46.3244 35.5523 45.9865C35.5523 44.8772 35.2003 43.8491 34.6036 43.0058H41.2656C42.1289 43.0059 42.8313 43.7083 42.8313 44.5716ZM33.775 45.9866C33.775 47.8599 32.2511 49.384 30.3777 49.384C28.5044 49.384 26.9803 47.8599 26.9803 45.9866C26.9803 44.1133 28.5044 42.5894 30.3777 42.5894C32.2511 42.5894 33.775 44.1133 33.775 45.9866ZM15.5179 53.0751C15.5179 55.7809 13.3165 57.9823 10.6106 57.9823C7.90475 57.9823 5.70338 55.7809 5.70338 53.0751C5.70338 50.3692 7.90475 48.1678 10.6106 48.1678C13.3165 48.1678 15.5179 50.3692 15.5179 53.0751ZM1.91992 61.0801V45.07H7.55397V47.1334C5.40174 48.2451 3.92616 50.4903 3.92616 53.0751C3.92616 55.6598 5.40187 57.905 7.55397 59.0168V61.0801H1.91992ZM19.5394 58.8769C17.8708 58.6927 16.2409 58.5131 14.6924 58.3633C16.274 57.1397 17.2952 55.2249 17.2952 53.0751C17.2952 51.1371 16.4655 49.3899 15.1435 48.1678H15.6531C15.7663 48.1678 15.8785 48.1461 15.9837 48.1041L25.4885 44.2947C25.3043 44.8254 25.2029 45.3943 25.2029 45.9867C25.2029 48.8401 27.5242 51.1615 30.3776 51.1615C31.1721 51.1615 31.925 50.9811 32.5984 50.6598L44.1241 54.6763L42.8717 59.367C36.3594 60.7336 27.2337 59.7265 19.5394 58.8769ZM60.3639 49.5846L48.1414 57.2778C48.1301 57.2849 48.1188 57.2924 48.1078 57.3C48.0816 57.3182 48.0543 57.3355 48.028 57.3534L46.3991 54.4399L59.0045 47.1622C59.6675 46.7793 60.5184 47.0073 60.9012 47.6704C61.2753 48.3185 61.0393 49.1594 60.3639 49.5846ZM29.211 45.9867C29.211 45.3441 29.7351 44.82 30.3777 44.82C31.0204 44.82 31.5443 45.3441 31.5443 45.9867C31.5443 46.6294 31.0202 47.1534 30.3777 47.1534C29.7351 47.1533 29.211 46.6293 29.211 45.9867ZM9.44405 53.0751C9.44405 52.4324 9.96812 51.9084 10.6108 51.9084C11.2533 51.9084 11.7775 52.4324 11.7775 53.0751C11.7775 53.7177 11.2534 54.2417 10.6108 54.2417C9.96812 54.2417 9.44405 53.7177 9.44405 53.0751Z" fill="currentColor"></path></svg>