<svg xmlns="http://www.w3.org/2000/svg" width="85" height="85" viewBox="0 0 85 85" fill="none"><g clip-path="url(#clip0_131_1822)"><path d="M9.96094 2.49023H14.9414V12.4512H9.96094V2.49023Z" fill="#5A5A5A"></path><path d="M24.9023 2.49023H29.8828V12.4512H24.9023V2.49023Z" fill="#444444"></path><path d="M14.2118 40.5733L4.98047 31.3419V25.3816L7.16396 19.9219L9.44214 14.9414L1.80023 19.9219L0.177689 23.9782C0.060959 24.2727 0 24.5865 0 24.9023V32.373C0 33.0345 0.262642 33.6668 0.729561 34.1337L10.6905 44.0947C11.6632 45.0674 13.2391 45.0674 14.2118 44.0947C15.1846 43.1219 15.1846 41.5461 14.2118 40.5733Z" fill="#5A5A5A"></path><path d="M39.6661 23.9782L38.0435 19.9219L30.7129 14.9414L34.8633 25.3816V31.3419L25.6319 40.5733C24.6592 41.5461 24.6592 43.1219 25.6319 44.0947C26.1183 44.581 26.7558 44.8242 27.3926 44.8242C28.0294 44.8242 28.6669 44.581 29.1533 44.0947L39.1142 34.1337C39.5811 33.6668 39.8438 33.0345 39.8438 32.373V24.9023C39.8438 24.5865 39.7828 24.2727 39.6661 23.9782Z" fill="#444444"></path><path d="M77.5293 44.8242H62.5879C61.193 44.8242 60.0977 45.9195 60.0977 47.3145V62.5879C60.0977 63.9822 61.193 65.0781 62.5879 65.0781H77.5293C78.9242 65.0781 80.0195 63.9822 80.0195 62.5879V47.3145C80.0195 45.9195 78.9242 44.8242 77.5293 44.8242Z" fill="#FDBF00"></path><path d="M80.0195 47.3145V62.5879C80.0195 63.9822 78.9242 65.0781 77.5293 65.0781H70.0586V44.8242H77.5293C78.9242 44.8242 80.0195 45.9195 80.0195 47.3145Z" fill="#FF9F00"></path><path d="M52.2949 44.8242H37.3535C35.9586 44.8242 34.8633 45.9195 34.8633 47.3145V62.5879C34.8633 63.9822 35.9586 65.0781 37.3535 65.0781H52.2949C53.6898 65.0781 54.7852 63.9822 54.7852 62.5879V47.3145C54.7852 45.9195 53.6898 44.8242 52.2949 44.8242Z" fill="#FDBF00"></path><path d="M54.7852 47.3145V62.5879C54.7852 63.9822 53.6898 65.0781 52.2949 65.0781H42.334V44.8242H52.2949C53.6898 44.8242 54.7852 45.9195 54.7852 47.3145Z" fill="#FF9F00"></path><path d="M85 2.49023C85 3.88451 83.9047 4.98047 82.5098 4.98047H2.49023C1.09531 4.98047 0 3.88451 0 2.49023C0 1.09531 1.09531 0 2.49023 0H82.5098C83.9047 0 85 1.09531 85 2.49023Z" fill="#6E6E6E"></path><path d="M12.4512 60.0977H72.5488V85H12.4512V60.0977Z" fill="#5A5A5A"></path><path d="M42.334 60.0977H72.5488V85H42.334V60.0977Z" fill="#444444"></path><path d="M14.9414 65.0781H70.0586V80.0195H14.9414V65.0781Z" fill="#D3D3D8"></path><path d="M42.334 65.0781H70.0586V80.0195H42.334V65.0781Z" fill="#BABAC0"></path><path d="M42.334 60.0977C35.4612 60.0977 29.8828 65.676 29.8828 72.5488C29.8828 79.4216 35.4612 85 42.334 85C49.2068 85 54.7852 79.4216 54.7852 72.5488C54.7852 65.676 49.2068 60.0977 42.334 60.0977Z" fill="#5A5A5A"></path><path d="M54.7852 72.5488C54.7852 79.4216 49.2068 85 42.334 85V60.0977C49.2068 60.0977 54.7852 65.676 54.7852 72.5488Z" fill="#444444"></path><path d="M42.334 65.0781C38.1998 65.0781 34.8633 68.4146 34.8633 72.5488C34.8633 76.6824 38.1998 80.0195 42.334 80.0195C46.4682 80.0195 49.8047 76.6824 49.8047 72.5488C49.8047 68.4146 46.4682 65.0781 42.334 65.0781Z" fill="#ECECF1"></path><path d="M49.8047 72.5488C49.8047 76.6824 46.4682 80.0195 42.334 80.0195V65.0781C46.4682 65.0781 49.8047 68.4146 49.8047 72.5488Z" fill="#E2E2E7"></path><path d="M12.4512 85C5.58617 85 0 79.4138 0 72.5488C0 65.6838 5.58617 60.0977 12.4512 60.0977C19.3162 60.0977 24.9023 65.6838 24.9023 72.5488C24.9023 79.4138 19.3162 85 12.4512 85Z" fill="#5A5A5A"></path><path d="M12.4512 65.0781C8.33191 65.0781 4.98047 68.4296 4.98047 72.5488C4.98047 76.6681 8.33191 80.0195 12.4512 80.0195C16.5704 80.0195 19.9219 76.6681 19.9219 72.5488C19.9219 68.4296 16.5704 65.0781 12.4512 65.0781Z" fill="#ECECF1"></path><path d="M72.5488 85C65.6838 85 60.0977 79.4138 60.0977 72.5488C60.0977 65.6838 65.6838 60.0977 72.5488 60.0977C79.4138 60.0977 85 65.6838 85 72.5488C85 79.4138 79.4138 85 72.5488 85Z" fill="#444444"></path><path d="M72.5488 65.0781C68.4296 65.0781 65.0781 68.4296 65.0781 72.5488C65.0781 76.6681 68.4296 80.0195 72.5488 80.0195C76.6681 80.0195 80.0195 76.6681 80.0195 72.5488C80.0195 68.4296 76.6681 65.0781 72.5488 65.0781Z" fill="#E2E2E7"></path><path d="M75.0391 72.5488C75.0391 73.9243 73.9243 75.0391 72.5488 75.0391C71.1734 75.0391 70.0586 73.9243 70.0586 72.5488C70.0586 71.1734 71.1734 70.0586 72.5488 70.0586C73.9243 70.0586 75.0391 71.1734 75.0391 72.5488Z" fill="#444444"></path><path d="M14.9414 72.5488C14.9414 73.9243 13.8266 75.0391 12.4512 75.0391C11.0757 75.0391 9.96094 73.9243 9.96094 72.5488C9.96094 71.1734 11.0757 70.0586 12.4512 70.0586C13.8266 70.0586 14.9414 71.1734 14.9414 72.5488Z" fill="#5A5A5A"></path><path d="M44.8242 72.5488C44.8242 73.9431 43.7289 75.0391 42.334 75.0391C40.9391 75.0391 39.8438 73.9431 39.8438 72.5488C39.8438 71.1539 40.9391 70.0586 42.334 70.0586C43.7289 70.0586 44.8242 71.1539 44.8242 72.5488Z" fill="#5A5A5A"></path><path d="M44.8242 72.5488C44.8242 73.9431 43.7289 75.0391 42.334 75.0391V70.0586C43.7289 70.0586 44.8242 71.1539 44.8242 72.5488Z" fill="#444444"></path><path d="M27.3926 29.8828H12.4512C11.0563 29.8828 9.96094 30.9781 9.96094 32.373V47.3145C9.96094 48.7087 11.0563 49.8047 12.4512 49.8047H27.3926C28.7875 49.8047 29.8828 48.7087 29.8828 47.3145V32.373C29.8828 30.9781 28.7875 29.8828 27.3926 29.8828Z" fill="#FDBF00"></path><path d="M29.8828 32.373V47.3145C29.8828 48.7087 28.7875 49.8047 27.3926 49.8047H19.9219V29.8828H27.3926C28.7875 29.8828 29.8828 30.9781 29.8828 32.373Z" fill="#FF9F00"></path><path d="M85 2.49023C85 3.88451 83.9047 4.98047 82.5098 4.98047H19.9219V0H82.5098C83.9047 0 85 1.09531 85 2.49023Z" fill="#5A5A5A"></path><path d="M38.0505 19.9219H1.79297L5.17943 11.505C5.52832 10.5589 6.47448 9.96094 7.47057 9.96094H32.3729C33.369 9.96094 34.3152 10.5589 34.6641 11.505L38.0505 19.9219Z" fill="#FF7816"></path><path d="M38.0507 19.9219H19.9219V9.96094H32.373C33.3691 9.96094 34.3153 10.5589 34.6642 11.505L38.0507 19.9219Z" fill="#DD3400"></path></g><defs><clipPath id="clip0_131_1822"><rect width="85" height="85" fill="white"></rect></clipPath></defs></svg>