<svg xmlns="http://www.w3.org/2000/svg" width="85" height="85" viewBox="0 0 85 85" fill="none"><g clip-path="url(#clip0_132_1853)"><path d="M79.334 85V82.1667L73.6673 76.5V70.8333L68.0007 65.1667H63.7507L58.084 59.5H53.834L51.0007 62.3333H46.7507L41.084 68V85" fill="#F8CF6A"></path><path d="M79.334 85V82.1667L73.6673 76.5V70.8333L68.0007 65.1667H63.7507L58.084 59.5H53.834L51.0007 62.3333H46.7507L41.084 68V85" fill="#EEBC5A"></path><path d="M76.5007 84.9999L70.834 79.3333V73.6666L65.1673 67.9999H60.9173L55.2507 62.3333H51.0007L48.1673 65.1666H43.9173L41.084 67.9999V84.9999H76.5007Z" fill="#F8CF6A"></path><path d="M48.1667 85V82.1667L45.3333 79.3333V72.25L41.0833 68H38.25L34 63.75H29.75L25.5 59.5H19.8333L14.1667 65.1667V70.8333L11.3333 73.6667H7.08333L0 80.75V85" fill="#EEBC5A"></path><path d="M4.25 76.4999L0 80.7499V84.9999H42.5L39.6667 82.1666V75.0833L35.4167 70.8333H32.5833L28.3333 66.5833H24.0833L19.8333 62.3333H17L14.1667 65.1666V70.8333L11.3333 73.6666H8.5L5.66667 76.4999H4.25Z" fill="#F8CF6A"></path><path d="M32.5833 58.0833L29.75 53.8333L34 49.5833L36.8333 52.4166L35.4167 58.0833H32.5833Z" fill="#EEBC5A"></path><path d="M41.0833 41.0833H45.3333L48.1667 45.3333L45.3333 49.5833H42.5L38.25 43.9166L41.0833 41.0833Z" fill="#EEBC5A"></path><path d="M7.08333 59.5L4.25 55.25H1.41667L0 58.0833V62.3333L5.66667 63.75L7.08333 59.5Z" fill="#EEBC5A"></path><path d="M82.1673 5.66667C79.0379 5.66667 76.5007 3.12939 76.5007 0C76.5007 3.12939 73.9634 5.66667 70.834 5.66667C73.9634 5.66667 76.5007 8.20394 76.5007 11.3333C76.5007 8.20394 79.0379 5.66667 82.1673 5.66667Z" fill="#EEBC5A"></path><path d="M70.8333 14.1667C67.7039 14.1667 65.1667 11.6294 65.1667 8.5C65.1667 11.6294 62.6294 14.1667 59.5 14.1667C62.6294 14.1667 65.1667 16.7039 65.1667 19.8333C65.1667 16.7039 67.7039 14.1667 70.8333 14.1667Z" fill="#EEBC5A"></path><path d="M8.5 26.9167H4.25C1.90226 26.9167 0 28.819 0 31.1667C0 33.5145 1.90226 35.4167 4.25 35.4167H8.5" fill="#BC8F6F"></path><path d="M0.261719 32.5833C0.846924 34.231 2.40332 35.4167 4.25094 35.4167H8.50094V29.75H4.25094C2.40332 29.75 0.846924 30.9356 0.261719 32.5833Z" fill="#CB9E78"></path><path d="M19.834 38.25V62.3333L19.6327 62.132C14.3188 56.8182 11.334 49.6117 11.334 42.0974V38.25" fill="#656665"></path><path d="M11.334 42.0973C11.334 48.2475 13.3615 54.1736 17.0007 59.0406V41.0833H11.334V42.0973Z" fill="#999999"></path><path d="M19.834 24.0833V0L19.6327 0.201294C14.3188 5.51518 11.334 12.7216 11.334 20.2359V24.0833" fill="#656665"></path><path d="M11.334 20.236V24.0834H17.0007V3.29272C13.3615 8.16182 11.334 14.0858 11.334 20.236Z" fill="#999999"></path><path d="M8.5 24.0833H22.6667V38.2499H8.5V24.0833Z" fill="#656665"></path><path d="M8.5 26.9167H18.4167V38.2501H8.5V26.9167Z" fill="#999999"></path><path d="M76.4993 38.2499H82.166C83.7314 38.2499 84.9993 36.982 84.9993 35.4166V26.9166C84.9993 25.3512 83.7314 24.0833 82.166 24.0833H76.4993C74.934 24.0833 73.666 25.3512 73.666 26.9166V35.4166C73.666 36.982 74.934 38.2499 76.4993 38.2499Z" fill="#656665"></path><path d="M73.666 26.9167V35.4167C73.666 36.9821 74.934 38.2501 76.4993 38.2501H82.166V26.9167H73.666Z" fill="#999999"></path><path d="M73.666 26.9167H22.666V35.4167H73.666" fill="#BC8F6F"></path><path d="M69.416 29.75H22.666V35.4167H69.416" fill="#CB9E78"></path><path d="M38.6644 81.7516L36.2461 79.3333H33.9993C33.6224 79.3333 33.2627 79.1846 32.9977 78.9183L30.1644 76.085C29.8981 75.82 29.7493 75.4589 29.7493 75.0833V72.8366L27.7461 70.8333H22.666V68H28.3327C28.7097 68 29.0694 68.1487 29.3343 68.415L32.1676 71.2484C32.434 71.5133 32.5827 71.8744 32.5827 72.25V74.4967L34.5859 76.5H36.8327C37.2097 76.5 37.5694 76.6487 37.8343 76.915L40.6676 79.7484L38.6644 81.7516Z" fill="#EEBC5A"></path><path d="M69.8324 84.5849L67.4141 82.1666H65.1673C64.7903 82.1666 64.4306 82.0179 64.1657 81.7515L61.3324 78.9182C61.066 78.6533 60.9173 78.2922 60.9173 77.9166V75.6698L58.9141 73.6666H53.834V70.8333H59.5007C59.8776 70.8333 60.2373 70.982 60.5023 71.2483L63.3356 74.0816C63.6019 74.3466 63.7507 74.7076 63.7507 75.0833V77.33L65.7539 79.3333H68.0007C68.3776 79.3333 68.7373 79.482 69.0023 79.7483L71.8356 82.5816L69.8324 84.5849Z" fill="#EEBC5A"></path><path d="M12.3353 84.585L10.332 82.5817L13.1654 79.7484C13.4303 79.4821 13.79 79.3333 14.167 79.3333H16.4137L18.832 76.915C19.097 76.6487 19.4567 76.5 19.8337 76.5H22.667V79.3333H20.4202L18.002 81.7516C17.737 82.0179 17.3773 82.1667 17.0003 82.1667H14.7536L12.3353 84.585Z" fill="#EEBC5A"></path></g><defs><clipPath id="clip0_132_1853"><rect width="85" height="85" fill="white"></rect></clipPath></defs></svg>