<svg xmlns="http://www.w3.org/2000/svg" width="55" height="55" viewBox="0 0 55 55" fill="none"><g clip-path="url(#clip0_40_4210)"><path d="M20 13.75C20.6903 13.75 21.2499 13.1904 21.2499 12.5001C21.2499 11.8097 20.6903 11.2501 20 11.2501C19.3096 11.2501 18.75 11.8097 18.75 12.5001C18.75 13.1904 19.3096 13.75 20 13.75Z" fill="currentColor"></path><path d="M15 13.75C15.6903 13.75 16.2499 13.1904 16.2499 12.5001C16.2499 11.8097 15.6903 11.2501 15 11.2501C14.3096 11.2501 13.75 11.8097 13.75 12.5001C13.75 13.1904 14.3096 13.75 15 13.75Z" fill="currentColor"></path><path d="M25 13.75C25.6903 13.75 26.2499 13.1904 26.2499 12.5001C26.2499 11.8097 25.6903 11.2501 25 11.2501C24.3096 11.2501 23.75 11.8097 23.75 12.5001C23.75 13.1904 24.3096 13.75 25 13.75Z" fill="currentColor"></path><path d="M30 5H9.99996C9.24994 5 8.75 5.50005 8.75 6.24996V18.75C8.75 19.5 9.25005 20 9.99996 20H30C30.75 20 31.2499 19.4999 31.2499 18.75V6.25007C31.2499 5.50005 30.75 5 30 5ZM28.7499 17.5H11.2499V7.50003H28.7499V17.5Z" fill="currentColor"></path><path d="M23.625 32C23.375 31.5 23 31.25 22.5 31.25H20L22.2499 28.25C22.6249 27.75 22.4999 26.875 21.9999 26.5C21.5 26.125 20.6249 26.2501 20.2499 26.75L16.5 31.7501C16.2501 32.1251 16.125 32.625 16.375 33C16.625 33.375 17 33.75 17.5 33.75H20.0001L17.7501 36.75C17.3751 37.2499 17.5001 38.125 18.0001 38.5C18.2501 38.6251 18.5001 38.75 18.7501 38.75C19.1251 38.75 19.5001 38.6249 19.7501 38.2499L23.5001 33.25C23.7501 32.875 23.8751 32.375 23.625 32Z" fill="currentColor"></path><path d="M53.75 8.75005V6.25002C53.75 5.5 53.25 5.00006 52.5001 5.00006C51.7502 5.00006 51.2501 5.50011 51.2501 6.25002V8.75005H48.7501V6.25002C48.7501 5.5 48.25 5.00006 47.5001 5.00006C46.7502 5.00006 46.2502 5.50011 46.2502 6.25002V8.75005C45.5001 8.75005 45.0002 9.2501 45.0002 10V12.5C45.0002 13.2501 45.5003 13.75 46.2502 13.75C47.0001 13.75 47.5001 13.25 47.5001 12.5V11.2501H52.5001V12.5C52.5001 13.875 51.375 15.0001 50 15.0001C49.25 15.0001 48.7501 15.5001 48.7501 16.25V45C48.7501 46.375 47.6251 47.5 46.2501 47.5C44.8751 47.5 43.75 46.375 43.75 45V23.75C43.75 20.25 41 17.5 37.5 17.5H36.25V6.25002C36.25 2.75 33.5 0 30 0H10C6.49999 0 3.74999 2.75 3.74999 6.25002V47.5C1.62497 47.5 0 49.125 0 51.25C0 53.375 1.62497 55 3.74999 55H36.2499C38.375 55 39.9999 53.375 39.9999 51.25C39.9999 49.125 38.375 47.5 36.2499 47.5H10C9.24999 47.5 8.75005 48.0001 8.75005 48.75C8.75005 49.4999 9.2501 49.9999 10 49.9999H36.25C37.0001 49.9999 37.5 50.5 37.5 51.2499C37.5 51.9998 37 52.4999 36.25 52.4999H3.74999C2.99997 52.4999 2.50003 51.9998 2.50003 51.2499C2.50003 50.5 3.00008 49.9999 3.74999 49.9999H4.99995C5.74997 49.9999 6.24991 49.4999 6.24991 48.75V6.25002C6.24991 4.125 7.87488 2.50003 9.9999 2.50003H29.9999C32.1249 2.50003 33.7499 4.125 33.7499 6.25002V43.75C33.7499 44.5 34.25 45 34.9999 45C35.7498 45 36.2498 44.4999 36.2498 43.75V20H37.4998C39.6248 20 41.2498 21.625 41.2498 23.75V45C41.2498 47.75 43.4997 49.9999 46.2497 49.9999C48.9997 49.9999 51.2497 47.75 51.2497 45V17.375C53.375 16.875 55 14.875 55 12.5V10C55 9.24999 54.5 8.75005 53.75 8.75005Z" fill="currentColor"></path></g><defs><clipPath id="clip0_40_4210"><rect width="55" height="55" fill="white"></rect></clipPath></defs></svg>