<svg xmlns="http://www.w3.org/2000/svg" width="45" height="45" viewBox="0 0 45 45" fill="none"><g clip-path="url(#clip0_127_1102)"><path d="M4.21875 37.9688C4.60708 37.9688 4.92188 37.654 4.92188 37.2656C4.92188 36.8773 4.60708 36.5625 4.21875 36.5625C3.83042 36.5625 3.51562 36.8773 3.51562 37.2656C3.51562 37.654 3.83042 37.9688 4.21875 37.9688Z" fill="currentColor"></path><path d="M14.0625 21.0938H15.4688V22.5H14.0625V21.0938Z" fill="currentColor"></path><path d="M19.6875 21.0938H21.0938V22.5H19.6875V21.0938Z" fill="currentColor"></path><path d="M16.875 21.0938H18.2812V22.5H16.875V21.0938Z" fill="currentColor"></path><path d="M14.0625 23.9062H15.4688V25.3125H14.0625V23.9062Z" fill="currentColor"></path><path d="M16.875 23.9062H18.2812V25.3125H16.875V23.9062Z" fill="currentColor"></path><path d="M19.6875 23.9062H21.0938V25.3125H19.6875V23.9062Z" fill="currentColor"></path><path d="M14.0625 26.7188H15.4688V28.125H14.0625V26.7188Z" fill="currentColor"></path><path d="M19.6875 26.7188H21.0938V28.125H19.6875V26.7188Z" fill="currentColor"></path><path d="M16.875 26.7188H18.2812V28.125H16.875V26.7188Z" fill="currentColor"></path><path d="M14.0625 29.5312H15.4688V30.9375H14.0625V29.5312Z" fill="currentColor"></path><path d="M19.6875 29.5312H21.0938V30.9375H19.6875V29.5312Z" fill="currentColor"></path><path d="M16.875 29.5312H18.2812V30.9375H16.875V29.5312Z" fill="currentColor"></path><path d="M44.2969 35.8594V32.7987L44.1415 32.606C42.9096 31.0767 40.9676 30.2344 38.6719 30.2344C38.3991 30.2344 38.1305 30.2569 37.864 30.2878C39.0691 28.421 39.9171 26.3805 40.3777 24.2044L42.1875 23.7523V17.029L40.3777 16.5762C39.9129 14.3824 39.0607 12.3237 37.8394 10.4442L38.7977 8.84531L34.0446 4.09148L32.4457 5.05125C30.567 3.82922 28.5082 2.97703 26.3137 2.51227L25.8616 0.703125H19.1377L18.6855 2.51297C16.4911 2.97773 14.4323 3.82992 12.5536 5.05195L10.9554 4.09219L6.20227 8.84602L7.16062 10.4449C5.9393 12.3244 5.08711 14.3831 4.62234 16.5769L2.8125 17.029V23.7523L4.62234 24.2044C5.08641 26.3981 5.9393 28.4569 7.16062 30.3363L6.20227 31.9352L8.01703 33.75H4.21875C2.28023 33.75 0.703125 35.3271 0.703125 37.2656C0.703125 39.2041 2.28023 40.7812 4.21875 40.7812H32.5891C33.8456 42.9609 36.1378 44.2969 38.6719 44.2969C40.9634 44.2969 42.9054 43.4552 44.1408 41.9266L44.2969 41.7333V38.6719H38.6719V35.8594H44.2969ZM7.97273 31.7166L8.82844 30.2906L8.57391 29.9187C7.24219 27.9759 6.34852 25.8173 5.9168 23.5012L5.83383 23.0576L4.21875 22.654V18.1273L5.83312 17.7237L5.91609 17.28C6.34781 14.9639 7.24219 12.8053 8.5732 10.8633L8.82773 10.4913L7.97203 9.06539L11.1734 5.86406L12.5993 6.71977L12.9712 6.46453C14.9133 5.13281 17.0719 4.23914 19.3887 3.80742L19.8323 3.72445L20.2366 2.10938H24.7634L25.167 3.72375L25.6106 3.80672C27.9274 4.23844 30.086 5.13211 32.028 6.46383L32.4 6.71906L33.8259 5.86336L37.0273 9.06469L36.1716 10.4906L36.4261 10.8626C37.7578 12.8046 38.6515 14.9639 39.0832 17.2793L39.1662 17.723L40.7812 18.1273V22.654L39.1669 23.0576L39.0839 23.5012C38.655 25.8033 37.7684 27.9513 36.45 29.8849L35.4544 31.0247C34.2788 31.6315 33.2761 32.5589 32.5891 33.75H30.2955C34.9854 31.0247 37.9688 25.998 37.9688 20.3906C37.9688 11.861 31.0296 4.92188 22.5 4.92188C13.9704 4.92188 7.03125 11.861 7.03125 20.3906C7.03125 26.0107 10.0069 31.0275 14.6953 33.75H10.0055L7.97273 31.7166ZM18.1188 33.75C16.0144 33.0616 14.1616 31.9226 12.6562 30.453V19.6875H22.5V33.75H18.1188ZM23.9062 23.9062H32.3438V25.3125H23.9062V23.9062ZM27.2032 15.4688H29.0461L29.4855 22.5H26.7638L27.2032 15.4688ZM27.2911 14.0625L27.379 12.6562H28.8703L28.9582 14.0625H27.2911ZM30.8946 22.5L30.1915 11.25H26.0578L25.3547 22.5H23.9062V18.2812H21.0938V15.4688H19.6875V18.2812H18.2812V14.0625H16.875V18.2812H15.4688V15.4688H14.0625V18.2812H11.25V28.8499C9.46617 26.4762 8.4375 23.5378 8.4375 20.3906C8.4375 12.6366 14.7459 6.32812 22.5 6.32812C30.2541 6.32812 36.5625 12.6366 36.5625 20.3906C36.5625 23.528 35.5324 26.4642 33.75 28.8394V22.5H30.8946ZM23.9062 26.7188H32.3438V30.4439C31.9036 30.8742 31.4339 31.275 30.9375 31.6462V28.125H25.3125V33.75H23.9062V26.7188ZM26.7188 29.5312H29.5312V32.5666C28.7051 33.042 27.8255 33.4434 26.8917 33.75H26.7188V29.5312ZM42.8906 40.0781V41.2263C41.6623 42.596 39.9319 42.8906 38.6719 42.8906C36.5266 42.8906 34.598 41.6932 33.6389 39.7652L33.4441 39.375H4.21875C3.05578 39.375 2.10938 38.4286 2.10938 37.2656C2.10938 36.1027 3.05578 35.1562 4.21875 35.1562H17.8791C17.8861 35.1584 17.8931 35.1619 17.9002 35.164L17.9023 35.1562H33.4441L33.6382 34.766C34.598 32.838 36.5266 31.6406 38.6719 31.6406C39.9347 31.6406 41.6665 31.9352 42.8906 33.3042V34.4531H37.2656V40.0781H42.8906Z" fill="currentColor"></path></g><defs><clipPath id="clip0_127_1102"><rect width="45" height="45" fill="white"></rect></clipPath></defs></svg>