<svg xmlns="http://www.w3.org/2000/svg" width="55" height="55" viewBox="0 0 55 55" fill="none"><g clip-path="url(#clip0_40_4194)"><path d="M23.2031 33.5156C18.938 33.5156 15.4688 36.9858 15.4688 41.25C15.4688 45.5142 18.938 48.9844 23.2031 48.9844C27.4682 48.9844 30.9375 45.5142 30.9375 41.25C30.9375 36.9858 27.4682 33.5156 23.2031 33.5156ZM23.2031 47.2656C19.8868 47.2656 17.1875 44.5672 17.1875 41.25C17.1875 37.9328 19.8868 35.2344 23.2031 35.2344C26.5195 35.2344 29.2188 37.9328 29.2188 41.25C29.2188 44.5672 26.5195 47.2656 23.2031 47.2656Z" fill="currentColor"></path><path d="M23.2031 36.9531C20.8338 36.9531 18.9062 38.8807 18.9062 41.25C18.9062 43.6193 20.8338 45.5469 23.2031 45.5469C25.5724 45.5469 27.5 43.6193 27.5 41.25C27.5 38.8807 25.5724 36.9531 23.2031 36.9531ZM23.2031 43.8281C21.7817 43.8281 20.625 42.6714 20.625 41.25C20.625 39.8286 21.7817 38.6719 23.2031 38.6719C24.6245 38.6719 25.7812 39.8286 25.7812 41.25C25.7812 42.6714 24.6245 43.8281 23.2031 43.8281Z" fill="currentColor"></path><path d="M49.8438 14.6094C48.4455 14.6094 47.2132 15.2909 46.4286 16.3281H42.6413C42.1549 14.9557 41.5302 13.6314 40.761 12.3853L41.8842 10.2859L36.1221 4.52289L34.0218 5.64609C32.1415 4.48336 30.1091 3.64117 27.9684 3.13414L27.2783 0.859375H19.128L18.4387 3.13328C16.298 3.63945 14.2665 4.4825 12.3853 5.64523L10.285 4.52203L4.52289 10.285L5.64609 12.3845C4.48336 14.2656 3.64031 16.298 3.13414 18.4387L0.859375 19.128V27.2783L3.13328 27.9666C3.63945 30.1073 4.4825 32.1398 5.64523 34.0209L4.52203 36.1204L10.3125 41.9117V44.4967L12.7205 45.1095C12.8227 45.3836 12.9379 45.6586 13.0642 45.931L11.7932 48.07L16.384 52.6608L18.523 51.3889C18.7954 51.5152 19.0713 51.6304 19.3445 51.7327L19.9573 54.1406H26.4498L27.0626 51.7327C27.3359 51.6304 27.6117 51.5161 27.8841 51.3889L30.0231 52.6608L34.6139 48.07L33.3429 45.931C33.4692 45.6586 33.5844 45.3836 33.6866 45.1095L36.0938 44.4959V41.6195L41.8928 36.1376L40.761 34.0218C41.9237 32.1406 42.7668 30.1082 43.273 27.9675L45.5469 27.2783V21.4844H46.4286C46.677 21.8127 46.9683 22.104 47.2991 22.3489L42.2873 43.8281H40.3906C38.4948 43.8281 36.9531 45.3698 36.9531 47.2656V54.1406H54.1406V44.6875V43.8281V18.9062C54.1406 16.537 52.213 14.6094 49.8438 14.6094ZM6.63953 35.8076L7.63812 33.9419L7.36055 33.5156C6.07836 31.5494 5.18461 29.3958 4.70422 27.1141L4.59938 26.6166L2.57812 26.003V20.4033L4.59938 19.7905L4.70422 19.293C5.18461 17.0113 6.07836 14.8569 7.36055 12.8915L7.63812 12.4652L6.63953 10.5995L10.5987 6.63953L12.4661 7.63812L12.8915 7.35969C14.8577 6.0775 17.0113 5.18375 19.293 4.70422L19.7905 4.59938L20.4033 2.57812H26.003L26.6157 4.59938L27.1133 4.70422C29.3949 5.18461 31.5485 6.07836 33.5148 7.35969L33.9402 7.63812L35.8076 6.63953L39.7667 10.5995L38.7681 12.4652L39.0457 12.8915C39.7538 13.9769 40.3442 15.1293 40.8143 16.3281H37.052C34.448 11.0928 29.0787 7.73438 23.2031 7.73438C14.6738 7.73438 7.73438 14.6738 7.73438 23.2031C7.73438 27.2499 9.36203 31.1352 12.2005 34.0227L11.7923 34.4309L13.0634 36.5698C12.937 36.8431 12.8219 37.1173 12.7196 37.3923L10.3125 38.0041V39.4814L6.63953 35.8076ZM30.7794 16.3281C30.4236 15.3304 29.4783 14.6094 28.3594 14.6094H27.5V13.75C27.5 12.3286 26.3433 11.1719 24.9219 11.1719H21.4844C20.063 11.1719 18.9062 12.3286 18.9062 13.75V14.6094H18.0469C16.6255 14.6094 15.4688 15.7661 15.4688 17.1875V20.625C15.4688 22.0464 16.6255 23.2031 18.0469 23.2031H18.9062V24.0625C18.9062 25.4839 20.063 26.6406 21.4844 26.6406H24.9219C26.3433 26.6406 27.5 25.4839 27.5 24.0625V23.2031H28.3594C29.4783 23.2031 30.4236 22.4821 30.7794 21.4844H36.8337C36.9041 22.0541 36.9531 22.6282 36.9531 23.2031C36.9531 26.7936 35.5094 30.2423 32.9923 32.8092L30.0231 29.8392L27.8841 31.1111C27.6117 30.9848 27.3359 30.8696 27.0626 30.7673L26.449 28.3594H19.9564L19.3437 30.7673C19.0704 30.8696 18.7945 30.9839 18.5221 31.1111L16.3831 29.8392L13.414 32.8092C10.8969 30.2423 9.45312 26.7936 9.45312 23.2031C9.45312 15.6217 15.6217 9.45312 23.2031 9.45312C28.1342 9.45312 32.6648 12.1146 35.1037 16.3281H30.7794ZM20.625 23.2031H25.7812V24.0625C25.7812 24.536 25.3962 24.9219 24.9219 24.9219H21.4844C21.01 24.9219 20.625 24.536 20.625 24.0625V23.2031ZM18.0469 21.4844C17.5725 21.4844 17.1875 21.0985 17.1875 20.625V17.1875C17.1875 16.714 17.5725 16.3281 18.0469 16.3281H28.3594C28.8337 16.3281 29.2188 16.714 29.2188 17.1875V20.625C29.2188 21.0985 28.8337 21.4844 28.3594 21.4844H18.0469ZM25.7812 14.6094H20.625V13.75C20.625 13.2765 21.01 12.8906 21.4844 12.8906H24.9219C25.3962 12.8906 25.7812 13.2765 25.7812 13.75V14.6094ZM34.375 43.1604L32.352 43.6752L32.2077 44.1289C32.0538 44.6093 31.8502 45.0957 31.6027 45.5752L31.3827 45.9989L32.4534 47.8002L29.7524 50.5012L27.952 49.4304L27.5292 49.6487C27.048 49.897 26.5616 50.0998 26.0803 50.2537L25.6266 50.3989L25.1135 52.4219H21.2936L20.7797 50.3989L20.3259 50.2537C19.8447 50.0998 19.3583 49.897 18.877 49.6487L18.4542 49.4304L16.6538 50.5012L13.9528 47.8002L15.0236 45.9989L14.8036 45.5752C14.5561 45.0957 14.3524 44.6093 14.1986 44.1289L14.0542 43.6752L12.0312 43.1604V39.3405L14.0542 38.8257L14.1986 38.372C14.3524 37.8924 14.5561 37.4052 14.8045 36.9256L15.0236 36.502L13.9528 34.7016L16.6538 32.0005L18.4542 33.0713L18.877 32.853C19.3583 32.6047 19.8447 32.4019 20.3259 32.248L20.7797 32.1028L21.2927 30.0781H25.1127L25.6266 32.1011L26.0803 32.2463C26.5616 32.4002 27.048 32.603 27.5292 32.8513L27.952 33.0696L29.7524 31.9988L32.4534 34.6998L31.3827 36.5002L31.6018 36.9239C31.8502 37.4043 32.0538 37.8907 32.2077 38.3702L32.352 38.824L34.375 39.3396V43.1604ZM43.8281 26.003L41.8069 26.6148L41.702 27.1124C41.2216 29.3941 40.3279 31.5485 39.0457 33.5139L38.7681 33.9402L39.7573 35.7895L36.0938 39.2554V38.0041L33.6858 37.3914C33.5835 37.1173 33.4684 36.8423 33.342 36.569L34.613 34.43L34.2048 34.0218C37.0442 31.1352 38.6719 27.2499 38.6719 23.2031C38.6719 22.6291 38.6289 22.055 38.5653 21.4844H43.8281V26.003ZM30.9375 19.7656V18.0469H45.6337C45.577 18.3245 45.5469 18.6123 45.5469 18.9062C45.5469 19.2002 45.577 19.488 45.6337 19.7656H30.9375ZM49.8438 16.3281C51.2652 16.3281 52.4219 17.4848 52.4219 18.9062C52.4219 20.3277 51.2652 21.4844 49.8438 21.4844C48.4223 21.4844 47.2656 20.3277 47.2656 18.9062C47.2656 17.4848 48.4223 16.3281 49.8438 16.3281ZM52.4219 52.4219H38.6719V47.2656C38.6719 46.3177 39.4427 45.5469 40.3906 45.5469H52.4219V52.4219ZM44.0516 43.8281L48.8907 23.088C49.1984 23.1584 49.5155 23.2031 49.8438 23.2031C50.8148 23.2031 51.7017 22.8671 52.4219 22.3214V26.6406H48.9844V28.3594H52.4219V30.0781H50.7031V31.7969H52.4219V33.5156H48.9844V35.2344H52.4219V36.9531H50.7031V38.6719H52.4219V40.3906H48.9844V42.1094H52.4219V43.8281H44.0516Z" fill="currentColor"></path><path d="M49.8438 19.7656C50.3184 19.7656 50.7031 19.3809 50.7031 18.9062C50.7031 18.4316 50.3184 18.0469 49.8438 18.0469C49.3691 18.0469 48.9844 18.4316 48.9844 18.9062C48.9844 19.3809 49.3691 19.7656 49.8438 19.7656Z" fill="currentColor"></path></g><defs><clipPath id="clip0_40_4194"><rect width="55" height="55" fill="white"></rect></clipPath></defs></svg>