<svg xmlns="http://www.w3.org/2000/svg" width="45" height="45" viewBox="0 0 45 45" fill="none"><g clip-path="url(#clip0_127_1140)"><path d="M36.1934 18.75H38.4434C38.8575 18.75 39.1934 18.4142 39.1934 18V15.75C39.1934 15.3358 38.8575 15 38.4434 15C38.0292 15 37.6934 15.3358 37.6934 15.75V17.25H36.1934C35.7792 17.25 35.4434 17.5858 35.4434 18C35.4434 18.4142 35.7792 18.75 36.1934 18.75Z" fill="currentColor"></path><path d="M18.5488 15.75C20.2056 15.75 21.5488 14.4067 21.5488 12.75C21.5488 11.0933 20.2056 9.75 18.5488 9.75C16.8917 9.75 15.5488 11.0933 15.5488 12.75C15.5488 14.4067 16.8917 15.75 18.5488 15.75ZM18.5488 11.25C19.3772 11.25 20.0488 11.9216 20.0488 12.75C20.0488 13.5784 19.3772 14.25 18.5488 14.25C17.7201 14.25 17.0488 13.5784 17.0488 12.75C17.0488 11.9216 17.7201 11.25 18.5488 11.25Z" fill="currentColor"></path><path d="M2.16631 15.501C2.48381 15.665 2.83648 15.7504 3.1939 15.75C4.14861 15.75 4.99785 15.1439 5.30877 14.2408L11.207 14.1497L10.1779 15C9.89446 15.2329 9.82122 15.6365 10.0047 15.954L11.4062 18.375L11.4369 21.75H7.6939C7.64995 21.7544 7.60637 21.7632 7.56389 21.7764C7.20977 20.7338 6.15325 20.1006 5.0667 20.28C3.98052 20.4595 3.18364 21.3988 3.18364 22.5C3.18364 23.6012 3.98052 24.5405 5.0667 24.72C6.15325 24.8994 7.20977 24.2662 7.56389 23.2236C7.60637 23.2368 7.64995 23.2456 7.6939 23.25H12.1939C12.3938 23.25 12.5857 23.1702 12.7264 23.0281C12.8674 22.886 12.9457 22.6934 12.9439 22.4934L12.9095 18.6921L15.3093 17.7924C15.4722 17.8978 15.6377 17.9941 15.8051 18.0817L16.3112 21.1223C16.3716 21.4838 16.6847 21.7489 17.0517 21.7485H17.4439V25.4985H15.1939C14.7797 25.4985 14.4439 25.8344 14.4439 26.2485V37.1895L7.91362 43.7197C7.69902 43.9343 7.63494 44.257 7.75103 44.5371C7.86712 44.8173 8.14067 45 8.4439 45H32.4439C32.7471 45 33.0207 44.8173 33.1364 44.5371C33.2525 44.257 33.1884 43.9343 32.9742 43.7197L27.9439 38.6895V34.7076L29.623 31.9109C32.456 33.6204 34.1687 34.5 34.6939 34.5H39.1939C39.6081 34.5 39.9439 34.1642 39.9439 33.75V29.5605L41.2234 28.281C41.3637 28.14 41.4432 27.9492 41.4439 27.75V25.5H42.5396C43.0472 25.5 43.5207 25.2433 43.7975 24.8174C44.074 24.3918 44.1169 23.855 43.9107 23.391L41.5787 18.141C42.4638 17.087 42.9472 15.7544 42.9439 14.3782C42.9607 9.41418 40.1537 4.8728 35.7065 2.66785L33.5312 1.57874C33.2012 1.41431 32.8006 1.51392 32.5864 1.81421L32.2721 2.25H27.1939V0.75C27.1939 0.335815 26.8581 0 26.4439 0H18.9439C18.5297 0 18.1939 0.335815 18.1939 0.75V3.75H17.0495C16.6825 3.74963 16.3691 4.01514 16.309 4.37695L15.8029 7.41687C15.6355 7.50439 15.4697 7.60034 15.3071 7.70618L12.4188 6.62402C12.0756 6.49512 11.6896 6.63354 11.5062 6.95105L10.7499 8.26135C10.7305 8.26135 10.7148 8.25 10.6954 8.25H6.1939V5.86194C7.22698 5.49683 7.84661 4.44031 7.6613 3.36035C7.476 2.28003 6.5396 1.49084 5.4439 1.49084C4.34783 1.49084 3.41143 2.28003 3.22612 3.36035C3.04082 4.44031 3.66082 5.49683 4.6939 5.86194V9C4.6939 9.41418 5.02971 9.75 5.4439 9.75H9.93254C9.8637 10.0265 9.95891 10.3176 10.1779 10.5L12.5568 12.4589C12.5568 12.5138 12.5568 12.5698 12.5524 12.6255L5.30584 12.7372C4.96526 11.7865 4.03252 11.179 3.02507 11.2522C2.01763 11.3251 1.1823 12.0604 0.98235 13.0503C0.782032 14.0405 1.26616 15.0425 2.16631 15.501ZM5.4439 23.25C5.02971 23.25 4.6939 22.9142 4.6939 22.5C4.6939 22.0858 5.02971 21.75 5.4439 21.75C5.85808 21.75 6.1939 22.0858 6.1939 22.5C6.1939 22.9142 5.85808 23.25 5.4439 23.25ZM5.4439 3C5.85808 3 6.1939 3.33582 6.1939 3.75C6.1939 4.16418 5.85808 4.5 5.4439 4.5C5.02971 4.5 4.6939 4.16418 4.6939 3.75C4.6939 3.33582 5.02971 3 5.4439 3ZM18.9439 21.75H20.0495C20.4157 21.75 20.7284 21.4852 20.7889 21.1238L21.2957 18.0831C21.4623 17.9963 21.6282 17.8997 21.7908 17.7938L24.6806 18.876C25.0237 19.0049 25.4097 18.8665 25.5932 18.549L25.9107 18H29.4439C29.4992 17.9956 29.5538 17.9846 29.6065 17.967L30.9439 19.7498V21H27.9439V22.5H29.6742L27.6656 23.3031C27.3807 23.417 27.1935 23.6931 27.1939 24V25.5H18.9439V21.75ZM27.0932 9.54895L26.7768 9H28.6939V12H25.1021L26.9207 10.5C27.2023 10.2671 27.2748 9.86572 27.0932 9.54895ZM28.6939 13.5V16.5H26.7768L27.0932 15.951C27.2748 15.6343 27.2023 15.2329 26.9207 15L25.1021 13.5H28.6939ZM23.6636 32.0303L26.4439 34.8105V35.25H21.9439V27H23.4439V31.5C23.4439 31.6989 23.523 31.8896 23.6636 32.0303ZM18.9095 42H18.9439V41.9612L21.7586 38.7444C21.8783 38.6074 21.9439 38.4316 21.9439 38.25V36.75H23.4439V43.5H17.5937L18.9095 42ZM10.2544 43.5L15.7242 38.0303C15.8648 37.8896 15.9439 37.6989 15.9439 37.5V27H20.4439V37.968L18.9439 39.6826V36H17.4439V41.4001L15.6033 43.5H10.2544ZM30.6333 43.5H24.9439V36.75H26.4439V39C26.4439 39.1989 26.523 39.3896 26.6636 39.5303L30.6333 43.5ZM27.0437 33.2911L24.9439 31.1909V27H27.1939V30C27.1939 30.2585 27.3272 30.4988 27.5462 30.6361C27.826 30.8115 28.0787 30.9661 28.3427 31.1287L27.0437 33.2911ZM33.4316 3.20691L35.0352 4.00964C38.9731 5.96155 41.4585 9.98291 41.4439 14.3782C41.4472 15.5383 40.9861 16.6516 40.1636 17.4697C39.9443 17.6891 39.8824 18.0209 40.0083 18.3043L42.5396 24H40.6939C40.2797 24 39.9439 24.3358 39.9439 24.75V27H39.815C38.6548 27.0033 37.5419 26.5422 36.7242 25.7197C36.4297 25.4355 35.9621 25.4396 35.6728 25.7289C35.3835 26.0182 35.3794 26.4858 35.6636 26.7803C36.5524 27.672 37.7067 28.251 38.9529 28.4304L38.6636 28.7197C38.523 28.8604 38.4439 29.0511 38.4439 29.25V33L34.7649 33.0044C33.0324 32.2031 31.3592 31.2781 29.7588 30.2369L29.7552 30.2333H29.7504C29.3974 30.0187 29.0433 29.8011 28.6939 29.5844V24.5076L31.9722 23.1969C32.2571 23.083 32.4439 22.8069 32.4439 22.5V19.5C32.4439 19.3378 32.3912 19.1799 32.2937 19.0499L30.1939 16.2502V7.73987L33.4316 3.20691ZM19.6939 1.5H25.6939V3C25.6939 3.41418 26.0297 3.75 26.4439 3.75H31.201L28.8342 7.06421C28.7426 7.19128 28.6935 7.34363 28.6939 7.5H25.9107L25.5932 6.95105C25.4097 6.63354 25.0237 6.49512 24.6806 6.62402L21.7937 7.70618C21.6312 7.60034 21.4653 7.50366 21.2986 7.41687L20.7889 4.37622C20.7284 4.01477 20.4157 3.75 20.0495 3.75H19.6939V1.5ZM11.6215 9.75L12.4861 8.25L15.1496 9.24829C15.3887 9.33765 15.6568 9.29956 15.8611 9.14685C16.1435 8.93408 16.45 8.75537 16.7741 8.61438C17.0088 8.51367 17.1762 8.30017 17.2179 8.04822L17.6845 5.25H19.4141L19.8807 8.04895C19.9224 8.3009 20.0898 8.5144 20.3245 8.61511C20.6486 8.75647 20.9548 8.93518 21.2375 9.14758C21.4418 9.30029 21.7095 9.33838 21.9483 9.24902L24.6125 8.25L25.4764 9.75L23.2824 11.5554C23.0854 11.7177 22.9843 11.9696 23.0147 12.2234C23.0608 12.5735 23.0608 12.928 23.0147 13.2781C22.9843 13.5319 23.0854 13.7838 23.2824 13.9464L25.4764 15.75L24.6125 17.25L21.9483 16.2517C21.7095 16.1624 21.4418 16.2004 21.2375 16.3531C20.9548 16.5656 20.6486 16.7443 20.3245 16.8856C20.0898 16.9863 19.9224 17.1998 19.8807 17.4518L19.4141 20.25H17.6838L17.2187 17.451C17.1769 17.1991 17.0096 16.9856 16.7748 16.8849C16.4507 16.7439 16.1442 16.5652 15.8622 16.3524C15.6575 16.1997 15.3895 16.1613 15.1503 16.251L12.4861 17.25L11.6215 15.75L13.8155 13.9446C13.8287 13.9318 13.8415 13.9178 13.8536 13.9036C13.8682 13.8896 13.8818 13.8754 13.8949 13.86C13.9513 13.7992 13.9968 13.7292 14.0297 13.6531L14.0345 13.6447C14.0656 13.5623 14.0821 13.4744 14.0824 13.3861C14.085 13.3755 14.0872 13.3645 14.0883 13.3539C14.0883 13.3447 14.0839 13.3374 14.0832 13.3282C14.0824 13.3191 14.0832 13.2938 14.0832 13.2766C14.037 12.9265 14.037 12.572 14.0832 12.2219C14.1132 11.9681 14.0121 11.7162 13.8147 11.5536L11.6215 9.75ZM2.52703 13.1572C2.61638 12.9781 2.77459 12.843 2.96502 12.7822C3.3488 12.6844 3.74248 12.902 3.86406 13.2792C3.98565 13.656 3.79265 14.0625 3.42424 14.2072C3.02983 14.3339 2.60723 14.1171 2.48052 13.7227C2.42083 13.5355 2.43731 13.3323 2.52703 13.1572Z" fill="currentColor"></path><path d="M17.4434 30H18.9434V31.5H17.4434V30Z" fill="currentColor"></path><path d="M17.4434 33H18.9434V34.5H17.4434V33Z" fill="currentColor"></path><path d="M21.9434 21H23.4434V22.5H21.9434V21Z" fill="currentColor"></path><path d="M24.9434 21H26.4434V22.5H24.9434V21Z" fill="currentColor"></path><path d="M31.6934 7.5H33.1934V10.5H31.6934V7.5Z" fill="currentColor"></path><path d="M31.6934 12H33.1934V13.5H31.6934V12Z" fill="currentColor"></path><path d="M31.6934 15H33.1934V16.5H31.6934V15Z" fill="currentColor"></path></g><defs><clipPath id="clip0_127_1140"><rect width="45" height="45" fill="white"></rect></clipPath></defs></svg>