<svg xmlns="http://www.w3.org/2000/svg" width="55" height="55" viewBox="0 0 55 55" fill="none"><g clip-path="url(#clip0_214_4084)"><path d="M34.9102 33.0859C35.5034 33.0859 35.9844 32.605 35.9844 32.0117C35.9844 31.4184 35.5034 30.9375 34.9102 30.9375C34.3169 30.9375 33.8359 31.4184 33.8359 32.0117C33.8359 32.605 34.3169 33.0859 34.9102 33.0859Z" fill="currentColor"></path><path d="M10.7422 36.3086C11.3355 36.3086 11.8164 35.8276 11.8164 35.2344C11.8164 34.6411 11.3355 34.1602 10.7422 34.1602C10.1489 34.1602 9.66797 34.6411 9.66797 35.2344C9.66797 35.8276 10.1489 36.3086 10.7422 36.3086Z" fill="currentColor"></path><path d="M35.0551 27.457C34.5448 26.1894 33.8423 25.0089 32.9657 23.9466C32.6022 23.506 31.8931 23.4391 31.4531 23.8004C30.9994 24.1729 30.937 24.8622 31.3081 25.3139C32.0441 26.2055 32.6349 27.1969 33.0624 28.2584C33.2813 28.8017 33.9171 29.0719 34.46 28.8546C35.0088 28.6333 35.2753 28.007 35.0551 27.457Z" fill="currentColor"></path><path d="M15.6815 22.2868C15.4765 22.0378 15.1645 21.9081 14.8522 21.9066C14.6083 21.9054 14.3641 21.9825 14.1701 22.1418C12.8241 23.2514 11.7263 24.5867 10.9055 26.1121C10.1127 27.5859 9.60993 29.1779 9.41013 30.8429C9.33934 31.4305 9.75925 31.9666 10.3479 32.0375C10.921 32.1066 11.4725 31.6848 11.5425 31.0997C11.8893 28.2304 13.3074 25.6384 15.5364 23.7993C15.994 23.4222 16.0585 22.7444 15.6815 22.2868Z" fill="currentColor"></path><path d="M53.9258 17.9932H52.8516V1.07422C52.8516 0.481035 52.3705 0 51.7773 0H20.5176C19.9244 0 19.4434 0.481035 19.4434 1.07422V8.59375H16.2207C15.6275 8.59375 15.1465 9.07479 15.1465 9.66797V15.8006C8.8173 18.6719 4.4043 25.0509 4.4043 32.4414C4.4043 34.6696 4.80605 36.8055 5.53996 38.7814L3.3753 52.8516H1.07422C0.481035 52.8516 0 53.3326 0 53.9258C0 54.519 0.481035 55 1.07422 55H4.29548C4.29645 55 4.29978 55 4.29978 55H7.51953C8.11271 55 8.59375 54.519 8.59375 53.9258C8.59375 53.3326 8.11271 52.8516 7.51953 52.8516H5.54898L7.19737 42.1366C10.2525 46.9934 15.5294 50.3172 21.5917 50.6707V52.8516H19.4433C18.8501 52.8516 18.369 53.3326 18.369 53.9258C18.369 54.519 18.8501 55 19.4433 55H25.8886C26.4817 55 26.9628 54.519 26.9628 53.9258C26.9628 53.3326 26.4817 52.8516 25.8886 52.8516H23.7401V50.6707C29.6483 50.3262 34.8108 47.1605 37.8974 42.5037L38.6934 52.8516H36.6309C36.0377 52.8516 35.5566 53.3326 35.5566 53.9258C35.5566 54.519 36.0377 55 36.6309 55H43.0762C43.6694 55 44.1504 54.519 44.1504 53.9258C44.1504 53.3326 43.6694 52.8516 43.0762 52.8516H40.8482L39.7703 38.8385C40.5178 36.8467 40.9277 34.6911 40.9277 32.4414C40.9277 25.0509 36.5147 18.6719 30.1855 15.8006V9.66797C30.1855 9.07479 29.7045 8.59375 29.1113 8.59375H25.8887V6.44531H46.4062V17.9932H45.332C44.7388 17.9932 44.2578 18.4742 44.2578 19.0674V33.0322C44.2578 33.6254 44.7388 34.1064 45.332 34.1064H46.4062V53.9258C46.4062 54.519 46.8873 55 47.4805 55H51.7773C52.3705 55 52.8516 54.519 52.8516 53.9258V34.1064H53.9258C54.519 34.1064 55 33.6254 55 33.0322V19.0674C55 18.4742 54.519 17.9932 53.9258 17.9932ZM21.5918 10.7422H23.7402V14.2121C23.3847 14.1914 23.0267 14.1797 22.666 14.1797C22.3053 14.1797 21.9474 14.1914 21.5918 14.2121V10.7422ZM17.2949 10.7422H19.4434V14.4645C18.7113 14.5954 17.9942 14.7705 17.2949 14.9861V10.7422ZM21.5918 48.5181C15.7493 48.1316 10.7487 44.6176 8.25247 39.6387H11.4302C11.4499 39.6788 11.4712 39.7185 11.4963 39.7578C11.7627 40.1629 12.0549 40.5592 12.3665 40.9363C13.5104 42.3242 14.893 43.4468 16.4754 44.2738C16.9804 44.5378 17.6541 44.3368 17.9245 43.8195C18.1996 43.2942 17.9954 42.6443 17.4712 42.3704C16.1714 41.6904 15.0326 40.7709 14.0837 39.6387H21.5918V48.5181ZM23.7402 48.5181V39.6387H31.2503C30.8124 40.1603 30.3261 40.6445 29.7945 41.0835C29.2232 41.554 28.6066 41.9685 27.962 42.3155C27.459 42.5863 27.2549 43.2694 27.5246 43.7711C27.7932 44.2706 28.4803 44.4764 28.9792 44.2084C29.7494 43.7938 30.4831 43.2996 31.161 42.741C32.2427 41.8493 33.1683 40.8018 33.9133 39.6387H37.0798C34.5833 44.6176 29.5827 48.1316 23.7402 48.5181ZM38.7793 32.4414C38.7793 34.2042 38.4938 35.9014 37.9683 37.4902H35.0285C35.1465 37.2005 35.2547 36.9061 35.3525 36.6072C35.5362 36.0443 35.2279 35.4363 34.6651 35.2516C34.1204 35.0727 33.4936 35.379 33.3104 35.9379C33.1349 36.4733 32.9189 36.9915 32.6671 37.4901H7.36377C6.83826 35.9014 6.55273 34.2042 6.55273 32.4414C6.55273 23.5565 13.7812 16.3281 22.666 16.3281C31.5509 16.3281 38.7793 23.5565 38.7793 32.4414ZM28.0371 10.7422V14.9862C27.3378 14.7705 26.6208 14.5954 25.8887 14.4646V10.7422H28.0371ZM24.8145 4.29688C24.2213 4.29688 23.7402 4.77791 23.7402 5.37109V8.59375H21.5918V2.14844H50.7031V17.9932H48.5547V5.37109C48.5547 4.77791 48.0737 4.29688 47.4805 4.29688H24.8145ZM50.7031 52.8516H48.5547V34.1064H50.7031V52.8516ZM52.8516 31.958H46.4062V20.1416H52.8516V31.958Z" fill="currentColor"></path></g><defs><clipPath id="clip0_214_4084"><rect width="55" height="55" fill="white"></rect></clipPath></defs></svg>