<svg xmlns="http://www.w3.org/2000/svg" width="65" height="65" viewBox="0 0 65 65" fill="none"><g clip-path="url(#clip0_73_93)"><path d="M64.0477 63.0957H59.8926C60.6643 61.3837 61.2214 59.6555 61.5512 57.9405C61.6505 57.4242 61.3124 56.925 60.796 56.8257C60.2795 56.727 59.7805 57.0645 59.6812 57.581C59.3294 59.4101 58.6934 61.2626 57.7881 63.0956H53.7315V61.6295C53.7315 61.1036 53.3054 60.6774 52.7794 60.6774C52.2534 60.6774 51.8272 61.1036 51.8272 61.6295V63.0956H47.7707C46.3516 60.2229 45.6029 57.324 45.5437 54.4706C45.5116 52.9237 45.6832 51.3637 46.0529 49.8021H59.5055C59.8348 51.193 60.0072 52.5822 60.0175 53.9608C60.0214 54.4842 60.447 54.9058 60.9695 54.9058H60.9767C61.5027 54.9019 61.9257 54.4724 61.9218 53.9466C61.9112 52.5299 61.7462 51.106 61.4319 49.6829C61.7247 49.5205 61.9232 49.2085 61.9232 48.8498C61.9232 48.3238 61.497 47.8977 60.971 47.8977H60.9582C60.6082 46.7678 60.1649 45.6406 59.6261 44.5202C59.2693 43.7786 58.5363 43.2792 57.72 43.2029V41.7168C57.72 40.5649 56.7924 39.6269 55.645 39.6074V4.81773C55.645 2.16125 53.4838 0.000126953 50.8274 0.000126953L15.1301 0C12.4736 0 10.3124 2.16112 10.3124 4.81761V6.80823H7.31845C6.12687 6.80823 5.15759 7.77764 5.15759 8.96909V11.7998C4.87004 11.9637 4.67567 12.2724 4.67567 12.6271C4.67567 12.9818 4.86991 13.2906 5.15759 13.4545V37.1203C3.50936 39.5143 2.54287 42.4124 2.54287 45.5323V48.1563H1.92016C1.3942 48.1563 0.968016 48.5824 0.968016 49.1084C0.968016 49.6344 1.3942 50.0606 1.92016 50.0606H2.54287V55.1947C2.54287 55.7206 2.96905 56.1468 3.49501 56.1468C4.02098 56.1468 4.44716 55.7206 4.44716 55.1947V50.0606H30.3819V63.0958H22.1261V57.8486C22.1261 56.9098 21.3622 56.146 20.4235 56.146H14.4056C13.4668 56.146 12.703 56.9099 12.703 57.8486V63.0958H4.44716V59.0017C4.44716 58.4758 4.02098 58.0496 3.49501 58.0496C2.96905 58.0496 2.54287 58.4758 2.54287 59.0017V63.0958H0.952147C0.426181 63.0958 0 63.522 0 64.048C0 64.5739 0.426181 65.0001 0.952147 65.0001H64.0477C64.5737 65.0001 64.9999 64.5739 64.9999 64.048C64.9999 63.522 64.5737 63.0957 64.0477 63.0957ZM14.6072 58.0502H20.2218V63.0956H14.6072V58.0502ZM50.1464 39.6056H49.9499C48.7857 39.6056 47.8385 40.5528 47.8385 41.717V43.2031C47.0222 43.2795 46.2892 43.7788 45.9324 44.5205C45.3923 45.644 44.9499 46.7701 44.6008 47.8979H44.5876C44.0617 47.8979 43.6355 48.3241 43.6355 48.8501C43.6355 49.2091 43.8343 49.5215 44.1278 49.6836C43.9854 50.3315 43.8745 50.9797 43.7949 51.6282H40.1362C40.1351 48.2576 40.1359 25.6141 40.1362 18.5325C40.4237 18.3686 40.6179 18.0598 40.6179 17.7052C40.6179 17.3506 40.4237 17.0418 40.1362 16.878V14.0473C40.1362 12.8558 39.1666 11.8865 37.9752 11.8865H35.1361V9.37407C35.1361 8.42738 35.9062 7.65716 36.8529 7.65716H48.4295C49.3762 7.65716 50.1464 8.42738 50.1464 9.37407V39.6056ZM30.1357 18.6574H38.2316V25.4383H30.1357V18.6574ZM30.1357 27.3426H38.2316V34.1628H30.1357V27.3426ZM37.9749 13.7906C38.1165 13.7906 38.2316 13.9058 38.2316 14.0472V16.753H30.1357V14.0472C30.1357 13.9058 30.2508 13.7906 30.3923 13.7906H37.9749ZM28.2314 25.2607H17.095V23.9547H28.2314V25.2607ZM15.1577 16.7158H13.0132C12.4872 16.7158 12.061 17.1419 12.061 17.6679C12.061 18.1939 12.4872 18.62 13.0132 18.62H15.1577V25.4402H7.06175V18.62H9.20624C9.73221 18.62 10.1584 18.1939 10.1584 17.6679C10.1584 17.1419 9.73221 16.7158 9.20624 16.7158H7.06175V13.5793H15.1577V16.7158ZM15.1577 27.3445V30.8316C12.0353 31.309 9.23011 32.7616 7.06175 34.8668V27.3445H15.1577ZM17.062 27.165H28.2149C28.215 27.358 28.2108 35.8825 28.2315 35.3376C25.5179 32.4599 21.6726 30.6606 17.4145 30.6606C17.2967 30.6606 17.1793 30.6624 17.0621 30.6651V27.165H17.062ZM30.1357 36.0671H38.2316V44.8703H32.2705C32.1575 42.3048 31.3923 39.9057 30.1357 37.8363V36.0671ZM32.9087 50.0604C33.4347 50.0604 33.8609 49.6343 33.8609 49.1083C33.8609 48.5823 33.4347 48.1561 32.9087 48.1561H32.2861V46.7745H38.2317V51.628H32.2861V50.0603H32.9087V50.0604ZM32.2861 53.5325H43.6515C43.639 53.9764 43.6413 54.4204 43.6585 54.8642H32.2863V53.5325H32.2861ZM43.8216 56.7685C44.103 58.8819 44.7178 60.9929 45.6665 63.0957H40.136V56.7685H43.8216ZM57.9101 45.3457C58.318 46.1941 58.6658 47.0456 58.956 47.8979H46.6034C46.8936 47.0457 47.2406 46.1945 47.6486 45.3458C47.7216 45.1941 47.8817 45.0959 48.0564 45.0959H57.5024C57.6771 45.0959 57.8371 45.1939 57.9101 45.3457ZM55.8158 41.717V43.1916H49.7428V41.717C49.7428 41.6028 49.8356 41.5099 49.9499 41.5099H55.6089C55.7229 41.5099 55.8158 41.6027 55.8158 41.717ZM12.2167 4.81761C12.2167 3.21127 13.5237 1.90429 15.1301 1.90429L50.8275 1.90442C52.4338 1.90442 53.7408 3.2114 53.7408 4.81773V39.6055H52.0507V9.37407C52.0507 7.37723 50.4262 5.75287 48.4295 5.75287H36.8529C34.8562 5.75287 33.2318 7.37736 33.2318 9.37407V11.8863H30.3926C29.2011 11.8863 28.2318 12.8558 28.2318 14.0472V16.8779C27.9442 17.0418 27.7499 17.3505 27.7499 17.7052C27.7499 18.0599 27.9441 18.3687 28.2318 18.5326V22.0506H17.0953C17.0773 15.3304 17.1228 25.1805 17.0622 13.4545C17.3498 13.2906 17.5441 12.9818 17.5441 12.6271C17.5441 12.2724 17.3499 11.9637 17.0622 11.7998V8.96909C17.0622 7.77751 16.0928 6.80823 14.9013 6.80823H12.2167V4.81761ZM7.31845 8.71252H14.9011C15.0425 8.71252 15.1577 8.82767 15.1577 8.96909V11.6748H7.06175V8.96909C7.06175 8.82767 7.17703 8.71252 7.31845 8.71252ZM4.44716 48.1561V45.5322C4.44716 38.382 10.2643 32.5648 17.4146 32.5648C24.5647 32.5648 30.382 38.3819 30.382 45.5322V48.1561H4.44716ZM32.2861 56.7685H38.2317V63.0957H32.2861V56.7685Z" fill="currentColor"></path><path d="M17.4141 37.2604C16.5123 37.2604 15.6706 37.9112 15.044 39.093C14.5918 39.9456 14.2998 40.9928 14.2998 41.7612C14.2998 43.4784 15.6969 44.8756 17.4141 44.8756C19.1314 44.8756 20.5285 43.4784 20.5285 41.7612C20.5285 40.9928 20.2364 39.9456 19.7843 39.093C19.1577 37.9112 18.316 37.2604 17.4141 37.2604ZM17.4141 42.9711C16.7468 42.9711 16.2041 42.4283 16.2041 41.761C16.2041 40.727 17.0372 39.2236 17.41 39.1645C17.7911 39.2235 18.6242 40.7269 18.6242 41.761C18.6243 42.4283 18.0814 42.9711 17.4141 42.9711Z" fill="currentColor"></path></g><defs><clipPath id="clip0_73_93"><rect width="65" height="65" fill="white"></rect></clipPath></defs></svg>