<svg xmlns="http://www.w3.org/2000/svg" width="45" height="45" viewBox="0 0 45 45" fill="none"><g clip-path="url(#clip0_126_1079)"><path d="M13.3594 28.8281C12.8031 28.8281 12.2593 28.9931 11.7968 29.3021C11.3343 29.6112 10.9738 30.0504 10.761 30.5643C10.5481 31.0782 10.4924 31.6437 10.6009 32.1893C10.7094 32.7349 10.9773 33.236 11.3706 33.6294C11.764 34.0227 12.2651 34.2906 12.8107 34.3991C13.3563 34.5076 13.9218 34.4519 14.4357 34.239C14.9496 34.0262 15.3888 33.6657 15.6979 33.2032C16.0069 32.7407 16.1719 32.1969 16.1719 31.6406C16.1719 30.8947 15.8756 30.1793 15.3481 29.6519C14.8207 29.1244 14.1053 28.8281 13.3594 28.8281ZM13.3594 33.0469C13.0812 33.0469 12.8094 32.9644 12.5781 32.8099C12.3468 32.6554 12.1666 32.4357 12.0602 32.1788C11.9537 31.9218 11.9259 31.6391 11.9801 31.3663C12.0344 31.0935 12.1683 30.8429 12.365 30.6463C12.5617 30.4496 12.8122 30.3157 13.085 30.2614C13.3578 30.2071 13.6406 30.235 13.8975 30.3414C14.1545 30.4479 14.3741 30.6281 14.5286 30.8594C14.6832 31.0906 14.7656 31.3625 14.7656 31.6406C14.7656 32.0136 14.6175 32.3713 14.3537 32.635C14.09 32.8987 13.7323 33.0469 13.3594 33.0469Z" fill="currentColor"></path><path d="M4.92188 18.9844C5.69853 18.9844 6.32812 18.3548 6.32812 17.5781C6.32812 16.8015 5.69853 16.1719 4.92188 16.1719C4.14522 16.1719 3.51562 16.8015 3.51562 17.5781C3.51562 18.3548 4.14522 18.9844 4.92188 18.9844Z" fill="currentColor"></path><path d="M14.0625 6.32812C14.8392 6.32812 15.4688 5.69853 15.4688 4.92188C15.4688 4.14522 14.8392 3.51562 14.0625 3.51562C13.2858 3.51562 12.6562 4.14522 12.6562 4.92188C12.6562 5.69853 13.2858 6.32812 14.0625 6.32812Z" fill="currentColor"></path><path d="M44.0909 20.5966L40.7812 17.287V15.4687C40.7812 15.2822 40.7071 15.1034 40.5752 14.9716L38.8245 13.2208L40.0078 10.8611H40.0008C40.0512 10.764 40.0777 10.6563 40.0781 10.5468V6.32808C40.077 5.39602 39.7063 4.50246 39.0472 3.84339C38.3881 3.18432 37.4946 2.81357 36.5625 2.81245H23.1848C22.8601 2.37737 22.4386 2.02381 21.9536 1.77974C21.4686 1.53567 20.9335 1.40779 20.3906 1.4062H16.3898C15.7915 1.00899 15.1016 0.771346 14.3855 0.715846C13.6695 0.660345 12.9512 0.788833 12.2988 1.0891C11.6464 1.38937 11.0816 1.85145 10.6581 2.43144C10.2345 3.01144 9.96632 3.69009 9.87891 4.40292L7.37227 5.23894C6.33044 5.58635 5.39631 6.19759 4.66083 7.01316C3.92534 7.82874 3.41356 8.82085 3.17531 9.89292L2.17969 14.3803C1.54942 14.9191 1.0922 15.6319 0.8653 16.4295C0.638404 17.227 0.651933 18.0738 0.904192 18.8636C1.15645 19.6535 1.63622 20.3514 2.28337 20.8698C2.93053 21.3882 3.71629 21.7041 4.54219 21.7778L8.96273 28.0926C8.33265 28.862 7.91563 29.7833 7.75336 30.7645L6.4357 38.6718H4.21875C3.28669 38.6729 2.39313 39.0437 1.73406 39.7028C1.075 40.3618 0.704241 41.2554 0.703125 42.1875V43.5937C0.703125 43.7802 0.777204 43.959 0.909066 44.0909C1.04093 44.2227 1.21977 44.2968 1.40625 44.2968H25.3125C25.499 44.2968 25.6778 44.2227 25.8097 44.0909C25.9415 43.959 26.0156 43.7802 26.0156 43.5937V42.1875C26.0145 41.2554 25.6438 40.3618 24.9847 39.7028C24.3256 39.0437 23.4321 38.6729 22.5 38.6718H20.283L18.9654 30.7645C18.7689 29.5764 18.1996 28.4815 17.3398 27.6384L9.01688 18.5751C9.1873 17.8989 9.18149 17.1904 9 16.5171L13.7524 9.12511C13.8551 9.13214 13.9577 9.14058 14.0625 9.14058C14.8907 9.14125 15.7006 8.89659 16.3898 8.43745H20.3906C20.9335 8.43587 21.4686 8.30799 21.9536 8.06392C22.4386 7.81985 22.8601 7.46629 23.1848 7.0312H33.0469V10.5468C33.0488 10.6556 33.0765 10.7623 33.1277 10.8583H33.1207L34.3005 13.2187L32.5498 14.9695C32.4842 15.035 32.4323 15.1129 32.3969 15.1985C32.3616 15.2842 32.3435 15.376 32.3438 15.4687V17.287L29.0341 20.5966C28.9023 20.7284 28.8282 20.9072 28.8281 21.0937V26.0156C28.8282 26.202 28.9023 26.3809 29.0341 26.5127L32.5498 30.0283C32.6481 30.1266 32.7734 30.1936 32.9097 30.2207C33.0461 30.2478 33.1875 30.2339 33.3159 30.1807C33.4444 30.1275 33.5542 30.0374 33.6315 29.9218C33.7087 29.8062 33.75 29.6702 33.75 29.5312V25.3125C33.75 25.126 33.6759 24.9472 33.544 24.8153L33.0469 24.3182V22.791L34.7442 21.0937H38.3808L40.0781 22.791V24.3182L39.581 24.8153C39.4491 24.9472 39.375 25.126 39.375 25.3125V29.5312C39.375 29.6702 39.4163 29.8062 39.4935 29.9218C39.5708 30.0374 39.6806 30.1275 39.8091 30.1807C39.9375 30.2339 40.0789 30.2478 40.2153 30.2207C40.3516 30.1936 40.4769 30.1266 40.5752 30.0283L44.0909 26.5127C44.2227 26.3809 44.2968 26.202 44.2969 26.0156V21.0937C44.2968 20.9072 44.2227 20.7284 44.0909 20.5966ZM35.5908 12.6562L34.8877 11.25H38.2373L37.5342 12.6562H35.5908ZM38.6719 6.32808V9.8437H34.4531V6.32808C34.4531 5.76864 34.6754 5.23211 35.0709 4.83653C35.4665 4.44094 36.0031 4.2187 36.5625 4.2187C37.1219 4.2187 37.6585 4.44094 38.0541 4.83653C38.4496 5.23211 38.6719 5.76864 38.6719 6.32808ZM4.54852 10.1953C4.73394 9.36024 5.1325 8.58748 5.70536 7.95227C6.27822 7.31706 7.00584 6.84107 7.81734 6.57066L9.95273 5.8591C10.0051 6.09119 10.077 6.31842 10.1679 6.53831L4.57383 13.3769C4.31613 13.3986 4.06098 13.444 3.81164 13.5126L4.54852 10.1953ZM2.10938 17.5781C2.10938 17.0218 2.27433 16.4781 2.58337 16.0155C2.89241 15.553 3.33166 15.1925 3.84558 14.9797C4.3595 14.7668 4.92499 14.7111 5.47057 14.8196C6.01614 14.9281 6.51728 15.196 6.91061 15.5893C7.30395 15.9827 7.57181 16.4838 7.68033 17.0294C7.78885 17.575 7.73316 18.1405 7.52029 18.6544C7.30742 19.1683 6.94693 19.6075 6.48442 19.9166C6.0219 20.2256 5.47814 20.3906 4.92188 20.3906C4.17595 20.3906 3.46058 20.0943 2.93314 19.5668C2.40569 19.0394 2.10938 18.324 2.10938 17.5781ZM24.6094 42.1875V42.8906H2.10938V42.1875C2.10938 41.628 2.33161 41.0915 2.7272 40.6959C3.12278 40.3003 3.65931 40.0781 4.21875 40.0781H22.5C23.0594 40.0781 23.596 40.3003 23.9916 40.6959C24.3871 41.0915 24.6094 41.628 24.6094 42.1875ZM17.5781 30.9958L18.8578 38.6718H7.86094L9.14062 30.9958C9.30728 29.9973 9.82267 29.0903 10.5951 28.4361C11.3676 27.7819 12.3471 27.4228 13.3594 27.4228C14.3717 27.4228 15.3511 27.7819 16.1236 28.4361C16.8961 29.0903 17.4115 29.9973 17.5781 30.9958ZM13.9739 26.0514C13.7698 26.0288 13.5647 26.0169 13.3594 26.0156C12.1495 26.0137 10.9707 26.399 9.99562 27.1153L6.14461 21.6147C7.05703 21.3362 7.84864 20.7577 8.39109 19.9729L13.9739 26.0514ZM8.27859 15.0363C7.76109 14.3516 7.0478 13.8404 6.2332 13.5703L10.9688 7.78144C11.349 8.19302 11.8071 8.52499 12.3166 8.75808L8.27859 15.0363ZM14.0625 7.73433C13.5062 7.73433 12.9625 7.56938 12.5 7.26034C12.0374 6.9513 11.677 6.51204 11.4641 5.99813C11.2512 5.48421 11.1955 4.91871 11.304 4.37314C11.4126 3.82757 11.6804 3.32643 12.0738 2.93309C12.4671 2.53976 12.9682 2.27189 13.5138 2.16337C14.0594 2.05485 14.6249 2.11055 15.1388 2.32342C15.6527 2.53629 16.092 2.89677 16.401 3.35929C16.71 3.8218 16.875 4.36557 16.875 4.92183C16.875 5.66775 16.5787 6.38312 16.0512 6.91057C15.5238 7.43801 14.8084 7.73433 14.0625 7.73433ZM20.3906 7.0312H17.7103C18.0842 6.3911 18.2812 5.66313 18.2812 4.92183C18.2812 4.18053 18.0842 3.45255 17.7103 2.81245H20.3906C20.9501 2.81245 21.4866 3.03469 21.8822 3.43028C22.2778 3.82586 22.5 4.36239 22.5 4.92183C22.5 5.48127 22.2778 6.0178 21.8822 6.41338C21.4866 6.80897 20.9501 7.0312 20.3906 7.0312ZM23.8359 4.2187H33.7683C33.4484 4.63262 33.2259 5.11326 33.1172 5.62495H23.8359C23.9306 5.16099 23.9306 4.68267 23.8359 4.2187ZM33.75 15.7598L35.4473 14.0625H37.6777L39.375 15.7598V17.4121L38.2373 19.6875H34.8877L33.75 17.4121V15.7598ZM31.8466 22.0028C31.7148 22.1347 31.6407 22.3135 31.6406 22.5V24.6093C31.6407 24.7958 31.7148 24.9746 31.8466 25.1064L32.3438 25.6035V27.8339L30.2344 25.7245V21.3848L32.8542 18.765L33.5974 20.25L31.8466 22.0028ZM42.8906 25.7245L40.7812 27.8339V25.6035L41.2784 25.1064C41.4102 24.9746 41.4843 24.7958 41.4844 24.6093V22.5C41.4843 22.3135 41.4102 22.1347 41.2784 22.0028L39.5276 20.2521L40.2708 18.765L42.8906 21.3848V25.7245Z" fill="currentColor"></path><path d="M36.5625 18.2812C37.3392 18.2812 37.9688 17.6517 37.9688 16.875C37.9688 16.0983 37.3392 15.4688 36.5625 15.4688C35.7858 15.4688 35.1562 16.0983 35.1562 16.875C35.1562 17.6517 35.7858 18.2812 36.5625 18.2812Z" fill="currentColor"></path></g><defs><clipPath id="clip0_126_1079"><rect width="45" height="45" fill="white"></rect></clipPath></defs></svg>