<svg xmlns="http://www.w3.org/2000/svg" width="85" height="85" viewBox="0 0 85 85" fill="none"><g clip-path="url(#clip0_131_1822)"><path d="M9.96094 2.49023H14.9414V12.4512H9.96094V2.49023Z" fill="#5A5A5A"></path><path d="M24.9023 2.49023H29.8828V12.4512H24.9023V2.49023Z" fill="#444444"></path><path d="M14.2118 40.5733L4.98047 31.3419V25.3816L7.16396 19.9219L9.44214 14.9414L1.80023 19.9219L0.177689 23.9782C0.060959 24.2727 0 24.5865 0 24.9023V32.373C0 33.0345 0.262642 33.6668 0.729561 34.1337L10.6905 44.0947C11.6632 45.0674 13.2391 45.0674 14.2118 44.0947C15.1846 43.1219 15.1846 41.5461 14.2118 40.5733Z" fill="#5A5A5A"></path><path d="M39.6661 23.9782L38.0435 19.9219L30.7129 14.9414L34.8633 25.3816V31.3419L25.6319 40.5733C24.6592 41.5461 24.6592 43.1219 25.6319 44.0947C26.1183 44.581 26.7558 44.8242 27.3926 44.8242C28.0294 44.8242 28.6669 44.581 29.1533 44.0947L39.1142 34.1337C39.5811 33.6668 39.8438 33.0345 39.8438 32.373V24.9023C39.8438 24.5865 39.7828 24.2727 39.6661 23.9782Z" fill="#444444"></path><path d="M77.5293 44.8242H62.5879C61.193 44.8242 60.0977 45.9195 60.0977 47.3145V62.5879C60.0977 63.9822 61.193 65.0781 62.5879 65.0781H77.5293C78.9242 65.0781 80.0195 63.9822 80.0195 62.5879V47.3145C80.0195 45.9195 78.9242 44.8242 77.5293 44.8242Z" fill="#FDBF00"></path><path d="M80.0195 47.3145V62.5879C80.0195 63.9822 78.9242 65.0781 77.5293 65.0781H70.0586V44.8242H77.5293C78.9242 44.8242 80.0195 45.9195 80.0195 47.3145Z" fill="#FF9F00"></path><path d="M52.2949 44.8242H37.3535C35.9586 44.8242 34.8633 45.9195 34.8633 47.3145V62.5879C34.8633 63.9822 35.9586 65.0781 37.3535 65.0781H52.2949C53.6898 65.0781 54.7852 63.9822 54.7852 62.5879V47.3145C54.7852 45.9195 53.6898 44.8242 52.2949 44.8242Z" fill="#FDBF00"></path><path d="M54.7852 47.3145V62.5879C54.7852 63.9822 53.6898 65.0781 52.2949 65.0781H42.334V44.8242H52.2949C53.6898 44.8242 54.7852 45.9195 54.7852 47.3145Z" fill="#FF9F00"></path><path d="M85 2.49023C85 3.88451 83.9047 4.98047 82.5098 4.98047H2.49023C1.09531 4.98047 0 3.88451 0 2.49023C0 1.09531 1.09531 0 2.49023 0H82.5098C83.9047 0 85 1.09531 85 2.49023Z" fill="#6E6E6E"></path><path d="M12.4512 60.0977H72.5488V85H12.4512V60.0977Z" fill="#5A5A5A"></path><path d="M42.334 60.0977H72.5488V85H42.334V60.0977Z" fill="#444444"></path><path d="M14.9414 65.0781H70.0586V80.0195H14.9414V65.0781Z" fill="#D3D3D8"></path><path d="M42.334 65.0781H70.0586V80.0195H42.334V65.0781Z" fill="#BABAC0"></path><path d="M42.334 60.0977C35.4612 60.0977 29.8828 65.676 29.8828 72.5488C29.8828 79.4216 35.4612 85 42.334 85C49.2068 85 54.7852 79.4216 54.7852 72.5488C54.7852 65.676 49.2068 60.0977 42.334 60.0977Z" fill="#5A5A5A"></path><path d="M54.7852 72.5488C54.7852 79.4216 49.2068 85 42.334 85V60.0977C49.2068 60.0977 54.7852 65.676 54.7852 72.5488Z" fill="#444444"></path><path d="M42.334 65.0781C38.1998 65.0781 34.8633 68.4146 34.8633 72.5488C34.8633 76.6824 38.1998 80.0195 42.334 80.0195C46.4682 80.0195 49.8047 76.6824 49.8047 72.5488C49.8047 68.4146 46.4682 65.0781 42.334 65.0781Z" fill="#ECECF1"></path><path d="M49.8047 72.5488C49.8047 76.6824 46.4682 80.0195 42.334 80.0195V65.0781C46.4682 65.0781 49.8047 68.4146 49.8047 72.5488Z" fill="#E2E2E7"></path><path d="M12.4512 85C5.58617 85 0 79.4138 0 72.5488C0 65.6838 5.58617 60.0977 12.4512 60.0977C19.3162 60.0977 24.9023 65.6838 24.9023 72.5488C24.9023 79.4138 19.3162 85 12.4512 85Z" fill="#5A5A5A"></path><path d="M12.4512 65.0781C8.33191 65.0781 4.98047 68.4296 4.98047 72.5488C4.98047 76.6681 8.33191 80.0195 12.4512 80.0195C16.5704 80.0195 19.9219 76.6681 19.9219 72.5488C19.9219 68.4296 16.5704 65.0781 12.4512 65.0781Z" fill="#ECECF1"></path><path d="M72.5488 85C65.6838 85 60.0977 79.4138 60.0977 72.5488C60.0977 65.6838 65.6838 60.0977 72.5488 60.0977C79.4138 60.0977 85 65.6838 85 72.5488C85 79.4138 79.4138 85 72.5488 85Z" fill="#444444"></path><path d="M72.5488 65.0781C68.4296 65.0781 65.0781 68.4296 65.0781 72.5488C65.0781 76.6681 68.4296 80.0195 72.5488 80.0195C76.6681 80.0195 80.0195 76.6681 80.0195 72.5488C80.0195 68.4296 76.6681 65.0781 72.5488 65.0781Z" fill="#E2E2E7"></path><path d="M75.0391 72.5488C75.0391 73.9243 73.9243 75.0391 72.5488 75.0391C71.1734 75.0391 70.0586 73.9243 70.0586 72.5488C70.0586 71.1734 71.1734 70.0586 72.5488 70.0586C73.9243 70.0586 75.0391 71.1734 75.0391 72.5488Z" fill="#444444"></path><path d="M14.9414 72.5488C14.9414 73.9243 13.8266 75.0391 12.4512 75.0391C11.0757 75.0391 9.96094 73.9243 9.96094 72.5488C9.96094 71.1734 11.0757 70.0586 12.4512 70.0586C13.8266 70.0586 14.9414 71.1734 14.9414 72.5488Z" fill="#5A5A5A"></path><path d="M44.8242 72.5488C44.8242 73.9431 43.7289 75.0391 42.334 75.0391C40.9391 75.0391 39.8438 73.9431 39.8438 72.5488C39.8438 71.1539 40.9391 70.0586 42.334 70.0586C43.7289 70.0586 44.8242 71.1539 44.8242 72.5488Z" fill="#5A5A5A"></path><path d="M44.8242 72.5488C44.8242 73.9431 43.7289 75.0391 42.334 75.0391V70.0586C43.7289 70.0586 44.8242 71.1539 44.8242 72.5488Z" fill="#444444"></path><path d="M27.3926 29.8828H12.4512C11.0563 29.8828 9.96094 30.9781 9.96094 32.373V47.3145C9.96094 48.7087 11.0563 49.8047 12.4512 49.8047H27.3926C28.7875 49.8047 29.8828 48.7087 29.8828 47.3145V32.373C29.8828 30.9781 28.7875 29.8828 27.3926 29.8828Z" fill="#FDBF00"></path><path d="M29.8828 32.373V47.3145C29.8828 48.7087 28.7875 49.8047 27.3926 49.8047H19.9219V29.8828H27.3926C28.7875 29.8828 29.8828 30.9781 29.8828 32.373Z" fill="#FF9F00"></path><path d="M85 2.49023C85 3.88451 83.9047 4.98047 82.5098 4.98047H19.9219V0H82.5098C83.9047 0 85 1.09531 85 2.49023Z" fill="#5A5A5A"></path><path d="M38.0505 19.9219H1.79297L5.17943 11.505C5.52832 10.5589 6.47448 9.96094 7.47057 9.96094H32.3729C33.369 9.96094 34.3152 10.5589 34.6641 11.505L38.0505 19.9219Z" fill="#FF7816"></path><path d="M38.0507 19.9219H19.9219V9.96094H32.373C33.3691 9.96094 34.3153 10.5589 34.6642 11.505L38.0507 19.9219Z" fill="#DD3400"></path><svg xmlns="http://www.w3.org/2000/svg" width="85" height="85" viewBox="0 0 85 85" fill="none"><path d="M46.8967 16.1206H38.1035V24.9138H46.8967V16.1206Z" fill="#5B5D6E"></path><path d="M48.3629 17.5862H36.6389C31.7826 17.5862 27.8457 13.6495 27.8457 8.79302C27.8457 3.93673 31.7824 0 36.6389 0H48.3631C53.2194 0 57.1563 3.93673 57.1563 8.79318C57.1561 13.6495 53.2194 17.5862 48.3629 17.5862Z" fill="#FFDC64"></path><path d="M48.3628 13.1897H36.6388C34.2106 13.1897 32.2422 11.2212 32.2422 8.79308C32.2422 6.36493 34.2106 4.39648 36.6388 4.39648H48.363C50.7911 4.39648 52.7596 6.36493 52.7596 8.79308C52.7594 11.2214 50.7911 13.1897 48.3628 13.1897Z" fill="#FFC850"></path><path d="M74.7422 46.8966C75.0628 46.8966 75.3864 46.7922 75.6566 46.576C76.2877 46.0693 76.3909 45.1476 75.8856 44.5151L64.1614 29.8599C63.6547 29.2315 62.7345 29.1256 62.1005 29.6309C61.4694 30.1376 61.3662 31.0593 61.8715 31.6919L73.5957 46.3471C73.8862 46.7076 74.3112 46.8966 74.7422 46.8966Z" fill="#5B5D6E"></path><path d="M61.5521 26.3794C63.9802 26.3794 65.9487 28.3478 65.9487 30.776C65.9487 33.2041 63.9802 35.1726 61.5521 35.1726H58.6211V26.3794H61.5521Z" fill="#7F8499"></path><path d="M74.7416 48.362C76.3603 48.362 77.6726 47.0498 77.6726 45.431C77.6726 43.8123 76.3603 42.5 74.7416 42.5C73.1228 42.5 71.8105 43.8123 71.8105 45.431C71.8105 47.0498 73.1228 48.362 74.7416 48.362Z" fill="#FFDC64"></path><path d="M74.7423 58.6207H77.6733C78.4833 58.6207 79.1389 57.9652 79.1389 57.1551V51.2931C79.1389 48.8688 77.1666 46.8965 74.7423 46.8965C72.318 46.8965 70.3457 48.8688 70.3457 51.2931C70.3457 52.1031 71.0011 52.7587 71.8113 52.7587C72.6213 52.7587 73.2769 52.1032 73.2769 51.2931C73.2769 50.4844 73.9338 49.8275 74.7425 49.8275C75.5511 49.8275 76.208 50.4844 76.208 51.2931V55.6897H74.7425C73.9325 55.6897 73.2769 56.3451 73.2769 57.1553C73.2767 57.9652 73.9321 58.6207 74.7423 58.6207Z" fill="#7F8499"></path><path d="M10.2571 46.8966C9.93649 46.8966 9.61292 46.7922 9.34265 46.576C8.71163 46.0693 8.60836 45.1476 9.11372 44.5151L20.8379 29.8599C21.3446 29.2315 22.2648 29.1256 22.8988 29.6309C23.5298 30.1376 23.6331 31.0593 23.1278 31.6919L11.4036 46.3469C11.113 46.7076 10.688 46.8966 10.2571 46.8966Z" fill="#5B5D6E"></path><path d="M49.8271 46.8965H35.1719V58.6207H49.8271V46.8965Z" fill="#7F8499"></path><path d="M60.0865 63.0173H24.9141V60.0863C24.9141 58.4675 26.2262 57.1553 27.8451 57.1553H57.1555C58.7743 57.1553 60.0865 58.4675 60.0865 60.0863V63.0173Z" fill="#FFDC64"></path><path d="M36.6383 57.1553H27.8451C26.2264 57.1553 24.9141 58.4675 24.9141 60.0863V63.0173H33.7072V60.0863C33.7071 58.4675 35.0196 57.1553 36.6383 57.1553Z" fill="#FFC850"></path><path d="M64.4827 84.9999H20.5172C14.0525 84.9999 8.79297 79.7404 8.79297 73.2757C8.79297 66.8111 14.0525 61.5515 20.5172 61.5515H64.4827C70.9474 61.5515 76.2069 66.8111 76.2069 73.2757C76.2069 79.7404 70.9472 84.9999 64.4827 84.9999Z" fill="#AFB9D2"></path><path d="M20.5178 64.4829C15.669 64.4829 11.7246 68.4271 11.7246 73.2761C11.7246 78.1249 15.6688 82.0693 20.5178 82.0693H64.4834C69.3322 82.0693 73.2766 78.1251 73.2766 73.2761C73.2766 68.4273 69.3324 64.4829 64.4834 64.4829H20.5178Z" fill="#5B5D6E"></path><path d="M49.8271 46.8965H35.1719V51.2931H49.8271V46.8965Z" fill="#707487"></path><path d="M46.8967 20.5171H38.1035V24.9137H46.8967V20.5171Z" fill="#707487"></path><path d="M36.6377 10.9914C37.8517 10.9914 38.8359 10.0072 38.8359 8.79318C38.8359 7.57914 37.8517 6.59497 36.6377 6.59497C35.4236 6.59497 34.4395 7.57914 34.4395 8.79318C34.4395 10.0072 35.4236 10.9914 36.6377 10.9914Z" fill="white"></path><path d="M48.3623 10.9914C49.5763 10.9914 50.5605 10.0072 50.5605 8.79318C50.5605 7.57914 49.5763 6.59497 48.3623 6.59497C47.1482 6.59497 46.1641 7.57914 46.1641 8.79318C46.1641 10.0072 47.1482 10.9914 48.3623 10.9914Z" fill="white"></path><path d="M23.4474 26.3794C21.0192 26.3794 19.0508 28.3478 19.0508 30.776C19.0508 33.2041 21.0192 35.1726 23.4474 35.1726H26.3784V26.3794H23.4474Z" fill="#7F8499"></path><path d="M10.2591 48.362C11.8779 48.362 13.1901 47.0498 13.1901 45.431C13.1901 43.8123 11.8779 42.5 10.2591 42.5C8.64038 42.5 7.32812 43.8123 7.32812 45.431C7.32812 47.0498 8.64038 48.362 10.2591 48.362Z" fill="#FFDC64"></path><path d="M10.2579 58.6207H7.32691C6.51692 58.6207 5.86133 57.9652 5.86133 57.1551V51.2931C5.86133 48.8688 7.83359 46.8965 10.2579 46.8965C12.6822 46.8965 14.6545 48.8688 14.6545 51.2931C14.6545 52.1031 13.9991 52.7587 13.1889 52.7587C12.3789 52.7587 11.7233 52.1032 11.7233 51.2931C11.7233 50.4844 11.0664 49.8275 10.2578 49.8275C9.44909 49.8275 8.79217 50.4844 8.79217 51.2931V55.6897H10.2578C11.0677 55.6897 11.7233 56.3451 11.7233 57.1553C11.7235 57.9652 11.0681 58.6207 10.2579 58.6207Z" fill="#7F8499"></path><path d="M27.8457 42.5V45.431C27.8457 47.0497 29.1581 48.362 30.7767 48.362H54.2249C55.8436 48.362 57.1559 47.0497 57.1559 45.431V42.5H27.8457Z" fill="#959CB5"></path><path d="M57.1555 42.5001H27.8451C26.2262 42.5001 24.9141 41.1879 24.9141 39.5691V26.3795C24.9141 24.7607 26.2262 23.4485 27.8451 23.4485H57.1555C58.7743 23.4485 60.0865 24.7607 60.0865 26.3795V39.5691C60.0865 41.1879 58.7743 42.5001 57.1555 42.5001Z" fill="#FFDC64"></path><path d="M33.7072 39.5691V26.3795C33.7072 24.7607 35.0196 23.4485 36.6383 23.4485H27.8451C26.2264 23.4485 24.9141 24.7607 24.9141 26.3795V39.5691C24.9141 41.1878 26.2264 42.5001 27.8451 42.5001H36.6383C35.0198 42.5001 33.7072 41.1878 33.7072 39.5691Z" fill="#FFC850"></path><path d="M54.2247 31.5085H30.7763C29.5628 31.5085 28.5781 30.5238 28.5781 29.3103C28.5781 28.0967 29.5628 27.1121 30.7763 27.1121H54.2246C55.4381 27.1121 56.4228 28.0967 56.4228 29.3103C56.4228 30.5238 55.4383 31.5085 54.2247 31.5085Z" fill="#959CB5"></path><path d="M20.5163 79.1381C17.2833 79.1381 14.6543 76.5089 14.6543 73.2761C14.6543 70.0433 17.2835 67.4141 20.5163 67.4141C23.7491 67.4141 26.3783 70.0433 26.3783 73.2761C26.3783 76.5089 23.7493 79.1381 20.5163 79.1381Z" fill="#7F8499"></path><path d="M20.5169 70.3447C18.9013 70.3447 17.5859 71.6601 17.5859 73.2757C17.5859 74.8914 18.9013 76.2067 20.5169 76.2067C22.1326 76.2067 23.4479 74.8914 23.4479 73.2757C23.4479 71.6601 22.1328 70.3447 20.5169 70.3447Z" fill="#707487"></path><path d="M35.1726 79.1381C31.9396 79.1381 29.3105 76.5089 29.3105 73.2761C29.3105 70.0433 31.9397 67.4141 35.1726 67.4141C38.4054 67.4141 41.0346 70.0433 41.0346 73.2761C41.0346 76.5089 38.4055 79.1381 35.1726 79.1381Z" fill="#7F8499"></path><path d="M35.1732 70.3447C33.5575 70.3447 32.2422 71.6601 32.2422 73.2757C32.2422 74.8914 33.5575 76.2067 35.1732 76.2067C36.7889 76.2067 38.1042 74.8914 38.1042 73.2757C38.1042 71.6601 36.7889 70.3447 35.1732 70.3447Z" fill="#707487"></path><path d="M49.8269 79.1381C46.5939 79.1381 43.9648 76.5089 43.9648 73.2761C43.9648 70.0433 46.594 67.4141 49.8269 67.4141C53.0597 67.4141 55.6889 70.0433 55.6889 73.2761C55.6889 76.5089 53.0598 79.1381 49.8269 79.1381Z" fill="#7F8499"></path><path d="M49.8275 70.3447C48.2118 70.3447 46.8965 71.6601 46.8965 73.2757C46.8965 74.8914 48.2118 76.2067 49.8275 76.2067C51.4432 76.2067 52.7585 74.8914 52.7585 73.2757C52.7585 71.6601 51.4432 70.3447 49.8275 70.3447Z" fill="#707487"></path><path d="M64.4831 79.1381C61.2501 79.1381 58.6211 76.5089 58.6211 73.2761C58.6211 70.0433 61.2503 67.4141 64.4831 67.4141C67.7159 67.4141 70.3451 70.0433 70.3451 73.2761C70.3451 76.5089 67.7159 79.1381 64.4831 79.1381Z" fill="#7F8499"></path><path d="M64.4837 70.3447C62.8681 70.3447 61.5527 71.6601 61.5527 73.2757C61.5527 74.8914 62.8681 76.2067 64.4837 76.2067C66.0994 76.2067 67.4147 74.8914 67.4147 73.2757C67.4147 71.6601 66.0994 70.3447 64.4837 70.3447Z" fill="#707487"></path><path d="M54.2236 31.5085C55.4376 31.5085 56.4218 30.5243 56.4218 29.3103C56.4218 28.0962 55.4376 27.1121 54.2236 27.1121C53.0096 27.1121 52.0254 28.0962 52.0254 29.3103C52.0254 30.5243 53.0096 31.5085 54.2236 31.5085Z" fill="#FF5050"></path><path d="M47.6299 31.5085C48.8439 31.5085 49.8281 30.5243 49.8281 29.3103C49.8281 28.0962 48.8439 27.1121 47.6299 27.1121C46.4158 27.1121 45.4316 28.0962 45.4316 29.3103C45.4316 30.5243 46.4158 31.5085 47.6299 31.5085Z" fill="#9BF57D"></path></svg></g><defs><clipPath id="clip0_131_1822"><rect width="85" height="85" fill="white"></rect></clipPath></defs></svg>