<svg xmlns="http://www.w3.org/2000/svg" width="85" height="85" viewBox="0 0 85 85" fill="none"><g clip-path="url(#clip0_156_347)"><path d="M45.6014 5.46459C43.5269 3.39006 40.1634 3.39006 38.0889 5.46459L18.345 25.2085C16.2704 27.283 16.2704 30.6465 18.345 32.721C20.4195 34.7956 23.783 34.7956 25.8575 32.721L45.6014 12.9771C47.6759 10.9026 47.6759 7.53912 45.6014 5.46459Z" fill="#FBC700"></path><path d="M48.3273 45.0815C48.0655 45.3133 33.0227 60.3704 33.0227 60.3704C30.9482 62.4449 30.9482 65.8084 33.0227 67.883C35.0972 69.9575 38.4607 69.9575 40.5352 67.883C40.5352 67.883 55.592 52.8406 55.8241 52.5783C56.483 48.1747 52.6989 44.4278 48.3273 45.0815Z" fill="#FBC700"></path><path d="M71.5251 22.6406L70.6661 16.8337C70.5951 16.3536 70.2591 15.9545 69.798 15.8029L64.2 13.9615C63.7403 13.8103 63.2344 13.9306 62.8921 14.2729L53.2194 23.9458C52.8772 24.288 52.7567 24.7938 52.9081 25.2535L54.7495 30.8518C54.9011 31.3133 55.3007 31.6493 55.7812 31.72L61.5827 32.5735C61.646 32.5828 61.7089 32.5873 61.7712 32.5873C62.4324 32.5873 63.0068 32.0751 63.05 31.3807C63.0918 30.7082 62.5777 30.1269 61.911 30.0288L57.6492 29.4019C57.2137 29.3379 56.852 29.0334 56.7143 28.6154L55.8149 25.8809C55.6779 25.4644 55.787 25.0062 56.0971 24.6961L63.6425 17.1505C63.9526 16.8404 64.4108 16.7313 64.8274 16.8683L67.563 17.7682C67.9807 17.9057 68.2851 18.2671 68.3494 18.7021L68.9875 23.016C69.0911 23.7169 69.7436 24.2005 70.444 24.0972C71.1449 23.9935 71.6289 23.3414 71.5251 22.6406Z" fill="#7B6C79"></path><path d="M26.7397 62.9337H18.7715V58.6635C18.7715 56.4631 20.5552 54.6794 22.7555 54.6794C24.9559 54.6794 26.7396 56.4631 26.7396 58.6635L26.7397 62.9337Z" fill="#F45D5D"></path><path d="M13.459 62.2546V83.8245C13.459 84.4663 13.9793 84.9866 14.6211 84.9866H18.6613L28.2631 79.6811L26.6161 61.0923H14.6211C13.9793 61.0925 13.459 61.6127 13.459 62.2546Z" fill="#7B6C79"></path><path d="M34.0078 78.4705V61.0925H26.6153C26.1619 61.8748 25.9004 62.7822 25.9004 63.7514V73.2002C25.9004 73.842 25.3801 74.3623 24.7383 74.3623H22.9387C22.2776 74.3623 21.7415 74.8982 21.7415 75.5595V78.5258C21.7415 79.1676 21.2212 79.6879 20.5794 79.6879H18.83C18.1689 79.6879 17.6328 80.2238 17.6328 80.8851V83.803C17.6328 84.4064 18.0797 84.9042 18.6603 84.9867H23.8322L34.0078 78.4705Z" fill="#6D5F6C"></path><path d="M54.3499 44.8518L24.41 26.3331C23.897 26.015 23.351 25.7965 22.7937 25.6692C18.6476 26.5187 16.3744 31.0268 18.1333 34.8636C18.7019 35.3547 48.7516 53.8812 48.7516 53.8812C51.245 55.4272 54.5196 54.659 56.0655 52.1656C57.6115 49.6724 56.8433 46.3977 54.3499 44.8518Z" fill="#FFE02F"></path><path d="M58.9269 16.2208L58.31 19.5977L55.1708 19.9771L45.0357 12.7378C43.4591 11.6117 43.2711 9.33946 44.6411 7.96933L46.9193 5.6911C48.2893 4.32114 50.5616 4.50923 51.6878 6.08572L58.9269 16.2208Z" fill="#FFE02F"></path><path d="M62.8631 19.7963L58.7456 23.9139C58.2781 24.3814 57.52 24.3814 57.0525 23.9139L54.9893 21.8506C54.5218 21.3831 54.5218 20.6251 54.9893 20.1576L59.1068 16.0401C59.5743 15.5726 60.3323 15.5726 60.7998 16.0401L62.8631 18.1033C63.3306 18.5708 63.3306 19.3288 62.8631 19.7963Z" fill="#ECEBFC"></path><path d="M31.0314 75.9989H39.4869V63.7516C39.4869 58.7609 34.5385 58.6787 33.7778 59.0991C32.1402 60.004 31.0312 61.7483 31.0312 63.7516L31.0314 75.9989Z" fill="#ECEBFC"></path><path d="M33.7793 59.0997C34.5398 58.6793 35.4141 58.4395 36.3446 58.4395C39.2784 58.4395 41.6567 60.8178 41.6567 63.7516V75.9989H36.5262V63.7516C36.5262 61.7481 35.4169 60.0045 33.7793 59.0997Z" fill="#DCDCEE"></path><path d="M23.9608 79.6879H25.7103C26.3521 79.6879 26.8724 79.1676 26.8724 78.5258V75.5594C26.8724 74.8984 27.4083 74.3623 28.0695 74.3623H40.2514C40.9125 74.3623 41.4486 74.8982 41.4486 75.5594L44.3601 79.6879C45.0212 79.6879 45.5573 80.2238 45.5573 80.8851V83.8029C45.5573 84.464 45.0214 85.0001 44.3601 85.0001H23.9608C23.2997 85.0001 22.7637 84.4642 22.7637 83.8029V80.8851C22.7637 80.224 23.2997 79.6879 23.9608 79.6879Z" fill="#26A6FE"></path><path d="M44.7922 83.8029V80.8851C44.7922 80.224 44.2563 79.6879 43.595 79.6879H41.8456C41.2038 79.6879 40.6835 79.1676 40.6835 78.5258V75.5594C40.6835 74.8982 40.1476 74.3623 39.4863 74.3623H44.6169C45.2779 74.3623 45.814 74.8982 45.814 75.5594V78.5258C45.814 79.1676 46.3343 79.6879 46.9761 79.6879H48.7256C49.3867 79.6879 49.9227 80.2238 49.9227 80.8851V83.8029C49.9227 84.464 49.3868 85.0001 48.7256 85.0001H43.595C44.2561 85.0001 44.7922 84.4642 44.7922 83.8029Z" fill="#0593FC"></path><path d="M49.0971 55.3056C49.8855 55.6393 54.8781 55.631 54.8781 49.2363C54.8781 43.1392 49.8863 42.8332 49.0981 43.1664C43.7484 45.4294 43.7386 53.038 49.0971 55.3056Z" fill="#7B6C79"></path><path d="M49.0977 43.1669C53.4074 41.3432 58.2504 44.5013 58.2504 49.2363C58.2504 53.9723 53.4066 57.129 49.0977 55.3055C54.4473 53.0415 54.4553 45.4342 49.0977 43.1669Z" fill="#6D5F6C"></path><path d="M19.1109 36.6186C19.8993 36.9523 24.8919 36.944 24.8919 30.5493C24.8919 24.4522 19.9001 24.1462 19.1119 24.4794C13.762 26.7424 13.7522 34.3509 19.1109 36.6186Z" fill="#7B6C79"></path><path d="M19.1113 24.4799C23.4211 22.6562 28.2641 25.8142 28.2641 30.5493C28.2641 35.2854 23.4203 38.442 19.1113 36.6185C24.4608 34.3547 24.469 26.7473 19.1113 24.4799Z" fill="#6D5F6C"></path><path d="M41.7398 12.6626C42.5282 12.9963 47.5208 12.988 47.5208 6.5932C47.5208 0.496115 42.529 0.190149 41.7408 0.523342C36.3909 2.7863 36.3811 10.3948 41.7398 12.6626Z" fill="#7B6C79"></path><path d="M41.7402 0.523836C46.05 -1.29985 50.893 1.8581 50.893 6.5932C50.893 11.3293 46.0492 14.4859 41.7402 12.6624C47.0899 10.3986 47.0979 2.79128 41.7402 0.523836Z" fill="#6D5F6C"></path><path d="M44.3134 5.31421C43.5939 5.31421 43.0293 5.89892 43.0293 6.59635C43.0293 7.28797 43.5903 7.87898 44.3119 7.87898C45.0107 7.87898 45.5946 7.31154 45.5946 6.59635C45.5944 5.88447 45.0172 5.31421 44.3134 5.31421Z" fill="#DCDCEE"></path><path d="M21.683 31.8348C22.4181 31.8348 22.9657 31.2295 22.9657 30.5522C22.9657 29.8612 22.4047 29.2695 21.6829 29.2695C20.9688 29.2695 20.4004 29.8506 20.4004 30.5522C20.4004 31.2674 20.9846 31.8348 21.683 31.8348Z" fill="#DCDCEE"></path><path d="M51.6728 47.957C50.9548 47.957 50.3887 48.5374 50.3887 49.239C50.3887 49.9235 50.934 50.5216 51.6713 50.5216C52.3551 50.5216 52.9539 49.965 52.9539 49.239C52.9539 48.57 52.4152 47.957 51.6728 47.957Z" fill="#DCDCEE"></path><path d="M36.3496 62.4722C35.6293 62.4722 35.0625 63.0519 35.0625 63.7551C35.0625 64.4624 35.6389 65.0378 36.3451 65.0378C37.0736 65.0378 37.6278 64.4383 37.6278 63.7551C37.6276 63.0137 37.0195 62.4722 36.3496 62.4722Z" fill="#7B6C79"></path><path d="M18.7709 67.6932H22.5893C23.2977 67.6932 23.8719 67.119 23.8719 66.4106C23.8719 65.7022 23.2977 65.1279 22.5893 65.1279H18.7709C18.0625 65.1279 17.4883 65.7022 17.4883 66.4106C17.4883 67.119 18.0625 67.6932 18.7709 67.6932Z" fill="#6D5F6C"></path><path d="M22.9387 70.4399H18.7709C18.0625 70.4399 17.4883 71.0142 17.4883 71.7226C17.4883 72.431 18.0625 73.0052 18.7709 73.0052H22.9387C23.6471 73.0052 24.2214 72.431 24.2214 71.7226C24.2214 71.0142 23.6471 70.4399 22.9387 70.4399Z" fill="#6D5F6C"></path></g><defs><clipPath id="clip0_156_347"><rect width="85" height="85" fill="white"></rect></clipPath></defs></svg>