<svg xmlns="http://www.w3.org/2000/svg" width="20" height="20" viewBox="0 0 20 20" fill="none"><path d="M0.257812 10.0078L1.07422 10.8672C1.28906 11.082 1.63281 11.082 1.80469 10.8672L8.50781 4.20703V18.8594C8.50781 19.1602 8.72266 19.375 9.02344 19.375H10.2266C10.4844 19.375 10.7422 19.1602 10.7422 18.8594V4.20703L17.4023 10.8672C17.5742 11.082 17.918 11.082 18.1328 10.8672L18.9492 10.0078C19.1641 9.83594 19.1641 9.49219 18.9492 9.27734L9.96875 0.296875C9.75391 0.0820312 9.45312 0.0820312 9.23828 0.296875L0.257812 9.27734C0.0429688 9.49219 0.0429688 9.83594 0.257812 10.0078Z" fill="currentColor"></path></svg>