<svg xmlns="http://www.w3.org/2000/svg" width="23" height="23" viewBox="0 0 23 23" fill="none"><path d="M16.9651 6.03956L15.9956 6.0147C15.747 6.0147 15.5482 6.21357 15.573 6.4373V14.1437L7.07117 5.64181C6.92202 5.49265 6.62371 5.49265 6.47455 5.64181L5.77849 6.33787C5.60448 6.51188 5.62934 6.78533 5.77849 6.93449L14.2803 15.4363L6.54913 15.4612C6.3254 15.4363 6.12652 15.6352 6.12652 15.8838L6.15138 16.8533C6.12652 17.077 6.3254 17.2759 6.57399 17.2759H16.9651C17.2137 17.2759 17.3878 17.1019 17.3878 16.8533V6.46216C17.3878 6.21357 17.1889 6.0147 16.9651 6.03956Z" fill="#FF5E14"></path></svg>