<svg xmlns="http://www.w3.org/2000/svg" width="16" height="17" viewBox="0 0 16 17" fill="none"><path d="M7.66406 0.621094L6.96094 1.28906C6.78516 1.46484 6.78516 1.74609 6.96094 1.88672L12.4102 7.33594H0.421875C0.175781 7.33594 0 7.54688 0 7.75781V8.74219C0 8.98828 0.175781 9.16406 0.421875 9.16406H12.4102L6.96094 14.6484C6.78516 14.7891 6.78516 15.0703 6.96094 15.2461L7.66406 15.9141C7.80469 16.0898 8.08594 16.0898 8.26172 15.9141L15.6094 8.56641C15.7852 8.39062 15.7852 8.14453 15.6094 7.96875L8.26172 0.621094C8.08594 0.445312 7.80469 0.445312 7.66406 0.621094Z" fill="currentColor"></path></svg>