<svg xmlns="http://www.w3.org/2000/svg" width="65" height="6" viewBox="0 0 65 6" fill="none"><path d="M56.1621 5.58787C53.8215 5.58787 52.6293 4.49675 51.5774 3.53405C50.6277 2.66467 49.8774 1.97795 48.2742 1.97795C46.671 1.97795 45.9207 2.66467 44.9708 3.53405C43.919 4.49675 42.7269 5.58787 40.3861 5.58787C38.0454 5.58787 36.8534 4.49675 35.8015 3.53405C34.8518 2.66467 34.1017 1.97795 32.4984 1.97795C30.8953 1.97795 30.1452 2.66467 29.1955 3.53405C28.1437 4.49675 26.9516 5.58787 24.6109 5.58787C22.2705 5.58787 21.0786 4.49675 20.0269 3.53405C19.0773 2.66467 18.3271 1.97795 16.7242 1.97795C15.1212 1.97795 14.371 2.66467 13.4213 3.53405C12.3696 4.49675 11.1774 5.58787 8.83682 5.58787C6.49611 5.58787 5.30393 4.49675 4.25203 3.53405C3.3023 2.66467 2.55217 1.97795 0.948937 1.97795C0.424966 1.97795 0 1.55314 0 1.02902C0 0.505044 0.424966 0.0800781 0.948937 0.0800781C3.28949 0.0800781 4.48167 1.1712 5.53357 2.13389C6.4833 3.00328 7.23359 3.68999 8.83682 3.68999C10.4399 3.68999 11.19 3.00328 12.1398 2.13405C13.1915 1.1712 14.3837 0.0800781 16.7242 0.0800781C19.0646 0.0800781 20.2567 1.17136 21.3084 2.13405C22.258 3.00344 23.0079 3.68999 24.6109 3.68999C26.2141 3.68999 26.9642 3.00328 27.9139 2.13405C28.9657 1.1712 30.1579 0.0800781 32.4984 0.0800781C34.8391 0.0800781 36.0312 1.1712 37.0831 2.13405C38.0328 3.00328 38.7831 3.68999 40.3861 3.68999C41.9895 3.68999 42.7397 3.00328 43.6894 2.13405C44.7413 1.1712 45.9335 0.0800781 48.2742 0.0800781C50.6149 0.0800781 51.8071 1.1712 52.859 2.13405C53.8087 3.00328 54.5588 3.68999 56.1621 3.68999C57.7656 3.68999 58.5159 3.00328 59.466 2.13389C60.5179 1.1712 61.7102 0.0800781 64.0511 0.0800781C64.575 0.0800781 65 0.505044 65 1.02902C65 1.55314 64.575 1.97795 64.0511 1.97795C62.4475 1.97795 61.6972 2.66467 60.7472 3.53405C59.6953 4.49675 58.5031 5.58787 56.1621 5.58787Z" fill="curentColor"></path></svg>