<svg xmlns="http://www.w3.org/2000/svg" width="204" height="44" viewBox="0 0 204 44" fill="none"><path d="M38.3086 20.2192V10.3755C38.3086 10.1821 38.2031 10.0063 38.0361 9.90967L30.3018 5.69092C30.1436 5.60303 29.9502 5.60303 29.8008 5.69092L27.7617 6.79834V4.75049C27.7617 4.55713 27.6562 4.38135 27.4893 4.28467L19.7549 0.065918C19.5967 -0.0219727 19.4033 -0.0219727 19.2539 0.065918L11.5195 4.28467C11.3525 4.38135 11.2471 4.55713 11.2471 4.75049V6.79834L9.2168 5.69092C9.05859 5.60303 8.86523 5.60303 8.71582 5.69092L0.981445 9.90967C0.814453 10.0063 0.708984 10.1821 0.708984 10.3755V20.2192C0.708984 20.4126 0.814453 20.5884 0.981445 20.6851L2.69531 21.6255L0.963867 22.5659C0.796875 22.6626 0.691406 22.8384 0.691406 23.0317V32.8755C0.691406 33.0689 0.796875 33.2446 0.963867 33.3413L8.69824 37.5601C8.85645 37.648 9.0498 37.648 9.19922 37.5601L11.2295 36.4526V38.5005C11.2295 38.6939 11.335 38.8696 11.502 38.9663L19.2363 43.1851C19.3945 43.273 19.5879 43.273 19.7373 43.1851L27.4717 38.9663C27.6387 38.8696 27.7441 38.6939 27.7441 38.5005V36.4439L29.7744 37.5513C29.9326 37.6392 30.126 37.6392 30.2754 37.5513L38.0098 33.3325C38.1768 33.2358 38.2822 33.0601 38.2822 32.8667V23.0317C38.2822 22.8384 38.1768 22.6626 38.0098 22.5659L36.3047 21.6255L38.0361 20.6851C38.2031 20.5884 38.3086 20.4126 38.3086 20.2192ZM30.0469 6.7544L36.6826 10.3755L30.0469 13.9966L23.4111 10.3755L30.0469 6.7544ZM29.5195 36.2065L27.7617 35.2485V28.6567C27.7617 28.4634 27.6562 28.2876 27.4893 28.1909L25.7578 27.2505L27.3486 26.3804L29.5195 27.5669V36.2065ZM19.5 32.2778L12.8643 28.6567L14.3408 27.8481L19.2451 30.52C19.4033 30.6079 19.5967 30.6079 19.7461 30.52L24.6504 27.8481L26.127 28.6567L19.5 32.2778ZM9.48047 14.9106L16.1602 11.272V13.0122L11.5107 15.5435C11.3438 15.6401 11.2383 15.8159 11.2383 16.0093V22.6011L9.48047 23.5591V14.9106ZM12.293 5.63818L18.9727 9.27686V11.4653L17.2148 12.4233V10.3755C17.2148 10.1821 17.1094 10.0063 16.9424 9.90967L12.293 7.37842V5.63818ZM26.707 7.37842L22.0576 9.90967C21.8906 10.0063 21.7852 10.1821 21.7852 10.3755V12.4321L20.0273 11.4741V9.28565L26.707 5.64697V7.37842ZM20.0273 29.1753V20.5356L26.707 16.897V25.5366L20.0273 29.1753ZM19.5 19.6216L12.8643 16.0005L19.5 12.3794L26.1357 16.0005L19.5 19.6216ZM12.293 16.8882L18.9727 20.5269V29.1665L12.293 25.519V16.8882ZM27.4893 15.5347L22.8398 13.0034V11.2632L29.5195 14.9019V23.5415L27.7617 22.5923V16.0005C27.7617 15.8071 27.6562 15.6314 27.4893 15.5347ZM19.5 1.12939L26.1357 4.75049L19.5 8.37158L12.8643 4.75049L19.5 1.12939ZM8.95312 6.7544L15.5889 10.3755L8.95312 13.9966L2.31738 10.3755L8.95312 6.7544ZM1.74609 19.9028V11.2632L8.42578 14.9019V23.5415L4.04883 21.1509L1.74609 19.9028ZM3.79395 22.2231L8.69824 24.895C8.85645 24.9829 9.0498 24.9829 9.19922 24.895L11.2295 23.7876V25.4048L8.94433 26.6528L2.31738 23.0317L3.79395 22.2231ZM1.74609 23.9194L8.42578 27.5669V36.2065L1.74609 32.5591V23.9194ZM9.48047 36.2065V27.5669L11.6514 26.3804L13.2422 27.2505L11.5107 28.1909C11.3438 28.2876 11.2383 28.4634 11.2383 28.6567V35.2485L9.48047 36.2065ZM12.293 29.5444L18.9727 33.1919V41.8315L12.293 38.1841V29.5444ZM26.707 38.1841L20.0273 41.8315V33.1919L26.707 29.5444V38.1841ZM30.5742 36.2065V27.5669L37.2539 23.9194V32.5591L30.5742 36.2065ZM36.6826 23.0317L30.0469 26.6528L27.7617 25.4048V23.7876L29.792 24.895C29.9502 24.9829 30.1436 24.9829 30.293 24.895L35.1973 22.2231L36.6826 23.0317ZM34.9512 21.1597L30.5742 23.5503V14.9106L37.2539 11.272V19.9116L34.9512 21.1597Z" fill="#CB0000"></path><path d="M51.5086 36V7.2H56.3286V36H51.5086ZM76.4595 36V25.6C76.4595 24.92 76.4129 24.1667 76.3195 23.34C76.2262 22.5133 76.0062 21.72 75.6595 20.96C75.3262 20.1867 74.8195 19.5533 74.1395 19.06C73.4729 18.5667 72.5662 18.32 71.4195 18.32C70.8062 18.32 70.1995 18.42 69.5995 18.62C68.9995 18.82 68.4529 19.1667 67.9595 19.66C67.4795 20.14 67.0929 20.8067 66.7995 21.66C66.5062 22.5 66.3595 23.58 66.3595 24.9L63.4995 23.68C63.4995 21.84 63.8529 20.1733 64.5595 18.68C65.2795 17.1867 66.3329 16 67.7195 15.12C69.1062 14.2267 70.8129 13.78 72.8395 13.78C74.4395 13.78 75.7595 14.0467 76.7995 14.58C77.8395 15.1133 78.6662 15.7933 79.2795 16.62C79.8929 17.4467 80.3462 18.3267 80.6395 19.26C80.9329 20.1933 81.1195 21.08 81.1995 21.92C81.2929 22.7467 81.3395 23.42 81.3395 23.94V36H76.4595ZM61.4795 36V14.4H65.7795V21.1H66.3595V36H61.4795ZM94.067 36.6C92.0804 36.6 90.347 36.1 88.867 35.1C87.387 34.1 86.2404 32.74 85.427 31.02C84.6137 29.3 84.207 27.36 84.207 25.2C84.207 23.0133 84.6137 21.0667 85.427 19.36C86.2537 17.64 87.4204 16.2867 88.927 15.3C90.4337 14.3 92.207 13.8 94.247 13.8C96.3004 13.8 98.0204 14.3 99.407 15.3C100.807 16.2867 101.867 17.64 102.587 19.36C103.307 21.08 103.667 23.0267 103.667 25.2C103.667 27.3467 103.307 29.2867 102.587 31.02C101.867 32.74 100.794 34.1 99.367 35.1C97.9404 36.1 96.1737 36.6 94.067 36.6ZM94.807 32.28C96.1004 32.28 97.1404 31.9867 97.927 31.4C98.727 30.8 99.307 29.9667 99.667 28.9C100.04 27.8333 100.227 26.6 100.227 25.2C100.227 23.7867 100.04 22.5533 99.667 21.5C99.307 20.4333 98.7404 19.6067 97.967 19.02C97.1937 18.42 96.1937 18.12 94.967 18.12C93.6737 18.12 92.607 18.44 91.767 19.08C90.927 19.7067 90.307 20.56 89.907 21.64C89.507 22.7067 89.307 23.8933 89.307 25.2C89.307 26.52 89.5004 27.72 89.887 28.8C90.287 29.8667 90.8937 30.7133 91.707 31.34C92.5204 31.9667 93.5537 32.28 94.807 32.28ZM100.227 36V20.84H99.627V7.2H104.487V36H100.227ZM117.395 36.62C115.795 36.62 114.475 36.3533 113.435 35.82C112.395 35.2867 111.568 34.6067 110.955 33.78C110.341 32.9533 109.888 32.0733 109.595 31.14C109.301 30.2067 109.108 29.3267 109.015 28.5C108.935 27.66 108.895 26.98 108.895 26.46V14.4H113.775V24.8C113.775 25.4667 113.821 26.22 113.915 27.06C114.008 27.8867 114.221 28.6867 114.555 29.46C114.901 30.22 115.408 30.8467 116.075 31.34C116.755 31.8333 117.668 32.08 118.815 32.08C119.428 32.08 120.035 31.98 120.635 31.78C121.235 31.58 121.775 31.24 122.255 30.76C122.748 30.2667 123.141 29.5933 123.435 28.74C123.728 27.8867 123.875 26.8067 123.875 25.5L126.735 26.72C126.735 28.56 126.375 30.2267 125.655 31.72C124.948 33.2133 123.901 34.4067 122.515 35.3C121.128 36.18 119.421 36.62 117.395 36.62ZM124.455 36V29.3H123.875V14.4H128.715V36H124.455ZM141.874 36.6C139.207 36.6 137.04 36 135.374 34.8C133.707 33.6 132.694 31.9133 132.334 29.74L137.254 28.98C137.507 30.0467 138.067 30.8867 138.934 31.5C139.8 32.1133 140.894 32.42 142.214 32.42C143.374 32.42 144.267 32.1933 144.894 31.74C145.534 31.2733 145.854 30.64 145.854 29.84C145.854 29.3467 145.734 28.9533 145.494 28.66C145.267 28.3533 144.76 28.06 143.974 27.78C143.187 27.5 141.98 27.1467 140.354 26.72C138.54 26.24 137.1 25.7267 136.034 25.18C134.967 24.62 134.2 23.96 133.734 23.2C133.267 22.44 133.034 21.52 133.034 20.44C133.034 19.0933 133.387 17.92 134.094 16.92C134.8 15.92 135.787 15.1533 137.054 14.62C138.32 14.0733 139.814 13.8 141.534 13.8C143.214 13.8 144.7 14.06 145.994 14.58C147.3 15.1 148.354 15.84 149.154 16.8C149.954 17.76 150.447 18.8867 150.634 20.18L145.714 21.06C145.594 20.14 145.174 19.4133 144.454 18.88C143.747 18.3467 142.8 18.0467 141.614 17.98C140.48 17.9133 139.567 18.0867 138.874 18.5C138.18 18.9 137.834 19.4667 137.834 20.2C137.834 20.6133 137.974 20.9667 138.254 21.26C138.534 21.5533 139.094 21.8467 139.934 22.14C140.787 22.4333 142.054 22.7933 143.734 23.22C145.454 23.66 146.827 24.1667 147.854 24.74C148.894 25.3 149.64 25.9733 150.094 26.76C150.56 27.5467 150.794 28.5 150.794 29.62C150.794 31.7933 150 33.5 148.414 34.74C146.84 35.98 144.66 36.6 141.874 36.6ZM167.034 36C165.608 36.2667 164.208 36.38 162.834 36.34C161.474 36.3133 160.254 36.0667 159.174 35.6C158.094 35.12 157.274 34.3667 156.714 33.34C156.221 32.4067 155.961 31.4533 155.934 30.48C155.908 29.5067 155.894 28.4067 155.894 27.18V8.4H160.694V26.9C160.694 27.7667 160.701 28.5267 160.714 29.18C160.741 29.8333 160.881 30.3667 161.134 30.78C161.614 31.58 162.381 32.0267 163.434 32.12C164.488 32.2133 165.688 32.16 167.034 31.96V36ZM151.974 18.18V14.4H167.034V18.18H151.974ZM171.279 11.12V6.7H176.099V11.12H171.279ZM171.279 36V14.4H176.099V36H171.279ZM190.83 36.6C188.67 36.6 186.783 36.1133 185.17 35.14C183.557 34.1667 182.303 32.8267 181.41 31.12C180.53 29.4 180.09 27.4267 180.09 25.2C180.09 22.9333 180.543 20.9467 181.45 19.24C182.357 17.5333 183.617 16.2 185.23 15.24C186.843 14.28 188.71 13.8 190.83 13.8C193.003 13.8 194.897 14.2867 196.51 15.26C198.123 16.2333 199.377 17.58 200.27 19.3C201.163 21.0067 201.61 22.9733 201.61 25.2C201.61 27.44 201.157 29.42 200.25 31.14C199.357 32.8467 198.103 34.1867 196.49 35.16C194.877 36.12 192.99 36.6 190.83 36.6ZM190.83 32.08C192.75 32.08 194.177 31.44 195.11 30.16C196.043 28.88 196.51 27.2267 196.51 25.2C196.51 23.1067 196.037 21.44 195.09 20.2C194.143 18.9467 192.723 18.32 190.83 18.32C189.537 18.32 188.47 18.6133 187.63 19.2C186.803 19.7733 186.19 20.58 185.79 21.62C185.39 22.6467 185.19 23.84 185.19 25.2C185.19 27.2933 185.663 28.9667 186.61 30.22C187.57 31.46 188.977 32.08 190.83 32.08Z" fill="#17262F"></path></svg>