<svg xmlns="http://www.w3.org/2000/svg" width="65" height="65" viewBox="0 0 65 65" fill="none"><g clip-path="url(#clip0_54_10042)"><path d="M52.2796 27.0833H55.5296C56.1279 27.0833 56.613 26.5983 56.613 26V22.75C56.613 22.1517 56.1279 21.6667 55.5296 21.6667C54.9314 21.6667 54.4463 22.1517 54.4463 22.75V24.9167H52.2796C51.6814 24.9167 51.1963 25.4017 51.1963 26C51.1963 26.5983 51.6814 27.0833 52.2796 27.0833Z" fill="currentColor"></path><path d="M26.7933 22.75C29.1864 22.75 31.1266 20.8097 31.1266 18.4167C31.1266 16.0236 29.1864 14.0833 26.7933 14.0833C24.3997 14.0833 22.46 16.0236 22.46 18.4167C22.46 20.8097 24.3997 22.75 26.7933 22.75ZM26.7933 16.25C27.9898 16.25 28.96 17.2201 28.96 18.4167C28.96 19.6132 27.9898 20.5833 26.7933 20.5833C25.5962 20.5833 24.6266 19.6132 24.6266 18.4167C24.6266 17.2201 25.5962 16.25 26.7933 16.25Z" fill="currentColor"></path><path d="M3.12846 22.3903C3.58708 22.6273 4.09648 22.7505 4.61276 22.75C5.99178 22.75 7.21847 21.8745 7.66757 20.5701L16.1872 20.4384L14.7008 21.6667C14.2913 22.0031 14.1856 22.586 14.4506 23.0446L16.4749 26.5417L16.5194 31.4167H11.1128C11.0493 31.423 10.9863 31.4357 10.925 31.4547C10.4135 29.9488 8.88737 29.0342 7.31792 29.2934C5.74899 29.5526 4.59795 30.9094 4.59795 32.5C4.59795 34.0906 5.74899 35.4474 7.31792 35.7066C8.88737 35.9658 10.4135 35.0512 10.925 33.5452C10.9863 33.5643 11.0493 33.577 11.1128 33.5833H17.6128C17.9016 33.5833 18.1788 33.468 18.3819 33.2628C18.5855 33.0575 18.6987 32.7793 18.6961 32.4905L18.6464 26.9997L22.1127 25.7001C22.3481 25.8524 22.5872 25.9915 22.8289 26.1179L23.56 30.51C23.6473 31.0321 24.0995 31.4151 24.6296 31.4145H25.1961V36.8312H21.9461C21.3478 36.8312 20.8628 37.3163 20.8628 37.9145V53.7181L11.4301 63.1507C11.1202 63.4607 11.0276 63.9267 11.1953 64.3314C11.363 64.736 11.7581 65 12.1961 65H46.8628C47.3007 65 47.6959 64.736 47.863 64.3314C48.0307 63.9267 47.9382 63.4607 47.6287 63.1507L40.3628 55.8848V50.1332L42.7881 46.0935C46.8802 48.5627 49.3542 49.8333 50.1128 49.8333H56.6128C57.211 49.8333 57.6961 49.3483 57.6961 48.75V42.6986L59.5443 40.8503C59.7469 40.6467 59.8617 40.3711 59.8628 40.0833V36.8333H61.4454C62.1786 36.8333 62.8625 36.4625 63.2625 35.8473C63.6618 35.2327 63.7237 34.4572 63.4259 33.787L60.0574 26.2036C61.3359 24.6813 62.0342 22.7563 62.0294 20.7685C62.0538 13.5983 57.9992 7.03848 51.5754 3.85354L48.4333 2.28038C47.9567 2.04287 47.378 2.18675 47.0685 2.62051L46.6147 3.24998H39.2794V1.08332C39.2794 0.485051 38.7944 -1.52588e-05 38.1961 -1.52588e-05H27.3628C26.7645 -1.52588e-05 26.2794 0.485051 26.2794 1.08332V5.41665H24.6264C24.0964 5.41612 23.6436 5.79963 23.5568 6.32225L22.8258 10.7132C22.584 10.8397 22.3444 10.9783 22.1095 11.1311L17.9375 9.56802C17.4419 9.38182 16.8844 9.58177 16.6193 10.0404L15.527 11.9331C15.499 11.9331 15.4762 11.9167 15.4482 11.9167H8.94609V8.46723C10.4383 7.93985 11.3333 6.41376 11.0657 4.85383C10.798 3.29336 9.44544 2.15343 7.86276 2.15343C6.27954 2.15343 4.92697 3.29336 4.65931 4.85383C4.39165 6.41376 5.28719 7.93985 6.77942 8.46723V13C6.77942 13.5983 7.26449 14.0833 7.86276 14.0833H14.3464C14.2469 14.4827 14.3844 14.9032 14.7008 15.1667L18.137 17.9961C18.137 18.0755 18.137 18.1564 18.1306 18.2368L7.66333 18.3981C7.17139 17.0249 5.8241 16.1474 4.3689 16.2532C2.9137 16.3584 1.70712 17.4206 1.4183 18.8504C1.12895 20.2807 1.82825 21.728 3.12846 22.3903ZM7.86276 33.5833C7.26449 33.5833 6.77942 33.0983 6.77942 32.5C6.77942 31.9017 7.26449 31.4167 7.86276 31.4167C8.46102 31.4167 8.94609 31.9017 8.94609 32.5C8.94609 33.0983 8.46102 33.5833 7.86276 33.5833ZM7.86276 4.33332C8.46102 4.33332 8.94609 4.81839 8.94609 5.41665C8.94609 6.01492 8.46102 6.49998 7.86276 6.49998C7.26449 6.49998 6.77942 6.01492 6.77942 5.41665C6.77942 4.81839 7.26449 4.33332 7.86276 4.33332ZM27.3628 31.4167H28.9597C29.4887 31.4167 29.9404 31.0342 30.0277 30.5121L30.7598 26.1201C31.0005 25.9947 31.2401 25.855 31.475 25.7022L35.6491 27.2653C36.1447 27.4515 36.7023 27.2515 36.9673 26.7929L37.4259 26H42.5294C42.6093 25.9936 42.6881 25.9778 42.7643 25.9524L44.6961 28.5274V30.3333H40.3628V32.5H42.8621L39.9607 33.66C39.5492 33.8245 39.2789 34.2234 39.2794 34.6667V36.8333H27.3628V31.4167ZM39.134 13.7929L38.6769 13H41.4461V17.3333H36.2579L38.8848 15.1667C39.2916 14.8302 39.3963 14.2505 39.134 13.7929ZM41.4461 19.5V23.8333H38.6769L39.134 23.0404C39.3963 22.5828 39.2916 22.0031 38.8848 21.6667L36.2579 19.5H41.4461ZM34.1801 46.2659L38.1961 50.2819V50.9167H31.6961V39H33.8628V45.5C33.8628 45.7872 33.977 46.0628 34.1801 46.2659ZM27.313 60.6667H27.3628V60.6106L31.4284 55.9641C31.6014 55.7663 31.6961 55.5124 31.6961 55.25V53.0833H33.8628V62.8333H25.4124L27.313 60.6667ZM14.8113 62.8333L22.712 54.9326C22.9152 54.7295 23.0294 54.4539 23.0294 54.1667V39H29.5294V54.8427L27.3628 57.3193V52H25.1961V59.8002L22.5375 62.8333H14.8113ZM44.2475 62.8333H36.0294V53.0833H38.1961V56.3333C38.1961 56.6206 38.3103 56.8961 38.5135 57.0993L44.2475 62.8333ZM39.0625 48.0872L36.0294 45.0535V39H39.2794V43.3333C39.2794 43.7068 39.472 44.0538 39.7883 44.2521C40.1924 44.5055 40.5574 44.7287 40.9388 44.9636L39.0625 48.0872ZM48.2894 4.63219L50.6058 5.79169C56.2938 8.61111 59.8839 14.4197 59.8628 20.7685C59.8675 22.4442 59.2015 24.0523 58.0135 25.234C57.6966 25.5509 57.6072 26.0301 57.7892 26.4396L61.4454 34.6667H58.7794C58.1812 34.6667 57.6961 35.1517 57.6961 35.75V39H57.5099C55.8341 39.0047 54.2266 38.3388 53.0454 37.1507C52.6201 36.7402 51.9446 36.746 51.5267 37.1639C51.1088 37.5818 51.103 38.2573 51.5135 38.6826C52.7973 39.9706 54.4646 40.807 56.2647 41.0661L55.8468 41.484C55.6437 41.6872 55.5294 41.9628 55.5294 42.25V47.6667L50.2154 47.673C47.7128 46.5156 45.2959 45.1794 42.9843 43.6756L42.979 43.6703H42.9722C42.4622 43.3603 41.9507 43.0461 41.4461 42.7329V35.3998L46.1814 33.5066C46.593 33.3421 46.8628 32.9433 46.8628 32.5V28.1667C46.8628 27.9323 46.7866 27.7043 46.6459 27.5165L43.6128 23.4726V11.1798L48.2894 4.63219ZM28.4461 2.16665H37.1128V4.33332C37.1128 4.93158 37.5978 5.41665 38.1961 5.41665H45.0674L41.6487 10.2038C41.5164 10.3874 41.4456 10.6074 41.4461 10.8333H37.4259L36.9673 10.0404C36.7023 9.58177 36.1447 9.38182 35.6491 9.56802L31.4792 11.1311C31.2443 10.9783 31.0047 10.8386 30.764 10.7132L30.0277 6.32119C29.9404 5.7991 29.4887 5.41665 28.9597 5.41665H28.4461V2.16665ZM16.786 14.0833L18.0349 11.9167L21.8821 13.3586C22.2275 13.4877 22.6147 13.4327 22.9099 13.2121C23.3177 12.9048 23.7605 12.6466 24.2286 12.443C24.5677 12.2975 24.8094 11.9891 24.8697 11.6252L25.5436 7.58332H28.042L28.7159 11.6262C28.7762 11.9902 29.0179 12.2986 29.357 12.444C29.8251 12.6482 30.2673 12.9064 30.6757 13.2132C30.9709 13.4337 31.3575 13.4888 31.7024 13.3597L35.5507 11.9167L36.7985 14.0833L33.6295 16.6911C33.3449 16.9255 33.1989 17.2894 33.2428 17.656C33.3095 18.1617 33.3095 18.6737 33.2428 19.1794C33.1989 19.546 33.3449 19.9099 33.6295 20.1448L36.7985 22.75L35.5507 24.9167L31.7024 23.4747C31.3575 23.3456 30.9709 23.4006 30.6757 23.6212C30.2673 23.928 29.8251 24.1861 29.357 24.3903C29.0179 24.5358 28.7762 24.8442 28.7159 25.2081L28.042 29.25H25.5426L24.8708 25.2071C24.8105 24.8431 24.5687 24.5347 24.2297 24.3893C23.7615 24.1856 23.3188 23.9275 22.9115 23.6201C22.6158 23.3996 22.2286 23.344 21.8831 23.4736L18.0349 24.9167L16.786 22.75L19.955 20.1422C19.9741 20.1236 19.9926 20.1035 20.0101 20.0829C20.0312 20.0628 20.0508 20.0422 20.0698 20.02C20.1513 19.9322 20.2169 19.8311 20.2645 19.7211L20.2714 19.7089C20.3163 19.5899 20.3401 19.463 20.3407 19.3355C20.3444 19.3201 20.3475 19.3043 20.3491 19.2889C20.3491 19.2757 20.3428 19.2651 20.3417 19.2519C20.3407 19.2387 20.3417 19.2022 20.3417 19.1773C20.2751 18.6716 20.2751 18.1596 20.3417 17.6539C20.3851 17.2873 20.2391 16.9234 19.954 16.6885L16.786 14.0833ZM3.6495 19.0049C3.77857 18.7462 4.00708 18.551 4.28215 18.4632C4.83651 18.322 5.40516 18.6362 5.58077 19.181C5.75639 19.7253 5.47762 20.3125 4.94548 20.5214C4.37578 20.7045 3.76534 20.3913 3.58232 19.8216C3.4961 19.5513 3.5199 19.2577 3.6495 19.0049Z" fill="currentColor"></path><path d="M25.1963 43.3333H27.363V45.5H25.1963V43.3333Z" fill="currentColor"></path><path d="M25.1963 47.6667H27.363V49.8333H25.1963V47.6667Z" fill="currentColor"></path><path d="M31.6963 30.3333H33.863V32.5H31.6963V30.3333Z" fill="currentColor"></path><path d="M36.0303 30.3333H38.1969V32.5H36.0303V30.3333Z" fill="currentColor"></path><path d="M45.7803 10.8333H47.9469V15.1667H45.7803V10.8333Z" fill="currentColor"></path><path d="M45.7803 17.3333H47.9469V19.5H45.7803V17.3333Z" fill="currentColor"></path><path d="M45.7803 21.6667H47.9469V23.8333H45.7803V21.6667Z" fill="currentColor"></path></g><defs><clipPath id="clip0_54_10042"><rect width="65" height="65" fill="white"></rect></clipPath></defs></svg>