<svg xmlns="http://www.w3.org/2000/svg" width="65" height="65" viewBox="0 0 65 65" fill="none"><g clip-path="url(#clip0_54_10021)"><path d="M32.5 45.5C33.1428 45.5 33.7711 45.3094 34.3056 44.9523C34.8401 44.5952 35.2566 44.0876 35.5026 43.4937C35.7486 42.8999 35.813 42.2464 35.6876 41.616C35.5622 40.9855 35.2526 40.4064 34.7981 39.9519C34.3436 39.4974 33.7645 39.1879 33.134 39.0624C32.5036 38.937 31.8501 39.0014 31.2563 39.2474C30.6624 39.4934 30.1548 39.9099 29.7977 40.4444C29.4406 40.9789 29.25 41.6072 29.25 42.25C29.25 43.112 29.5924 43.9386 30.2019 44.5481C30.8114 45.1576 31.638 45.5 32.5 45.5ZM32.5 41.1667C32.7143 41.1667 32.9237 41.2302 33.1019 41.3492C33.28 41.4683 33.4189 41.6375 33.5009 41.8354C33.5829 42.0334 33.6043 42.2512 33.5625 42.4614C33.5207 42.6715 33.4175 42.8645 33.266 43.016C33.1145 43.1675 32.9215 43.2707 32.7113 43.3125C32.5012 43.3543 32.2834 43.3329 32.0854 43.2509C31.8875 43.1689 31.7183 43.03 31.5992 42.8519C31.4802 42.6737 31.4167 42.4643 31.4167 42.25C31.4167 41.9627 31.5308 41.6871 31.734 41.484C31.9371 41.2808 32.2127 41.1667 32.5 41.1667Z" fill="currentColor"></path><path d="M49.6404 15.0724L47.9948 13.6641C47.5572 13.2918 46.9902 13.1076 46.4174 13.1517C46.1337 13.1728 45.857 13.2501 45.6034 13.379C45.3497 13.5078 45.1242 13.6858 44.9398 13.9024V13.91C44.6909 12.8099 44.1043 11.8151 43.262 11.0649C42.4197 10.3147 41.3639 9.84659 40.2424 9.72617L31.7513 2.61083C31.3207 1.88551 30.7254 1.27182 30.0134 0.819505C29.3015 0.367194 28.493 0.088985 27.6535 0.00742756C26.8139 -0.0741299 25.967 0.0432586 25.1813 0.350079C24.3956 0.656899 23.6933 1.14452 23.1312 1.77342L4.73944 21.9191C3.35859 22.3049 2.14451 23.1375 1.28699 24.2865C0.429464 25.4355 -0.0231638 26.8363 -0.00013969 28.2699C0.0228844 29.7034 0.520263 31.089 1.41424 32.2099C2.30822 33.3308 3.54841 34.1239 4.94094 34.4652L24.3034 44.2975L23.9079 49.8333H15.1665C13.1553 49.8333 11.2264 50.6323 9.80429 52.0544C8.38214 53.4766 7.58319 55.4054 7.58319 57.4167C7.58319 59.4279 8.38214 61.3567 9.80429 62.7789C11.2264 64.201 13.1553 65 15.1665 65H49.8332C51.8444 65 53.7733 64.201 55.1954 62.7789C56.6176 61.3567 57.4165 59.4279 57.4165 57.4167C57.4165 55.4054 56.6176 53.4766 55.1954 52.0544C53.7733 50.6323 51.8444 49.8333 49.8332 49.8333H41.0918L40.5436 42.1558C40.3917 40.1241 39.4791 38.2246 37.988 36.8363C36.497 35.4481 34.5371 34.6733 32.4999 34.6667C31.4239 34.6677 30.3592 34.8866 29.3701 35.3102L14.1103 27.7128L28.8761 11.5267L34.3361 16.0669C34.5578 17.2507 35.1686 18.3266 36.0713 19.1238C36.9741 19.921 38.1173 20.3939 39.3194 20.4674L39.2999 20.4902C38.9269 20.927 38.7425 21.494 38.7874 22.0667C38.8323 22.6394 39.1028 23.1708 39.5394 23.5441L41.186 24.9524C41.5782 25.2886 42.0778 25.4731 42.5944 25.4724C42.6518 25.4724 42.7092 25.4724 42.7666 25.4648C42.9517 25.4471 43.1338 25.4056 43.3083 25.3413L44.4804 26.3434L43.2119 31.4416C43.0631 32.0277 43.0817 32.6437 43.2655 33.2197C43.4494 33.7958 43.7911 34.3087 44.2519 34.7003L48.3685 38.2211C48.9567 38.7268 49.7075 39.0034 50.4832 39C50.5699 39 50.6565 38.9968 50.7432 38.9903C51.1688 38.959 51.584 38.8433 51.9645 38.6501C52.345 38.4569 52.6833 38.1899 52.9597 37.8647C53.5198 37.2098 53.7969 36.3593 53.7301 35.5002C53.6632 34.641 53.2579 33.8436 52.6033 33.2833L50.0119 31.07L50.8299 27.7843C51.7601 27.3943 52.5636 26.7533 53.1504 25.9328C53.5264 25.3943 53.7956 24.7886 53.9434 24.1486L57.0482 22.8377L59.6363 25.0467C60.2237 25.5533 60.9741 25.8311 61.7499 25.8288C61.8387 25.8288 61.9275 25.8288 62.0174 25.818C62.871 25.7464 63.662 25.3415 64.2193 24.6912C64.7766 24.0408 65.0555 23.1971 64.9955 22.3427C64.9653 21.9137 64.8498 21.4951 64.6558 21.1113C64.4618 20.7276 64.1931 20.3864 63.8656 20.1078L59.7489 16.5826C59.2892 16.1933 58.7308 15.9388 58.1354 15.8472C57.54 15.7557 56.9309 15.8306 56.3754 16.0637L51.5232 18.1068L50.3543 17.108C50.4242 16.7359 50.3951 16.3519 50.2697 15.9947C50.1444 15.6374 49.9274 15.3193 49.6404 15.0724ZM24.7324 3.2305C25.2729 2.63092 26.018 2.25488 26.8214 2.17612C27.6248 2.09736 28.4287 2.32156 29.0754 2.80475C29.4788 3.11049 29.8061 3.50529 30.0318 3.95835C30.2575 4.41142 30.3755 4.9105 30.3765 5.41667C30.3792 6.21759 30.082 6.99049 29.5434 7.58333L12.6846 26.0596C12.3115 24.983 11.6633 24.0227 10.8043 23.2741C9.94532 22.5256 8.90543 22.0147 7.78794 21.7923L24.7324 3.2305ZM2.16652 28.1667C2.16223 27.3044 2.414 26.4603 2.88991 25.7413C3.36583 25.0223 4.04448 24.4607 4.83987 24.1278C5.63525 23.7948 6.51157 23.7055 7.35778 23.8711C8.20399 24.0366 8.982 24.4497 9.59323 25.0579C10.2045 25.6661 10.6214 26.442 10.7912 27.2874C10.961 28.1328 10.876 29.0095 10.547 29.8065C10.2181 30.6036 9.6599 31.285 8.94326 31.7645C8.22663 32.244 7.38378 32.5 6.52152 32.5C5.36972 32.5017 4.26429 32.0464 3.44782 31.234C2.63135 30.4216 2.17054 29.3185 2.16652 28.1667ZM55.2499 57.4167C55.2481 58.8527 54.6769 60.2295 53.6614 61.2449C52.646 62.2604 51.2692 62.8316 49.8332 62.8333H15.1665C13.7299 62.8333 12.3522 62.2627 11.3364 61.2468C10.3205 60.231 9.74985 58.8533 9.74985 57.4167C9.74985 55.9801 10.3205 54.6023 11.3364 53.5865C12.3522 52.5707 13.7299 52 15.1665 52H49.8332C51.2692 52.0017 52.646 52.573 53.6614 53.5884C54.6769 54.6039 55.2481 55.9806 55.2499 57.4167ZM38.3834 42.3107L38.9251 49.8333H26.08L26.6163 42.3107C26.7231 40.8232 27.3894 39.4315 28.481 38.4155C29.5727 37.3995 31.0086 36.8346 32.4999 36.8346C33.9911 36.8346 35.427 37.3995 36.5187 38.4155C37.6103 39.4315 38.2766 40.8232 38.3834 42.3107ZM24.4832 41.9575L9.08685 34.1413C10.0425 33.7311 10.8863 33.0986 11.548 32.2964C12.2098 31.4943 12.6704 30.5456 12.8915 29.5295L27.2197 36.66C25.6626 38.0101 24.683 39.9063 24.4832 41.9575ZM31.1457 9.03825C31.8925 8.20745 32.3607 7.16386 32.4847 6.05367L37.3987 10.1703C36.7238 10.4835 36.1207 10.9324 35.627 11.489C35.1333 12.0455 34.7595 12.6978 34.5289 13.4052L30.3332 9.92442L31.1457 9.03825ZM36.3999 15.0843C36.3999 14.4415 36.5905 13.8132 36.9476 13.2787C37.3047 12.7443 37.8123 12.3277 38.4061 12.0817C39 11.8357 39.6535 11.7714 40.2839 11.8968C40.9143 12.0222 41.4934 12.3317 41.948 12.7862C42.4025 13.2408 42.712 13.8199 42.8374 14.4503C42.9628 15.0807 42.8984 15.7342 42.6525 16.3281C42.4065 16.9219 41.9899 17.4295 41.4555 17.7866C40.921 18.1437 40.2926 18.3343 39.6499 18.3343C38.7879 18.3343 37.9613 17.9919 37.3518 17.3824C36.7423 16.7729 36.3999 15.9463 36.3999 15.0843ZM40.9499 21.8985L46.5832 15.3108L48.2299 16.7191L42.5965 23.3058L40.9499 21.8985ZM51.1874 34.9288C51.4056 35.1157 51.5406 35.3817 51.5628 35.6681C51.5849 35.9546 51.4923 36.2381 51.3054 36.4563C51.1189 36.6745 50.8533 36.8098 50.5671 36.8323C50.2809 36.8549 49.9975 36.7629 49.779 36.5766L45.6624 33.0558C45.5091 32.9243 45.3956 32.7525 45.3347 32.56C45.2738 32.3674 45.268 32.1616 45.3179 31.9659L46.3806 27.6965C47.0385 28.0134 47.7538 28.1937 48.4834 28.2263L47.7478 31.2C47.6996 31.3951 47.7066 31.5997 47.768 31.791C47.8294 31.9823 47.9428 32.1528 48.0955 32.2833L51.1874 34.9288ZM57.1999 18.0635C57.386 17.9847 57.5903 17.9588 57.7902 17.9886C57.9902 18.0184 58.178 18.1028 58.333 18.2325L62.4497 21.7533C62.5596 21.8465 62.6497 21.9607 62.7146 22.0893C62.7795 22.2179 62.818 22.3582 62.8278 22.5019C62.8478 22.7862 62.755 23.067 62.5695 23.2834C62.3839 23.4998 62.1206 23.6343 61.8365 23.6578C61.5483 23.6792 61.2632 23.5866 61.0424 23.4L57.9441 20.7556C57.7913 20.6258 57.6055 20.541 57.4073 20.5106C57.2092 20.4802 57.0065 20.5054 56.8218 20.5833L53.9553 21.7934C53.807 21.0776 53.5228 20.3968 53.1179 19.7882L57.1999 18.0635ZM51.3737 24.687C51.1147 25.0614 50.7795 25.3767 50.39 25.6124C50.0006 25.848 49.5656 25.9985 49.1139 26.0542C48.6644 26.1088 48.2085 26.0696 47.775 25.9391C47.3414 25.8086 46.9397 25.5895 46.5951 25.2958L44.9474 23.8875L46.6092 21.9451L49.1734 18.9475L50.6782 20.2356C51.3227 20.7611 51.7504 21.5061 51.8794 22.3276C52.0083 23.1491 51.8294 23.9893 51.3769 24.687H51.3737Z" fill="currentColor"></path><path d="M13 57.4167C13 58.0595 13.1906 58.6878 13.5477 59.2223C13.9048 59.7567 14.4124 60.1733 15.0063 60.4193C15.6001 60.6653 16.2536 60.7296 16.884 60.6042C17.5145 60.4788 18.0936 60.1693 18.5481 59.7148C19.0026 59.2602 19.3122 58.6812 19.4376 58.0507C19.563 57.4203 19.4986 56.7668 19.2526 56.173C19.0066 55.5791 18.5901 55.0715 18.0556 54.7144C17.5211 54.3573 16.8928 54.1667 16.25 54.1667C15.388 54.1667 14.5614 54.5091 13.9519 55.1186C13.3424 55.7281 13 56.5547 13 57.4167ZM16.25 56.3333C16.4643 56.3333 16.6737 56.3969 16.8519 56.5159C17.03 56.635 17.1689 56.8041 17.2509 57.0021C17.3329 57.2001 17.3543 57.4179 17.3125 57.628C17.2707 57.8382 17.1675 58.0312 17.016 58.1827C16.8645 58.3342 16.6715 58.4374 16.4613 58.4792C16.2512 58.521 16.0334 58.4995 15.8354 58.4175C15.6375 58.3355 15.4683 58.1967 15.3492 58.0185C15.2302 57.8404 15.1667 57.6309 15.1667 57.4167C15.1667 57.1294 15.2808 56.8538 15.484 56.6506C15.6871 56.4475 15.9627 56.3333 16.25 56.3333Z" fill="currentColor"></path><path d="M27.0835 60.6667C27.7263 60.6667 28.3546 60.4761 28.8891 60.1189C29.4236 59.7618 29.8401 59.2543 30.0861 58.6604C30.3321 58.0665 30.3965 57.4131 30.271 56.7826C30.1456 56.1522 29.8361 55.5731 29.3816 55.1186C28.9271 54.6641 28.348 54.3545 27.7175 54.2291C27.0871 54.1037 26.4336 54.1681 25.8398 54.4141C25.2459 54.6601 24.7383 55.0766 24.3812 55.6111C24.0241 56.1455 23.8335 56.7739 23.8335 57.4167C23.8335 58.2786 24.1759 59.1053 24.7854 59.7148C25.3949 60.3243 26.2215 60.6667 27.0835 60.6667ZM27.0835 56.3333C27.2978 56.3333 27.5072 56.3969 27.6854 56.5159C27.8635 56.635 28.0024 56.8041 28.0844 57.0021C28.1664 57.2001 28.1878 57.4179 28.146 57.628C28.1042 57.8382 28.001 58.0312 27.8495 58.1827C27.698 58.3342 27.505 58.4374 27.2948 58.4792C27.0847 58.521 26.8669 58.4995 26.6689 58.4175C26.471 58.3355 26.3018 58.1967 26.1827 58.0185C26.0637 57.8404 26.0002 57.6309 26.0002 57.4167C26.0002 57.1294 26.1143 56.8538 26.3175 56.6506C26.5206 56.4475 26.7962 56.3333 27.0835 56.3333Z" fill="currentColor"></path><path d="M37.9165 60.6667C38.5593 60.6667 39.1876 60.4761 39.7221 60.1189C40.2566 59.7618 40.6731 59.2543 40.9191 58.6604C41.1651 58.0665 41.2295 57.4131 41.1041 56.7826C40.9787 56.1522 40.6691 55.5731 40.2146 55.1186C39.7601 54.6641 39.181 54.3545 38.5505 54.2291C37.9201 54.1037 37.2666 54.1681 36.6728 54.4141C36.0789 54.6601 35.5713 55.0766 35.2142 55.6111C34.8571 56.1455 34.6665 56.7739 34.6665 57.4167C34.6665 58.2786 35.0089 59.1053 35.6184 59.7148C36.2279 60.3243 37.0546 60.6667 37.9165 60.6667ZM37.9165 56.3333C38.1308 56.3333 38.3402 56.3969 38.5184 56.5159C38.6965 56.635 38.8354 56.8041 38.9174 57.0021C38.9994 57.2001 39.0208 57.4179 38.979 57.628C38.9372 57.8382 38.834 58.0312 38.6825 58.1827C38.531 58.3342 38.338 58.4374 38.1279 58.4792C37.9177 58.521 37.6999 58.4995 37.5019 58.4175C37.304 58.3355 37.1348 58.1967 37.0157 58.0185C36.8967 57.8404 36.8332 57.6309 36.8332 57.4167C36.8332 57.1294 36.9473 56.8538 37.1505 56.6506C37.3536 56.4475 37.6292 56.3333 37.9165 56.3333Z" fill="currentColor"></path><path d="M48.75 60.6667C49.3928 60.6667 50.0211 60.4761 50.5556 60.1189C51.0901 59.7618 51.5066 59.2543 51.7526 58.6604C51.9986 58.0665 52.063 57.4131 51.9376 56.7826C51.8122 56.1522 51.5026 55.5731 51.0481 55.1186C50.5936 54.6641 50.0145 54.3545 49.384 54.2291C48.7536 54.1037 48.1001 54.1681 47.5063 54.4141C46.9124 54.6601 46.4048 55.0766 46.0477 55.6111C45.6906 56.1455 45.5 56.7739 45.5 57.4167C45.5 58.2786 45.8424 59.1053 46.4519 59.7148C47.0614 60.3243 47.888 60.6667 48.75 60.6667ZM48.75 56.3333C48.9643 56.3333 49.1737 56.3969 49.3519 56.5159C49.53 56.635 49.6689 56.8041 49.7509 57.0021C49.8329 57.2001 49.8543 57.4179 49.8125 57.628C49.7707 57.8382 49.6675 58.0312 49.516 58.1827C49.3645 58.3342 49.1715 58.4374 48.9613 58.4792C48.7512 58.521 48.5334 58.4995 48.3354 58.4175C48.1375 58.3355 47.9683 58.1967 47.8492 58.0185C47.7302 57.8404 47.6667 57.6309 47.6667 57.4167C47.6667 57.1294 47.7808 56.8538 47.984 56.6506C48.1871 56.4475 48.4627 56.3333 48.75 56.3333Z" fill="currentColor"></path></g><defs><clipPath id="clip0_54_10021"><rect width="65" height="65" fill="white"></rect></clipPath></defs></svg>