<svg xmlns="http://www.w3.org/2000/svg" width="85" height="85" viewBox="0 0 85 85" fill="none"><path d="M84.3464 54.4024C84.3464 55.2218 84.0675 55.7798 83.6141 56.0414L63.4234 67.7931C63.4583 67.7582 63.4932 67.7234 63.528 67.671C63.0573 68.1244 62.3249 68.1941 61.4706 67.7059L28.3774 48.6486L20.3569 53.269L18.7005 52.3101L2.36308 42.8249L0.706655 41.866L0.654297 18.1706L3.16506 12.225L22.7456 0.90918L24.4019 1.88558L40.7394 11.3707L42.3957 12.3296L44.924 15.3809L44.9589 28.7891L45.8307 29.2947L46.6153 29.748L56.5363 35.4671L57.3208 35.9203L67.2418 41.6219L68.0265 42.0927L77.9475 47.7941L78.7321 48.2475L81.8008 50.0085C83.2131 50.828 84.3639 52.7982 84.3464 54.4024Z" fill="#525566"></path><path d="M20.3563 53.2738L0.71177 41.8577L0.658203 18.1758L20.3028 29.592L20.3563 53.2738Z" fill="#CAD0DD"></path><path d="M20.3028 29.5919L0.658203 18.1757L3.17248 12.218L22.8171 23.6342L20.3028 29.5919Z" fill="#D4DAE8"></path><path d="M22.8165 23.6342L3.17188 12.2181L22.7472 0.91626L42.3917 12.3324L22.8165 23.6342Z" fill="#E4E8F4"></path><path d="M2.36766 42.82L0.71177 41.8577L0.658203 18.1758L2.3141 19.1381L2.36766 42.82Z" fill="#37617B"></path><path d="M2.3141 19.138L0.658203 18.1757L3.17248 12.218L4.82837 13.1803L2.3141 19.138Z" fill="#416E84"></path><path d="M4.82777 13.1804L3.17188 12.2181L22.7472 0.91626L24.4031 1.87856L4.82777 13.1804Z" fill="#4C7891"></path><path d="M42.3923 12.3325L44.9321 15.3722L44.9856 39.0541L20.3563 53.2738L20.3027 29.592L22.817 23.6343L42.3923 12.3325Z" fill="#37617B"></path><path d="M42.4823 16.3863L42.5331 38.3583L41.8047 38.7988L42.4145 38.4431L43.1599 38.0026L43.109 16.0305L42.4823 16.3863Z" fill="#416E84"></path><path d="M42.5366 38.3612L41.8043 38.7971H41.7868L40.6535 39.4422L39.4853 40.1222L38.3519 40.7848L37.1837 41.4647L36.0505 42.1273L34.8822 42.7724L33.7489 43.435L32.5633 44.115L31.6392 44.6555L31.4299 44.7775L30.2618 45.4576L29.1284 46.1027L27.9777 46.7827L24.5253 48.753L23.3746 49.4329L22.2238 50.0955L22.1715 50.1304L22.1366 39.1806L22.1191 33.3571V29.9571L22.2412 29.6607L22.3633 29.3817L22.8166 28.3181V28.2484L23.0084 27.8125L23.4268 26.8361L23.8976 25.7551L23.95 25.6156L24.2464 24.9006L24.473 24.7787L24.6299 24.6914L25.1704 25.0053L25.8679 25.4063L28.2741 26.8186L33.4524 29.8176L42.5191 35.0832L42.5366 38.3612Z" fill="#9AD898"></path><path d="M42.5201 35.0832L33.4534 29.8176L28.275 26.8186L25.8688 25.4063L25.1714 25.0053L24.6309 24.6914L25.6247 24.1161L26.793 23.4361L27.9263 22.7735L31.0299 20.9776L31.2042 20.8904L31.3785 20.7858L32.5294 20.1232L33.6975 19.4607L34.8484 18.7981L35.9991 18.1182L37.1324 17.473L38.3006 16.793L39.434 16.1305L40.6022 15.4504L41.3519 15.032L41.7354 15.5028L42.4853 16.392L42.5026 27.3766L42.5201 35.0832Z" fill="#6EBA6E"></path><path d="M84.3477 54.4024C84.3477 55.2218 84.0688 55.7798 83.6154 56.0414L63.4247 67.7931C63.5468 67.6711 63.6514 67.5141 63.756 67.3572C63.756 67.3223 63.8083 67.3049 63.8258 67.2701C63.9652 66.991 64.035 66.6423 64.035 66.2413C64.035 65.9624 63.9652 65.6659 63.878 65.3695C63.5817 63.9747 62.6402 62.51 61.4719 61.8301L58.3335 60.0341L57.5663 59.5808L47.6278 53.8619L46.8433 53.4085L36.9048 47.6895L36.1376 47.2363L31.6392 44.6557L26.1992 41.5173L25.432 41.0639L22.1366 39.1808L22.1191 29.9573L22.8166 28.3183V28.2486L23.95 25.6158L24.2464 24.9009L24.473 24.7789L24.6299 24.6916L25.6238 24.1163L26.792 23.4363L27.9253 22.7737L31.2033 20.8906L42.5017 27.3768L45.832 29.2947L46.6166 29.7481L56.5376 35.4671L57.3221 35.9203L67.2431 41.6219L68.0278 42.0927L77.9488 47.7941L78.7334 48.2475L81.8022 50.0085C83.2145 50.8281 84.3652 52.7982 84.3477 54.4024Z" fill="#5B5E71"></path><path d="M64.0269 66.247C64.0273 65.9645 63.9526 65.6662 63.8881 65.3705C63.5795 63.9668 62.6369 62.5105 61.4769 61.8448C46.0118 52.9227 26.1494 41.4431 22.1191 39.1711V45.0383L61.4669 67.704C62.4744 68.2842 63.3309 68.0905 63.7482 67.3552C63.7686 67.3192 63.8065 67.3065 63.8244 67.2678C63.9539 66.9925 64.0263 66.6501 64.0269 66.247Z" fill="#474B59"></path><path d="M62.4994 66.5345C62.4381 66.5177 62.3425 66.4834 62.2125 66.4082L22.1191 43.3275V40.9111L60.7306 63.1406C61.4847 63.5735 62.1972 64.6459 62.4272 65.6913C62.4863 65.9585 62.5316 66.1607 62.5316 66.2468C62.5316 66.3717 62.5184 66.4629 62.5046 66.5257L62.4994 66.5345Z" fill="#D4DAE8"></path><path d="M24.1234 42.8218C24.3907 42.9761 24.6 43.3387 24.5991 43.6568C24.5983 43.9529 24.3876 44.073 24.1203 43.9187C23.8626 43.7699 23.6437 43.4018 23.6445 43.1056C23.6454 42.7875 23.8657 42.673 24.1234 42.8218Z" fill="#5B5E71"></path><path d="M30.8617 46.7127C31.129 46.867 31.3478 47.235 31.3469 47.5531C31.3461 47.8493 31.1259 47.9639 30.8586 47.8096C30.6009 47.6608 30.382 47.2927 30.3828 46.9965C30.3837 46.6784 30.604 46.5639 30.8617 46.7127Z" fill="#5B5E71"></path><path d="M37.6114 50.6091C37.8692 50.7579 38.0881 51.1259 38.0872 51.444C38.0863 51.7402 37.8661 51.8548 37.6083 51.7059C37.3411 51.5517 37.1222 51.1836 37.123 50.8874C37.124 50.5693 37.3442 50.4548 37.6114 50.6091Z" fill="#5B5E71"></path><path d="M44.3497 54.4999C44.6075 54.6488 44.8263 55.0168 44.8254 55.3349C44.8246 55.6311 44.6044 55.7456 44.3466 55.5968C44.0794 55.4425 43.8605 55.0744 43.8613 54.7783C43.8622 54.4602 44.0825 54.3456 44.3497 54.4999Z" fill="#5B5E71"></path><path d="M51.09 58.3908C51.3477 58.5396 51.5666 58.9077 51.5657 59.2258C51.5648 59.5219 51.3446 59.6365 51.0868 59.4877C50.8196 59.3334 50.6007 58.9653 50.6016 58.6692C50.6025 58.351 50.8227 58.2365 51.09 58.3908Z" fill="#5B5E71"></path><path d="M57.8282 62.2817C58.086 62.4305 58.3048 62.7985 58.3039 63.1166C58.3031 63.4128 58.0829 63.5274 57.8251 63.3786C57.5579 63.2243 57.339 62.8562 57.3398 62.56C57.3407 62.2419 57.561 62.1274 57.8282 62.2817Z" fill="#5B5E71"></path><path d="M57.3199 35.9147L36.9122 47.6922L36.1348 47.2437L56.5424 35.4661L57.3199 35.9147Z" fill="#525566"></path><path d="M46.6148 29.7401L26.2072 41.5176L25.4297 41.0691L45.8374 29.2915L46.6148 29.7401Z" fill="#525566"></path><path d="M35.9098 23.5653L22.1191 31.5241L22.1204 30.6261L35.1324 23.1167L35.9098 23.5653Z" fill="#525566"></path><path d="M78.7288 48.2491L58.336 60.0266L57.5586 59.5781L77.9513 47.8005L78.7288 48.2491Z" fill="#525566"></path><path d="M68.025 42.0895L47.6323 53.867L46.8398 53.4036L67.2475 41.626L68.025 42.0895Z" fill="#525566"></path><path d="M70.3921 45.7964L70.373 51.8311L60.4805 57.5794L60.4996 51.5446L70.3921 45.7964Z" fill="#EFAC41"></path><path d="M63.1468 50.926L63.1405 52.9105L61.3438 53.9547L61.35 51.9702L63.1468 50.926Z" fill="#E4E8F4"></path><path d="M60.4992 51.5446L60.4801 57.5794L54.9805 54.4041L54.9996 48.3694L60.4992 51.5446Z" fill="#F9BB4A"></path><path d="M70.3923 45.8002L60.4984 51.5483L58.096 50.1574L57.4005 49.764L57.3865 49.757L54.998 48.3731L64.8919 42.625L67.2944 44.0089L67.3014 44.0159L67.9898 44.4093L70.3923 45.8002Z" fill="#FED57A"></path><path d="M67.9901 44.4092L58.0962 50.1573L57.4007 49.7639L57.3867 49.7569L67.2946 44.0088L67.3017 44.0158L67.9901 44.4092Z" fill="#EFAC41"></path><path d="M58.0962 50.1573L58.0898 52.4404L57.3867 52.0389L57.3932 49.7559L58.0962 50.1573Z" fill="#EFAC41"></path><path d="M61.7159 54.918L61.9052 55.2781L61.788 55.3458L61.5293 55.4941L61.7159 54.918Z" fill="#3F434F"></path><path d="M61.7879 55.3457L61.79 56.0582L61.6485 56.1399L61.6465 55.4274L61.7879 55.3457Z" fill="#3F434F"></path><path d="M62.4903 55.7173L62.4907 55.8698L61.5141 56.4337L61.5137 56.2811L62.4903 55.7173Z" fill="#3F434F"></path><path d="M63.5282 53.8713L63.5296 54.379C63.5301 54.5393 63.4374 54.7255 63.3144 54.8199L63.3157 55.2775C63.402 55.2377 63.467 55.2414 63.4672 55.2893L63.0864 55.5091C63.0863 55.4613 63.1511 55.3826 63.2373 55.3228L63.236 54.8652C63.1797 54.8877 63.1312 54.8822 63.0933 54.8584C63.0486 54.8251 63.0193 54.7629 63.019 54.6738L63.0176 54.1661L63.5282 53.8713Z" fill="#3F434F"></path><path d="M62.3543 55.019L62.3564 55.7316L62.2149 55.8132L62.2129 55.1007L62.3543 55.019Z" fill="#3F434F"></path><path d="M62.2823 54.5906L62.4707 54.9513L62.3534 55.019L62.0957 55.1667L62.2823 54.5906Z" fill="#3F434F"></path><path d="M52.5308 34.4409L52.5117 40.4757L42.6191 46.2239L42.6382 40.1891L52.5308 34.4409Z" fill="#EFAC41"></path><path d="M45.2855 39.5706L45.2792 41.5551L43.4824 42.5992L43.4887 40.6147L45.2855 39.5706Z" fill="#E4E8F4"></path><path d="M42.6379 40.1891L42.6188 46.2239L37.1191 43.0487L37.1382 37.0139L42.6379 40.1891Z" fill="#F9BB4A"></path><path d="M52.531 34.4447L42.6371 40.1929L40.2347 38.8019L39.5392 38.4085L39.5251 38.4016L37.1367 37.0177L47.0306 31.2695L49.4331 32.6534L49.4401 32.6605L50.1285 33.0538L52.531 34.4447Z" fill="#FED57A"></path><path d="M50.1287 33.0537L40.2349 38.8018L39.5394 38.4084L39.5254 38.4014L49.4333 32.6533L49.4403 32.6604L50.1287 33.0537Z" fill="#EFAC41"></path><path d="M40.2349 38.8019L40.2284 41.085L39.5254 40.6835L39.5319 38.4004L40.2349 38.8019Z" fill="#EFAC41"></path><path d="M43.8546 43.5625L44.0439 43.9227L43.9267 43.9904L43.668 44.1386L43.8546 43.5625Z" fill="#3F434F"></path><path d="M43.9266 43.9902L43.9286 44.7027L43.7872 44.7844L43.7852 44.0719L43.9266 43.9902Z" fill="#3F434F"></path><path d="M44.629 44.3618L44.6294 44.5143L43.6528 45.0782L43.6523 44.9257L44.629 44.3618Z" fill="#3F434F"></path><path d="M45.6668 42.5159L45.6683 43.0235C45.6687 43.1839 45.5761 43.37 45.4531 43.4645L45.4544 43.922C45.5407 43.8823 45.6057 43.886 45.6058 43.9338L45.2251 44.1537C45.2249 44.1058 45.2897 44.0271 45.3759 43.9673L45.3746 43.5098C45.3184 43.5322 45.2699 43.5268 45.232 43.5029C45.1872 43.4697 45.1579 43.4074 45.1577 43.3183L45.1562 42.8107L45.6668 42.5159Z" fill="#3F434F"></path><path d="M44.493 43.6636L44.495 44.3761L44.3536 44.4578L44.3516 43.7452L44.493 43.6636Z" fill="#3F434F"></path><path d="M44.421 43.2354L44.6093 43.5961L44.4921 43.6638L44.2344 43.8115L44.421 43.2354Z" fill="#3F434F"></path><path d="M34.6714 23.0857L34.6523 29.1205L24.7598 34.8687L24.7789 28.8339L34.6714 23.0857Z" fill="#EFAC41"></path><path d="M27.4261 28.2156L27.4198 30.2001L25.623 31.2443L25.6293 29.2598L27.4261 28.2156Z" fill="#E4E8F4"></path><path d="M24.7869 28.8414L24.752 34.8742L22.1191 33.3573V29.9573L22.2412 29.6609L22.3633 29.3819L22.8166 28.3183V28.2486L23.0084 27.8127L24.7869 28.8414Z" fill="#F9BB4A"></path><path d="M34.6724 23.0876L28.2735 26.8189L24.7863 28.8414L23.0078 27.8127L23.4263 26.8363L23.8971 25.7553L23.9494 25.6158L24.2458 24.9009L24.4725 24.7789L24.6293 24.6916L25.6232 24.1163L26.7915 23.4363L27.9247 22.7737L31.0284 20.9778L31.5689 21.2917L31.5863 21.3091L32.2662 21.6927L34.6724 23.0876Z" fill="#FED57A"></path><path d="M32.2677 21.6927L25.8688 25.4066L23.4277 26.8363L23.8985 25.7553L25.1713 25.0056L31.5704 21.2917L31.5878 21.3091L32.2677 21.6927Z" fill="#EFAC41"></path><path d="M22.3623 29.3818V29.7306L22.2402 29.6609L22.3623 29.3818Z" fill="#EFAC41"></path><path d="M25.9952 32.2073L26.1845 32.5675L26.0673 32.6351L25.8086 32.7834L25.9952 32.2073Z" fill="#3F434F"></path><path d="M26.0672 32.635L26.0693 33.3475L25.9278 33.4292L25.9258 32.7167L26.0672 32.635Z" fill="#3F434F"></path><path d="M26.7696 33.0066L26.77 33.1591L25.7934 33.723L25.793 33.5704L26.7696 33.0066Z" fill="#3F434F"></path><path d="M27.8075 31.1606L27.8089 31.6683C27.8094 31.8286 27.7167 32.0148 27.5937 32.1092L27.595 32.5668C27.6813 32.527 27.7463 32.5307 27.7465 32.5786L27.3657 32.7985C27.3656 32.7506 27.4304 32.6719 27.5166 32.6121L27.5153 32.1545C27.459 32.177 27.4105 32.1715 27.3726 32.1477C27.3279 32.1144 27.2986 32.0522 27.2983 31.9631L27.2969 31.4554L27.8075 31.1606Z" fill="#3F434F"></path><path d="M26.6336 32.3083L26.6357 33.0209L26.4942 33.1025L26.4922 32.39L26.6336 32.3083Z" fill="#3F434F"></path><path d="M26.5616 31.8799L26.75 32.2406L26.6327 32.3083L26.375 32.456L26.5616 31.8799Z" fill="#3F434F"></path><path d="M33.8631 17.9996C34.0077 17.916 34.1167 17.992 34.1171 18.1444C34.1175 18.2969 34.0094 18.4981 33.8647 18.5816L30.1502 20.7262C30.0176 20.8028 29.9086 20.7269 29.9082 20.5744C29.9078 20.422 30.0159 20.2207 30.1486 20.1441L33.8631 17.9996Z" fill="#4C7891"></path><path d="M20.3559 53.2767L18.7001 52.3144L18.6465 28.6326L20.3024 29.5949L20.3559 53.2767Z" fill="#37617B"></path><path d="M20.3024 29.595L18.6465 28.6327L21.1608 22.675L22.8167 23.6373L20.3024 29.595Z" fill="#416E84"></path><path d="M22.818 23.6371L21.1621 22.6748L40.7374 11.373L42.3933 12.3353L22.818 23.6371Z" fill="#4C7891"></path><path d="M43.1094 16.0305L42.3641 15.1497L41.9745 14.6753L41.3477 15.0311L41.7373 15.5054L42.4827 16.3863L43.1094 16.0305Z" fill="#4C7891"></path><path d="M67.6393 7.60665C65.8432 6.56895 51.9001 30.61 53.6696 31.6344L51.7938 30.5435C50.0242 29.5191 48.9333 27.3371 48.92 24.2239C48.9066 17.9708 53.3104 10.3474 58.7386 7.20754C61.4926 5.62431 63.9672 5.47798 65.7634 6.51576L67.6393 7.60665Z" fill="#4C7891"></path><path d="M60.6183 8.29975C66.0718 5.15121 70.4947 7.67175 70.5125 13.9284C70.5302 20.185 66.136 27.8059 60.6826 30.9544C55.2461 34.0931 50.8147 31.5678 50.7969 25.3111C50.7792 19.0545 55.1819 11.4385 60.6183 8.29975Z" fill="#416E84"></path><path d="M66.2352 8.22827C67.8065 9.18952 68.777 11.1675 68.7862 13.9589C68.8047 19.708 64.7563 26.7049 59.7651 29.5794C57.6393 30.8088 55.6798 31.0953 54.127 30.5684C55.7722 31.6036 58.1014 31.502 60.6802 30.0139C65.6714 27.1393 69.7105 20.1424 69.7013 14.3933C69.6828 11.0936 68.3333 8.92149 66.2352 8.22827Z" fill="#4C7891"></path><path d="M59.765 29.5794C64.7562 26.7049 68.8046 19.708 68.7861 13.9589C68.7769 11.1675 67.8064 9.18949 66.2351 8.22824C64.6915 7.71989 62.7413 8.00642 60.6154 9.2265C55.6427 12.1195 51.5943 19.0979 51.6035 24.8378C51.6127 27.6199 52.574 29.5887 54.1268 30.5684C55.6796 31.0953 57.6391 30.8087 59.765 29.5794Z" fill="#E4E8F4"></path><path d="M60.1891 19.0622C60.4177 18.9302 60.6101 19.0313 60.6108 19.2941C60.6116 19.5569 60.4204 19.8879 60.1918 20.0199C59.9631 20.1519 59.7781 20.0381 59.7773 19.7753C59.7766 19.5126 59.9604 19.1942 60.1891 19.0622Z" fill="#75CA75"></path><path d="M60.6113 18.9638L66.7205 15.9121L60.6134 19.7029L60.6113 18.9638Z" fill="#FA5168"></path><path d="M60.2503 12.8186L60.643 18.7479L59.8945 19.1776L60.2503 12.8186Z" fill="#FA5168"></path><path d="M61.0175 19.0599L61.0032 19.2549L61.0092 19.2515C60.9339 19.7314 60.5958 20.2542 60.194 20.4861C59.7367 20.7502 59.3667 20.5393 59.3652 20.0138C59.365 19.9406 59.3722 19.8652 59.3856 19.789C59.3894 19.7708 59.3926 19.7525 59.3962 19.7344C59.3988 19.7217 59.401 19.7126 59.403 19.7033C59.4181 19.6392 59.4375 19.5749 59.4607 19.5111C59.4729 19.478 59.4862 19.4447 59.5003 19.4112C59.5039 19.4028 59.505 19.4003 59.506 19.3979C59.6538 19.0612 59.9038 18.752 60.1887 18.5876C60.5904 18.3556 60.9304 18.487 61.0081 18.8785L61.0022 18.882L61.0175 19.0599ZM60.1927 20.02C60.4214 19.888 60.6125 19.5569 60.6118 19.2941C60.611 19.0314 60.4186 18.9302 60.19 19.0622C59.9614 19.1942 59.7776 19.5126 59.7783 19.7753C59.779 20.0381 59.9641 20.152 60.1927 20.02Z" fill="#525566"></path><path d="M60.2751 10.2671L60.2784 11.4182L60.0658 11.541L60.0625 10.3899L60.2751 10.2671Z" fill="#4C7891"></path><path d="M60.324 27.2732L60.3272 28.4189L60.1146 28.5416L60.1113 27.396L60.324 27.2732Z" fill="#4C7891"></path><path d="M56.927 13.0051L57.3505 13.7994L57.1618 14.0117L56.7383 13.212L56.927 13.0051Z" fill="#4C7891"></path><path d="M63.2219 24.7998L63.6502 25.5968L63.4567 25.8118L63.0332 25.0121L63.2219 24.7998Z" fill="#4C7891"></path><path d="M54.1923 16.9331L54.9599 17.2296L54.8281 17.4906L54.0605 17.1995L54.1923 16.9331Z" fill="#4C7891"></path><path d="M65.5603 21.3184L66.3279 21.6148L66.1914 21.8786L65.4238 21.5821L65.5603 21.3184Z" fill="#4C7891"></path><path d="M52.5873 21.3302L53.5521 21.0669L53.496 21.3331L52.5312 21.5965L52.5873 21.3302Z" fill="#4C7891"></path><path d="M66.8892 17.4784L67.854 17.2205L67.8027 17.484L66.8379 17.7419L66.8892 17.4784Z" fill="#4C7891"></path><path d="M53.3866 24.594L53.4203 24.8138L52.438 25.5822L52.4043 25.3624L53.3866 24.594Z" fill="#4C7891"></path><path d="M67.9472 13.2349L67.9856 13.4465L67.0033 14.2149L66.9648 13.9978L67.9472 13.2349Z" fill="#4C7891"></path><path d="M54.4973 27.1511L54.616 27.2784L53.8004 28.4128L53.6816 28.2801L54.4973 27.1511Z" fill="#4C7891"></path><path d="M66.5899 10.4016L66.7086 10.5289L65.893 11.6633L65.7695 11.5333L66.5899 10.4016Z" fill="#4C7891"></path><path d="M56.6719 28.2554L56.8565 28.2684L56.3584 29.5513L56.1738 29.5382L56.6719 28.2554Z" fill="#4C7891"></path><path d="M64.0313 9.25757L64.2112 9.27879L63.7179 10.5589L63.5332 10.5404L64.0313 9.25757Z" fill="#4C7891"></path><path d="M58.1451 23.2016C58.3388 23.0899 58.5068 23.0672 58.6556 23.1224C58.8045 23.1702 58.876 23.322 58.8767 23.5667C58.8771 23.7076 58.8452 23.8523 58.781 24.0157C58.7233 24.1753 58.6075 24.3981 58.4467 24.6841L57.9064 25.6349L58.952 25.0313L58.9532 25.4615L57.3719 26.3744L57.3708 25.9962L58.072 24.7742C58.2264 24.5067 58.3357 24.3025 58.4064 24.1576C58.4707 24.0166 58.5026 23.8867 58.5023 23.7829C58.5021 23.679 58.4631 23.6124 58.3983 23.5681C58.3271 23.5349 58.2366 23.55 58.1269 23.6133C57.9397 23.7214 57.7787 23.9258 57.6567 24.2191L57.3398 24.194C57.4426 23.9638 57.552 23.767 57.6743 23.6072C57.7967 23.4474 57.958 23.3097 58.1451 23.2016Z" fill="#3F434F"></path><path d="M60.5195 21.897L59.685 23.9611L60.24 23.6406L60.2387 23.1512L60.6065 22.9388L60.6079 23.4282L60.8855 23.268L60.8866 23.6759L60.6091 23.8361L60.611 24.5036L60.2431 24.716L60.2412 24.0485L59.2472 24.6224L59.2461 24.2219L60.0936 22.1429L60.5195 21.897Z" fill="#3F434F"></path><path d="M61.6497 21.0818L61.653 22.2461C61.7043 22.0902 61.7815 21.9491 61.891 21.819C62.0005 21.6815 62.1102 21.5811 62.2328 21.5103C62.4329 21.3948 62.5944 21.3758 62.7175 21.4385C62.8405 21.5086 62.8991 21.6753 62.8999 21.9423L62.9034 23.1808L62.5355 23.3932L62.5324 22.2807C62.5313 21.91 62.3952 21.8028 62.1306 21.9556C62.0015 22.0301 61.892 22.1453 61.7954 22.2976C61.6989 22.45 61.6541 22.617 61.6546 22.8024L61.6577 23.9L61.2834 24.1162L61.2754 21.2979L61.6497 21.0818Z" fill="#3F434F"></path><path d="M24.2644 57.3413L24.3658 69.4556L19.4261 72.3203L17.9979 73.1594L13.1953 75.9446L13.2311 63.7507L17.98 60.9835L19.4082 60.1622L24.2644 57.3413Z" fill="#F9BB4A"></path><path d="M13.2454 63.758L13.2005 75.9366L2.09961 69.5225L2.13613 57.3551V57.3369H2.15439L6.97019 60.1279L8.06477 60.7664L8.39312 60.9488L13.2454 63.758Z" fill="#EFAC41"></path><path d="M24.2721 57.3526L13.2399 63.7621L8.39027 60.9544L6.98635 60.1603L6.95804 60.1462L2.13672 57.3526L13.169 50.9431L24.2721 57.3526Z" fill="#FED57A"></path><path d="M6.95117 54.5449L17.9834 60.9543L19.3873 60.1602L19.4156 60.1461L8.355 53.7366L8.34081 53.7508L6.95117 54.5449Z" fill="#E4E8F4"></path><path d="M19.4266 63.3425L17.9983 64.1816L17.9805 60.9834V60.9477L18.3018 60.7692L19.4087 60.1443V60.1622L19.4266 63.3425Z" fill="#CAD0DD"></path><path d="M11.676 70.7632L11.3145 71.4511L11.5384 71.5804L12.0324 71.8635L11.676 70.7632Z" fill="#3F434F"></path><path d="M11.539 71.5806L11.5352 72.9414L11.8053 73.0974L11.8092 71.7365L11.539 71.5806Z" fill="#3F434F"></path><path d="M10.1961 72.29L10.1953 72.5813L12.0606 73.6582L12.0614 73.3669L10.1961 72.29Z" fill="#3F434F"></path><path d="M6.78791 68.0225L6.78516 68.9921C6.78429 69.2982 6.96122 69.6538 7.1961 69.8342L7.19362 70.7081C7.02888 70.6321 6.90467 70.6392 6.90441 70.7307L7.63164 71.1505C7.6319 71.0591 7.50815 70.9088 7.34351 70.7946L7.34599 69.9207C7.45336 69.9635 7.54607 69.9532 7.61849 69.9077C7.70393 69.8441 7.75987 69.7252 7.76035 69.5551L7.7631 68.5855L6.78791 68.0225Z" fill="#3F434F"></path><path d="M10.4589 70.9565L10.4551 72.3174L10.7252 72.4734L10.7291 71.1125L10.4589 70.9565Z" fill="#3F434F"></path><path d="M10.594 70.1384L10.2344 70.8274L10.4583 70.9567L10.9505 71.2387L10.594 70.1384Z" fill="#3F434F"></path><path d="M8.69882 72.1023C8.6657 72.1023 8.62996 72.0919 8.59509 72.0718L6.06528 70.6116C5.95719 70.5489 5.86914 70.3928 5.86914 70.2656L5.87786 67.3539C5.87786 67.2807 5.90663 67.2223 5.95632 67.1935C6.006 67.1656 6.0679 67.17 6.12892 67.2049L8.65872 68.665C8.77031 68.7304 8.86097 68.8865 8.85923 69.0137L8.85138 71.9254C8.85138 71.9977 8.82174 72.0553 8.77118 72.0831C8.74939 72.0962 8.72498 72.1023 8.69882 72.1023ZM6.0278 67.2816C6.02082 67.2816 6.01472 67.2833 6.00949 67.2859C5.9938 67.2955 5.98421 67.3208 5.98421 67.3539L5.97549 70.2656C5.97549 70.3562 6.04262 70.4748 6.11933 70.5192L8.64913 71.9794C8.6779 71.996 8.70231 71.9977 8.71887 71.9907C8.73457 71.9812 8.74415 71.9576 8.74503 71.9254L8.75287 69.0137C8.75287 68.9248 8.68313 68.8028 8.60468 68.7574L6.07487 67.2973C6.05744 67.2868 6.04087 67.2816 6.0278 67.2816Z" fill="#3F434F"></path><path d="M12.4644 74.2757C12.4313 74.2757 12.3956 74.2661 12.3616 74.246L9.83178 72.7859C9.72107 72.7222 9.63477 72.5697 9.63477 72.4398L9.64348 69.5273C9.64348 69.4549 9.67138 69.3965 9.72194 69.3677C9.7725 69.3381 9.83352 69.3425 9.89455 69.3782L12.4243 70.8393C12.5359 70.9029 12.6266 71.0598 12.6249 71.188L12.617 74.0996C12.617 74.1702 12.5891 74.2277 12.5394 74.2565C12.5168 74.2696 12.4915 74.2757 12.4644 74.2757ZM9.7943 69.4558C9.78732 69.4558 9.78035 69.4575 9.77512 69.4602C9.75943 69.4697 9.74984 69.4941 9.74984 69.5273L9.74112 72.4398C9.74112 72.5304 9.80911 72.649 9.88583 72.6935L12.4148 74.1536C12.4427 74.1693 12.4688 74.1719 12.4854 74.1641C12.5011 74.1545 12.5107 74.131 12.5107 74.0996L12.5185 71.188C12.5185 71.0982 12.4488 70.977 12.3703 70.9317L9.8405 69.4706C9.82306 69.461 9.80737 69.4558 9.7943 69.4558Z" fill="#3F434F"></path><path d="M47.0917 52.1785C47.5459 52.4408 47.913 53.0767 47.9115 53.5987L47.8301 82.3365C47.8286 82.8585 47.4591 83.0691 47.0048 82.8069L29.2145 72.5356C28.7602 72.2733 28.3931 71.6374 28.3945 71.1154L28.476 42.3776C28.4775 41.8556 28.847 41.645 29.3013 41.9073L47.0917 52.1785Z" fill="#576CFB"></path><path d="M46.0857 54.5316L46.0131 80.5062L30.2285 71.406L30.3011 45.4314L46.0857 54.5316Z" fill="white"></path><path d="M49.9353 52.4236L49.8584 81.1531C49.8584 81.4223 49.7621 81.5953 49.6276 81.6915L47.5891 82.8646C47.743 82.7876 47.82 82.5953 47.8391 82.3453L47.9161 53.5966C47.9161 53.0774 47.5508 52.4428 47.0893 52.1736L29.3016 41.9048C29.0709 41.7702 28.8592 41.7702 28.7246 41.8471L30.7438 40.6741C30.8976 40.578 31.1092 40.5971 31.34 40.7318L49.1276 51.0006C49.5699 51.2506 49.9545 51.9043 49.9353 52.4236Z" fill="#748BFD"></path><path d="M34.259 49.7028L34.2498 52.941L31.4434 51.3207L31.4525 48.0825L34.259 49.7028Z" fill="#F9607F"></path><path d="M44.9136 57.2287L44.9122 57.7216L35.2402 52.1375L35.2416 51.6445L44.9136 57.2287Z" fill="#D4DAE8"></path><path d="M34.2414 55.966L34.2323 59.1909L31.4258 57.5706L31.4349 54.3457L34.2414 55.966Z" fill="#37617B"></path><path d="M34.2239 62.216L34.2147 65.4543L31.4082 63.8339L31.4174 60.5957L34.2239 62.216Z" fill="#75CA75"></path><path d="M34.2063 68.466L34.1971 71.7042L31.3906 70.0838L31.3998 66.8457L34.2063 68.466Z" fill="#5B5E71"></path><path d="M41.0048 75.1412L41.0034 75.6342L35.1816 72.273L35.183 71.78L41.0048 75.1412Z" fill="#D4DAE8"></path><path d="M44.8589 75.9916L44.8575 76.4846L35.1855 70.9005L35.1869 70.4075L44.8589 75.9916Z" fill="#D4DAE8"></path><path d="M41.0224 68.8915L41.021 69.3845L35.1992 66.0233L35.2006 65.5303L41.0224 68.8915Z" fill="#D4DAE8"></path><path d="M44.8628 74.619L44.8614 75.112L35.1895 69.5279L35.1908 69.0349L44.8628 74.619Z" fill="#D4DAE8"></path><path d="M44.894 63.4918L44.8927 63.9715L35.2207 58.3874L35.2221 57.9077L44.894 63.4918Z" fill="#D4DAE8"></path><path d="M41.0575 56.3783L41.0561 56.8714L35.2344 53.5102L35.2358 53.0171L41.0575 56.3783Z" fill="#D4DAE8"></path><path d="M44.898 62.1193L44.8966 62.599L35.2246 57.0149L35.226 56.5352L44.898 62.1193Z" fill="#D4DAE8"></path><path d="M44.9156 55.8561L44.9142 56.3491L35.2422 50.765L35.2436 50.272L44.9156 55.8561Z" fill="#D4DAE8"></path><path d="M44.8765 69.7418L44.8751 70.2349L35.2031 64.6508L35.2045 64.1577L44.8765 69.7418Z" fill="#D4DAE8"></path><path d="M41.0399 62.6415L41.0386 63.1212L35.2168 59.76L35.2182 59.2803L41.0399 62.6415Z" fill="#D4DAE8"></path><path d="M44.8804 68.3693L44.879 68.8624L35.207 63.2782L35.2084 62.7852L44.8804 68.3693Z" fill="#D4DAE8"></path><path d="M41.7405 52.5315L33.9218 47.9878L33.9121 44.5596L41.7308 49.1033L41.7405 52.5315Z" fill="#416E84"></path><path d="M41.3517 51.6015L34.5451 47.6462L34.3047 47.7664L41.3524 51.8617L41.3517 51.6015Z" fill="#4C7891"></path><path d="M34.5399 45.3693L34.2988 45.2292L34.3054 47.7663L34.5458 47.6461L34.5399 45.3693Z" fill="#37617B"></path><path d="M41.3516 51.6015L41.3457 49.3247L34.5391 45.3694L34.5449 47.6462L41.3516 51.6015Z" fill="#D4DAE8"></path><path d="M41.7308 49.1033L33.9121 44.5596L36.4067 43.1194L44.2253 47.6631L41.7308 49.1033Z" fill="#4C7891"></path><path d="M44.225 47.6631L44.2263 48.1286L42.1492 49.3279L42.1576 52.2906L41.7402 52.5316L41.7305 49.1033L44.225 47.6631Z" fill="#37617B"></path><path d="M12.1845 67.7944L12.0957 78.4066L16.4229 80.916L17.674 81.6511L21.881 84.0909L21.8497 73.4091L17.6897 70.985L16.4385 70.2655L12.1845 67.7944Z" fill="#F9BB4A"></path><path d="M21.8379 73.4154L21.8773 84.0838L31.6016 78.4651L31.5696 67.8064V67.7905H31.5536L27.335 70.2354L26.3761 70.7948L26.0885 70.9545L21.8379 73.4154Z" fill="#EFAC41"></path><path d="M12.1777 67.8044L21.8419 73.4191L26.0902 70.9596L27.32 70.2639L27.3448 70.2516L31.5683 67.8044L21.904 62.1897L12.1777 67.8044Z" fill="#FED57A"></path><path d="M27.3505 65.345L17.6863 70.9597L16.4564 70.264L16.4316 70.2517L26.1207 64.637L26.1331 64.6494L27.3505 65.345Z" fill="#E4E8F4"></path><path d="M16.4238 73.0516L17.675 73.7867L17.6906 70.9851V70.9538L17.4091 70.7974L16.4395 70.25V70.2657L16.4238 73.0516Z" fill="#CAD0DD"></path><path d="M23.2107 79.552L23.5274 80.1546L23.3313 80.2678L22.8984 80.5159L23.2107 79.552Z" fill="#3F434F"></path><path d="M23.3304 80.2681L23.3338 81.4602L23.0971 81.5968L23.0938 80.4047L23.3304 80.2681Z" fill="#3F434F"></path><path d="M24.507 80.8896L24.5077 81.1448L22.8738 82.0882L22.873 81.833L24.507 80.8896Z" fill="#3F434F"></path><path d="M27.4929 77.1511L27.4953 78.0005C27.4961 78.2687 27.3411 78.5802 27.1354 78.7382L27.1375 79.5037C27.2818 79.4372 27.3907 79.4434 27.3909 79.5235L26.7538 79.8913C26.7536 79.8112 26.862 79.6796 27.0062 79.5795L27.0041 78.814C26.91 78.8515 26.8288 78.8424 26.7654 78.8025C26.6905 78.7469 26.6415 78.6427 26.6411 78.4937L26.6387 77.6443L27.4929 77.1511Z" fill="#3F434F"></path><path d="M24.2777 79.7214L24.2811 80.9135L24.0444 81.0502L24.041 79.8581L24.2777 79.7214Z" fill="#3F434F"></path><path d="M24.1599 79.0046L24.475 79.6082L24.2788 79.7214L23.8477 79.9685L24.1599 79.0046Z" fill="#3F434F"></path><path d="M25.7568 80.7082C25.7125 80.6838 25.6866 80.6334 25.6866 80.57L25.6797 78.0194C25.6782 77.9079 25.7576 77.7712 25.8553 77.7139L28.0715 76.4348C28.1249 76.4043 28.1791 76.4005 28.2227 76.4249C28.2662 76.4501 28.2914 76.5013 28.2914 76.5654L28.299 79.116C28.299 79.2275 28.2219 79.3642 28.1272 79.4192L25.9111 80.6983C25.8805 80.7158 25.8492 80.725 25.8202 80.725C25.7973 80.725 25.7759 80.7197 25.7568 80.7082ZM28.1188 76.5158L25.9027 77.7949C25.834 77.8346 25.7729 77.9415 25.7729 78.0194L25.7797 80.57C25.7805 80.5982 25.7889 80.6189 25.8027 80.6273C25.8172 80.6334 25.8385 80.6318 25.8637 80.6173L28.0799 79.3382C28.1471 79.2993 28.2059 79.1954 28.2059 79.116L28.1982 76.5654C28.1982 76.5364 28.1898 76.5143 28.1761 76.5059C28.1715 76.5036 28.1661 76.502 28.16 76.502C28.1486 76.502 28.1341 76.5066 28.1188 76.5158Z" fill="#3F434F"></path><path d="M22.4557 82.612C22.4122 82.5868 22.3878 82.5364 22.3878 82.4745L22.3809 79.9239C22.3794 79.8117 22.4588 79.6742 22.5565 79.6185L24.7726 78.3386C24.8261 78.3073 24.8795 78.3035 24.9238 78.3294C24.9681 78.3546 24.9926 78.4058 24.9926 78.4692L25.0002 81.0205C25.0002 81.1343 24.9246 81.2679 24.8276 81.3237L22.6115 82.6028C22.5817 82.6204 22.5504 82.6288 22.5214 82.6288C22.4977 82.6288 22.4756 82.6234 22.4557 82.612ZM24.82 78.4195L22.6039 79.6994C22.5351 79.7391 22.474 79.8453 22.474 79.9239L22.4809 82.4745C22.4809 82.502 22.4893 82.5226 22.5031 82.531C22.5176 82.5379 22.5405 82.5356 22.5649 82.5219L24.7803 81.2427C24.8475 81.2038 24.907 81.0999 24.907 81.0205L24.8994 78.4692C24.8994 78.4402 24.891 78.4188 24.8772 78.4104C24.8727 78.4081 24.8666 78.4066 24.8604 78.4066C24.849 78.4066 24.8352 78.4111 24.82 78.4195Z" fill="#3F434F"></path></svg>